<svg id="542264cb-09e1-484d-b9f2-be62ede79db5" data-name="Layer 1" xmlns="http://www.w3.org/2000/svg" xmlns:xlink="http://www.w3.org/1999/xlink" viewBox="0 0 829.55 829.99" width="95%"><defs><linearGradient id="7546a71a-d15e-445f-8ceb-c04589c57a45" x1="658.72" y1="394.93" x2="744.33" y2="262.13" gradientUnits="userSpaceOnUse"><stop offset="0" stop-color="#7dceef"/><stop offset="1" stop-color="#f5a98a"/></linearGradient><linearGradient id="7252a16b-8aac-44fb-b120-aecf447c4719" x1="658.72" y1="394.93" x2="744.33" y2="262.12" xlink:href="#7546a71a-d15e-445f-8ceb-c04589c57a45"/><linearGradient id="8dbc8520-8457-4ff2-95fe-a736edd74de7" x1="658.71" y1="394.92" x2="744.32" y2="262.12" xlink:href="#7546a71a-d15e-445f-8ceb-c04589c57a45"/><linearGradient id="cffd6454-efdd-4ce2-b8a7-521dab66b1c7" x1="658.24" y1="394.62" x2="743.85" y2="261.82" xlink:href="#7546a71a-d15e-445f-8ceb-c04589c57a45"/><linearGradient id="ffbd0cd8-88a6-4797-92ee-0268dd566115" x1="599.63" y1="356.83" x2="685.24" y2="224.03" xlink:href="#7546a71a-d15e-445f-8ceb-c04589c57a45"/></defs><title>brain</title><path d="M778.61,5.95c-87.55,0-162.33,55.71-190.75,133.55h7c28.12-74.17,99.89-127,183.8-127C887,12.46,975.1,100.6,975.1,208.95a196.06,196.06,0,0,1-66.64,147.34c-.29.26,1.73,7.1,1.92,6.94a202.61,202.61,0,0,0,71.23-154.29C981.61,97,890.55,5.95,778.61,5.95Z" transform="translate(-152.06 -5.95)" style="fill:url(#7546a71a-d15e-445f-8ceb-c04589c57a45)"/><path d="M895.35,318.92a159.88,159.88,0,0,0,43.74-110c0-88.49-72-160.48-160.48-160.48a160.7,160.7,0,0,0-146.09,94.09q2.53.64,5.05,1.34a155.54,155.54,0,0,1,141-90.29C864.27,53.61,934,123.29,934,208.95a154.69,154.69,0,0,1-40.85,104.82C893.65,315.73,895.11,319.19,895.35,318.92Z" transform="translate(-152.06 -5.95)" style="fill:url(#7252a16b-8aac-44fb-b120-aecf447c4719)"/><path d="M885.24,294.46a136.07,136.07,0,0,0,30.14-85.51c0-75.41-61.35-136.76-136.76-136.76A136.93,136.93,0,0,0,655.47,149.5l5.75,2c.16.05.31.12.46.18a130.4,130.4,0,0,1,116.94-73c71.82,0,130.26,58.43,130.26,130.25a129.52,129.52,0,0,1-27.42,79.79A59.31,59.31,0,0,1,885.24,294.46Z" transform="translate(-152.06 -5.95)" style="fill:url(#8dbc8520-8457-4ff2-95fe-a736edd74de7)"/><path d="M724.16,172.78S753,175.46,785.81,193c36.71,19.59,53.42,40.5,53.42,40.5a65.38,65.38,0,0,0-115.07-60.68Z" transform="translate(-152.06 -5.95)" style="fill:url(#cffd6454-efdd-4ce2-b8a7-521dab66b1c7)"/><path d="M906.72,480.78v-.5c-.6-208.54-115.66-268.21-150.91-281.53-5.27-2-23.73-8.48-40.15-8.48a44.67,44.67,0,0,0-10.17,1.05l-1.58.37-1.32-.94c-28.88-20.49-70.55-33.22-108.75-33.22a151.82,151.82,0,0,0-20.47,1.34c-22.78,3.13-41.31,11.34-55.1,24.41L516,185.46l-2.44-2c-28.92-23.35-55.07-28.25-71.91-28.25a84,84,0,0,0-16.25,1.55c-21.77,4.27-41.16,17-51.88,34.1l-1.65,2.63L369,192.26a51.13,51.13,0,0,0-21-4.09c-33.66,0-52.5,14.58-62.38,26.82a78.38,78.38,0,0,0-12.28,21.66l-.39,1-.88.63C238.87,262,197.75,302,190.34,357.75l-.14,1-.68.8c-31.26,37-37.63,75.07-37.46,100.45.21,32,11.08,63.25,29.83,85.67,20.71,24.77,50.46,39,81.64,39,15.74,0,32.19-3.56,48.89-10.58l4.89-2.06.08,5.31c.36,24.15,7.29,46.52,20,64.69,27.61,39.31,73.43,47.56,107,47.56a273.51,273.51,0,0,0,46.4-4.29l2-.35,1.32,1.54c12.72,14.73,28,21.83,41.46,28.11,29.4,13.72,54.79,25.57,62.91,111.23a11.11,11.11,0,0,0,11.12,10.1h74.17a11.15,11.15,0,0,0,11-13.06c-15.16-87.16.16-105.11,26.41-127.17,18.44-15.51,41.38-34.83,47.17-90.49l.32-3.06,3.08-.15c35.65-1.68,69-10,93.83-23.45l.18-.09.19-.08a10.53,10.53,0,0,0,2.81-1.63l.23-.19.25-.14c34.6-20.11,41.87-44.88,41.87-62.11a118,118,0,0,0-4.27-33.06ZM745.83,606.1c-5.21,44.14-22.38,58.57-39,72.53-28.86,24.25-48.39,47.84-36.74,130.93l.57,4.08h-51l-.4-3.13C608.13,723.83,574.6,708.2,545,694.4c-7.1-3.31-13.81-6.44-20.12-10.54l-5.7-3.7,6.27-2.61c12.65-5.27,25.62-13.25,38.16-21,36.86-22.76,87.35-53.92,164.27-55.14h.27c5.2.32,9.85.53,14.21.66l3.91.11Zm124.23-56.81-3,2.42-2.21-3.14c-9.46-13.41-23.83-19.49-35.37-24.38-17.32-7.38-27.2-12.37-28.82-29a11.11,11.11,0,0,0-11.06-10.09c-.37,0-.75,0-1.14.06a11.22,11.22,0,0,0-10,12.19c3,30.71,24.81,40,42.32,47.41,10.55,4.48,18.43,8.11,23.83,14.16l3.38,3.79-4.7,1.92C819.71,574.23,788,580,758.51,580h-.28c-7.9-.61-15.84-.91-24.26-.91q-2.59,0-5.15,0h-.28c-58-3.7-80.63-17.91-89.36-29.18-6.73-8.66-8.34-19.43-4.93-32.93a11.19,11.19,0,0,0-8.05-13.56,11.55,11.55,0,0,0-2.77-.34,11.14,11.14,0,0,0-10.8,8.42c-5.16,20.32-2.15,37.86,9,52.12,6.31,8.13,15.54,15.12,27.41,20.78l8.41,4-8.92,2.66c-41.29,12.31-73.23,32-96.55,46.44-26.68,16.46-40.52,23.8-52,23.8-7.21,0-13.4-3-20.07-9.64-16.4-16.41-6-33.69,21.7-69.22,23.66-30.35,53.11-68.12,41.05-111.48a11.16,11.16,0,0,0-21.5,6c9,32.52-14.43,62.65-37.15,91.8-23.81,30.58-48.44,62.2-25.43,92.35l4.11,5.39-6.77.36c-3.79.2-7.55.3-11.17.3-41.37,0-71.31-12.78-89-38-23.25-33.11-18.64-79.31-2.51-106a11.16,11.16,0,0,0-19.1-11.55,115.94,115.94,0,0,0-12.81,31.73l-.37,1.49-1.34.76c-19.26,10.94-38.28,16.49-56.54,16.49-25.07,0-47.21-10.64-64-30.76-22.77-27.25-35.54-76.76-12.71-126l4.23-9.11,2.49,9.73c8.46,33,30,60.63,54.8,70.41a76.34,76.34,0,0,0,28.82,5.09c9.81,0,19.61-1.32,30-2.71,11.05-1.49,22.48-3,35.05-3,20.6,0,53.05,3.73,96.9,36a10.94,10.94,0,0,0,6.58,2.16,11.09,11.09,0,0,0,9-4.54,11.21,11.21,0,0,0-2.38-15.62c-37.37-27.49-72.4-40.3-110.25-40.3-14,0-26.69,1.71-37.88,3.21l-.2,0c-10,1.33-18.56,2.49-26.74,2.49A54.89,54.89,0,0,1,256,455.72c-24.79-9.77-40.85-42-43.9-68.76-5.89-51.58,27.79-91.43,48.39-110.6l5.9-5.49.13,8.05a151,151,0,0,0,3.12,28.25c11.84,55.17,47.79,90.89,101.24,100.57a116.36,116.36,0,0,0,20.94,1.76c14.79,0,30-2.2,46.14-4.54,16.47-2.38,33.5-4.85,50.68-4.85,30.6,0,55.77,8,79.2,25.22C636.76,476,673,493.1,711.3,493.1a139.49,139.49,0,0,0,15-.85A11.16,11.16,0,0,0,725.21,470a11.56,11.56,0,0,0-1.26.07,114.5,114.5,0,0,1-12.24.67c-32.2,0-63-14.45-122.26-57.26l-2.14-1.55.84-2.5c8.65-25.64,23.32-41.65,36.28-55.79,13.28-14.51,25.82-28.22,31.42-48.08,6.37-22.56,3-49.9-10.7-86a11.09,11.09,0,0,0-10.44-7.22,11.15,11.15,0,0,0-10.17,6.57,11.05,11.05,0,0,0-.26,8.53c25,66,7.67,85-16.31,111.19-12.4,13.55-27.83,30.41-38.21,56.51l-1.51,3.8-3.57-2c-22.78-12.77-47.8-19-76.49-19-19.08,0-37.36,2.65-53.49,5l-.22,0c-15.12,2.18-29.41,4.24-42.73,4.24a94.18,94.18,0,0,1-16.88-1.38c-56.37-10.21-76.46-50.93-83.39-83.29-3.85-17.89-3.36-37.78,1.31-53.2l.07-.22.09-.21a11.48,11.48,0,0,0,.9-2.87l.05-.34.12-.32a57.23,57.23,0,0,1,9-16.3c9.93-12.3,25.08-18.54,45-18.54,8.53,0,14.44,2.34,19.18,7.58l.24.26.18.31a10.35,10.35,0,0,0,1.46,1.87l.19.2.16.23c3.88,5.52,7.07,13.3,11.28,24.88,5.35,14.71,11.41,31.39,23.92,45C419.12,306.49,439.5,314.74,467,316l.66,0a10.91,10.91,0,0,0,11-10.65A11.15,11.15,0,0,0,468,293.71c-46.89-2.17-56.3-28.07-66.27-55.5-3.11-8.59-6.64-18.32-11.85-26.83l-.91-1.49.61-1.64c4.21-11.26,18.58-25.31,40.18-29.57a63.23,63.23,0,0,1,12.14-1.15c15.56,0,39.85,5.45,67.17,31.42l.19.18c19.63,18.72,38.22,45.51,55.25,79.6a11.15,11.15,0,0,0,10,6.17,11,11,0,0,0,5-1.18,11.18,11.18,0,0,0,5-15c-15.23-30.43-32-55.75-49.79-75.25l-2.45-2.68,2.72-2.41c12.89-11.44,29.69-15.78,41.51-17.4a129.82,129.82,0,0,1,17.64-1.16c36.54,0,77.49,13.62,101.91,33.89,16.88,14,23.25,37.18,30,61.68l0,.13c9.94,36.13,21.21,77.07,71.1,87a11.5,11.5,0,0,0,2.19.21,11.16,11.16,0,0,0,2.16-22.1c-33.92-6.72-43-31.3-53.94-71-4.61-16.78-9.37-34.13-17.81-49.19l-4-7.23,8,2c12.24,3,31.3,9.91,52.64,25.32C856.05,290.8,877.14,376,882.55,438.68l.59,6.82-5.94-3.41c-18.83-10.79-42.63-13.25-63.64-15.41-41.22-4.27-83.83-8.69-102-60.71a11.15,11.15,0,1,0-21.05,7.36c22.81,65.39,77.1,71,120.73,75.53,51,5.29,77.56,10.6,77.56,65.47C888.82,527.4,882.51,539.16,870.06,549.29Z" transform="translate(-152.06 -5.95)" style="fill:url(#ffbd0cd8-88a6-4797-92ee-0268dd566115)"/></svg>