<svg xmlns="http://www.w3.org/2000/svg" viewBox="0 0 363 282.33">
	<path fill="#f69165" d="M424.08,160.83A75.19,75.19,0,1,0,499.28,236,75.28,75.28,0,0,0,424.08,160.83Zm0,137.85A62.66,62.66,0,1,1,486.75,236,62.73,62.73,0,0,1,424.08,298.69Z" transform="translate(-228.6 -81.1)"/>
	<path fill="#f69165" d="M591.08,235.67a5.26,5.26,0,0,0,0-.76c-.11-1.64-.85-1.75-2.15-2.87-50.14-80-105.05-119.25-163.26-119.25h-1.07c-93.24,0-161.57,103.12-171.73,119.4-1.21,1.12-1.89,1.88-2,3.47a1.39,1.39,0,0,0,0,.36,3.79,3.79,0,0,0,0,.54c.1,1.58.78,4,2,5.11C263,257.94,331.31,363.43,424.57,363.43h1.07c58.21,0,113.12-41.67,163.27-121.69a7.3,7.3,0,0,0,2.15-4.79C591.1,236.71,591.07,235.93,591.08,235.67ZM425.62,350.9h-.92c-82.79,0-147.48-93.36-160.09-112.79,12.61-19.43,77.3-112.79,160.09-112.79h.92c53.22,0,104.22,37.77,151.62,112.79C529.84,313.14,478.86,350.9,425.62,350.9Z" transform="translate(-228.6 -81.1)"/>
	<path fill="#f69165" d="M436.62,198.43a21.93,21.93,0,1,0,21.93,21.93A22,22,0,0,0,436.62,198.43Zm0,31.33a9.4,9.4,0,1,1,9.4-9.4A9.41,9.41,0,0,1,436.62,229.76Z" transform="translate(-228.6 -81.1)"/><path fill="#f69165" d="M284.1,125.54H230.18a1.6,1.6,0,0,0-1.58,1.58V164.5a1.62,1.62,0,0,0,1.58,1.63H284.1a1.62,1.62,0,0,0,1.58-1.63V127.12A1.6,1.6,0,0,0,284.1,125.54Z" transform="translate(-228.6 -81.1)"/>
	<path fill="#f69165" d="M244.8,101a12.35,12.35,0,1,1,24.69,0v17h7.45V101a19.8,19.8,0,1,0-39.59,0v17h7.45Z" transform="translate(-228.6 -81.1)"/>
</svg>