<?xml version="1.0" encoding="utf-8"?>
<!-- Generator: Adobe Illustrator 16.0.0, SVG Export Plug-In . SVG Version: 6.00 Build 0)  -->
<!DOCTYPE svg PUBLIC "-//W3C//DTD SVG 1.1//EN" "http://www.w3.org/Graphics/SVG/1.1/DTD/svg11.dtd">
<svg version="1.1" id="Layer_1" xmlns="http://www.w3.org/2000/svg" xmlns:xlink="http://www.w3.org/1999/xlink" width="95%" viewBox="330.561 0 122 119.061" enable-background="new 350.561 0 122 119.061"
	 xml:space="preserve">
<g>
	<path fill="#F69165" d="M462.352,65.698h-21.473c-0.347,0.006-0.625,0.285-0.631,0.629v14.884c0,0.35,0.278,0.639,0.631,0.648
		h21.473c0.352-0.01,0.631-0.299,0.631-0.648V66.327C462.977,65.983,462.698,65.704,462.352,65.698z"/>
	<path fill="#F69165" d="M446.708,55.938c0-2.715,2.2-4.917,4.916-4.917s4.916,2.202,4.916,4.917l0,0v6.774h2.966v-6.774
		c0.085-4.353-3.374-7.952-7.729-8.037c-4.353-0.085-7.951,3.375-8.036,7.728c-0.001,0.103-0.001,0.206,0,0.309v6.774h2.967V55.938z
		"/>
</g>
<path fill="#F69165" d="M448.55,3.76c0.294-1.19-0.434-2.4-1.633-2.701c-1.176-0.279-2.398,0.461-2.695,1.625
	c-0.033,0.133-3.535,13.161-17.917,19.598l-0.047-0.053l-1.345,0.634c-0.358,0.156-36.134,15.9-67.036,38.239
	c-0.991,0.714-1.211,2.11-0.49,3.11c0.693,0.96,2.154,1.198,3.118,0.502c26.688-19.291,57.305-33.704,64.782-37.11
	c1.477,1.808,3.983,5.554,4.42,10.577c-14.125,5.497-50.155,22.677-65.189,29.905c-5.049,2.428-8.254,3.981-8.386,4.045
	c-1.105,0.535-1.569,1.872-1.034,2.979c0.516,1.065,1.854,1.573,2.99,1.025c0.097-0.048,1.656-0.806,4.272-2.071
	c24.293,25.579,44.194,31.951,52.893,32.249c-0.332,1.936-0.596,2.564-2.288,6.838c-0.22,0.554-0.21,1.16,0.026,1.706
	c0.237,0.549,0.672,0.97,1.226,1.188c0.261,0.104,0.537,0.156,0.82,0.156c0.95,0,1.79-0.583,2.088-1.45
	c3.581-10.385,3.441-12.079,3.328-13.444c-0.141-1.714-0.818-3.501-2.015-5.324c19.872-21.649,12.299-45.793,9.639-52.425
	c4.377-1.787,12.169-4.268,12.266-4.299c0.565-0.189,1.023-0.587,1.288-1.121c0.266-0.533,0.309-1.137,0.119-1.698
	c-0.304-0.913-1.151-1.525-2.112-1.525c-0.241,0-0.479,0.039-0.707,0.115l-5.282,1.762c-0.627-4.923-2.732-8.706-4.351-10.978
	C444.795,18.306,448.402,4.363,448.55,3.76z M424.141,45.629c0.532,1.312,1.217,3.223,1.83,5.617
	c-1.337,1.262-4.183,4.346-5.848,9.04c-2.397,6.755-1.439,13.97,2.846,21.451c-0.77,1.545-1.636,3.059-2.585,4.519
	c-5.511-7.242-7.875-14.481-7.03-21.534C414.48,55.325,421.542,48.026,424.141,45.629z M412.426,94.151
	c-14.485-2.428-26.764-10.49-42.797-23.593c11.347-5.458,30.461-14.574,45.389-21.301c-2.721,3.731-5.344,8.77-6.086,14.905
	c-1.045,8.629,1.897,17.332,8.736,25.868c-0.989,1.246-2.032,2.45-3.107,3.583C414.124,94.074,413.27,94.29,412.426,94.151z
	 M414.713,98.436c0.164,0.254,1.278,2.214,1.196,3.773c-6.229-0.332-22.691-6.441-34.333-16.916
	c11.068,7.028,19.49,11.475,30.114,13.256C412.693,98.718,413.729,98.686,414.713,98.436z"/>
</svg>
