<svg xmlns="http://www.w3.org/2000/svg" viewBox="0 0 363 418.87">
	<path fill="#7dceef" d="M374.58,337.08A27.52,27.52,0,1,0,402.1,364.6,27.52,27.52,0,0,0,374.58,337.08Zm55.19,42.31,13.78,13.14L415,405l5.36,18.27-31-3.48-4.5,18.5-25.08-18.5-13.14,13.78L334.18,405l-18.27,5.36,3.48-31-18.5-4.49,18.5-25.08-13.78-13.14,28.57-12.47-5.36-18.27,31,3.48,4.49-18.5,25.09,18.5,13.14-13.78L415,324.21l18.27-5.36-3.48,31,18.5,4.49Z" transform="translate(-195.42 -253.82)"/>
	<path fill="#7dceef" d="M275.94,667.28c3.89-30,7.35-60.62,6.85-90.9-.17-10.33-1.65-19.75-5.85-29.29-5.27-12-13.44-22.83-20.46-33.85-12.76-20-24.79-40.5-32-63.22-8.27-25.88-10.59-54.82-3.43-81.2,6.53-24.07,21.07-45.28,38.43-62.86,28.82-29.18,69.65-40.12,109.79-40.71,37.79-.55,81.55,8.55,107.06,38.74,17.09,20.23,27.17,46.16,31,72.16,1.66,11.38,2.52,23.89-.62,35.09-2.08,7.41-7.1,14.21-6.08,22.16,2,15.88,13.67,30.36,21.9,43.56,4,6.34,8.18,12.86,10.71,19.93a28.36,28.36,0,0,1,1.09,4c-.13-.67-.05,2.82.13,1.57,0,.17-.51,1.72,0,.56-.09.2-.94,1.39-.19.49-2.1,2.52-5.13,4.18-8,5.6-8.59,4.22-21.27,5.84-21.82,17.52-.21,4.47,1,9.06,1.08,13.54.17,7.1-2,13.81-5.22,20.07-4.42,8.7-10.4,18.1-6.11,28,3.4,7.8,4.67,17.08-1.74,24-3.92,4.22-10.56,5.29-15.93,6.25-8.62,1.53-17.43,1-26.09.09-8.22-.89-16.77-2.72-25.06-2.32-4.16.2-7.28,2.83-9.45,6.21-4.72,7.35-4.86,18-5.14,26.43a169.64,169.64,0,0,0,.38,18.46c.55,7.19,11.8,7.24,11.25,0-.87-11.5-1.33-24,1.64-35.21a17.42,17.42,0,0,1,1.27-3.43c.65-1.26.49-1,1-1.35-.91.58.73.08-.4.13a50.76,50.76,0,0,1,5.64.29c4.09.27,8.16.77,12.23,1.26,13.89,1.68,27.35,2.45,41.1-.8,10.2-2.41,17.88-8.25,21.58-18.16a33.1,33.1,0,0,0,1.54-16.45c-.63-3.76-2.43-6.92-3.79-10.37s1-8,2.65-11.28c2.83-5.73,5.91-11.15,7.86-17.27a49.29,49.29,0,0,0,1.86-18.54c-.17-2.26-.5-4.52-.74-6.77-.16-1.49.79-3.94-.69-2.81,9-7,21.46-7,28.57-17,3.48-4.88,1.81-12-.12-17.08-5.94-15.71-17-29.19-25.14-43.75-3-5.4-6.63-12-6.74-17.92,0-2.34,2.12-6.36,3.37-9.44A64.48,64.48,0,0,0,518.87,408c2.14-12.57.67-25.81-1.3-38.3a159.59,159.59,0,0,0-12-39.52c-8.84-20-22-38.41-40.06-51-16-11.25-35.34-17.8-54.44-21.5-40.65-7.89-85.29-3.77-122.93,13.88-18.57,8.71-33.82,22.24-47,37.78-16.45,19.37-28.78,42.36-33.46,67.47-4.95,26.54-1.26,55.09,7.34,80.5,7.61,22.47,19.83,42.89,32.51,62.79,9.37,14.7,22.17,30,23.66,48,1.07,12.95.25,26.11-.57,39.05-1.28,20.11-3.3,40.22-5.89,60.2-.93,7.18,10.33,7.09,11.25,0Z" transform="translate(-195.42 -253.82)"/>
</svg>