<svg xmlns="http://www.w3.org/2000/svg" viewBox="0 0 363 331.81">
	<path fill="#f69165" d="M458.43,323.42a439.74,439.74,0,0,1-1-69c1-15.48-7.71-29.8-21.4-33.23a3.91,3.91,0,0,0-4.09,1.69q-8.94,12.87-17.15,26.56-2.87-15.55-4.72-31.62a4,4,0,0,0-2.87-3.57c-13.63-3.43-28.64,7.29-33.59,25.38A535.37,535.37,0,0,0,358,321.42a24.41,24.41,0,0,0,4.24,17.13c2.91,3.89,6.65,6,10.74,6.17l1.66.07a520.43,520.43,0,0,0,19.67,103.84c.7,2.33,2.82,3.78,4.8,3.3l45.17-10.84a4.05,4.05,0,0,0,2.9-4.67,457.58,457.58,0,0,1-5.24-93.25l1.65-.14a15.56,15.56,0,0,0,10.53-5.58A18.81,18.81,0,0,0,458.43,323.42ZM401,222.83l1.62-.08q2.46,19.88,6.49,39a3.94,3.94,0,0,0,3.17,3.22l.22,0c1.2.36,2.89-.66,3.74-2.16q9.58-16.91,20.32-32.61l1.41.7c7.77,3.9,12.29,13.13,11.67,23.08a447.65,447.65,0,0,0,1,70.17,10.65,10.65,0,0,1-2.44,8,7.53,7.53,0,0,1-5.65,2.76l-4.4,0a4,4,0,0,0-3.87,3.88,465.18,465.18,0,0,0,4.5,94.85l-38.25,8.46A512.75,512.75,0,0,1,382,339.57c-.19-2.4-1.92-4.28-4-4.27l-4.4,0a7,7,0,0,1-5.67-3.17,13.63,13.63,0,0,1-2.29-9.49,527.41,527.41,0,0,1,15.39-80.6C384.13,231,392.34,223.24,401,222.83Z" transform="translate(-233.12 -120.22)"/>
	<path fill="#f69165" d="M416.76,200.64a30.81,30.81,0,1,1,30.81-30.81A30.84,30.84,0,0,1,416.76,200.64Zm0-54.44a23.63,23.63,0,1,0,23.62,23.63A23.65,23.65,0,0,0,416.76,146.2Z" transform="translate(-233.12 -120.22)"/>
	<path fill="#f69165" d="M474,169.83A41.49,41.49,0,0,0,453,133.58l-3.84,6.59a34.16,34.16,0,0,1,0,59.31l3.84,6.59A41.49,41.49,0,0,0,474,169.83Z" transform="translate(-233.12 -120.22)"/>
	<path fill="#f69165" d="M489.4,169.83a57.31,57.31,0,0,0-28.56-49.61L457,126.81a49.8,49.8,0,0,1,0,86l3.85,6.59A57.31,57.31,0,0,0,489.4,169.83Z" transform="translate(-233.12 -120.22)"/>
	<path fill="#f69165" d="M380.55,206.08l3.84-6.59a34.16,34.16,0,0,1,0-59.31l-3.84-6.59a41.73,41.73,0,0,0,0,72.5Z" transform="translate(-233.12 -120.22)"/>
	<path fill="#f69165" d="M372.68,219.44l3.85-6.59a49.8,49.8,0,0,1,0-86l-3.85-6.59a57.37,57.37,0,0,0,0,99.22Z" transform="translate(-233.12 -120.22)"/>
</svg>