<svg xmlns="http://www.w3.org/2000/svg" viewBox="0 0 363 385.48" width="95%">
	<path fill="#f69165" d="M499.44,342.64h-70.6a2.1,2.1,0,0,0-2.07,2.07v48.93a2.13,2.13,0,0,0,2.07,2.13h70.6a2.13,2.13,0,0,0,2.07-2.13V344.71A2.1,2.1,0,0,0,499.44,342.64Z" transform="translate(-220.39 -97.75)"/>
	<path fill="#f69165" d="M448,310.55a16.16,16.16,0,1,1,32.33,0v22.27h9.75V310.55a25.92,25.92,0,1,0-51.83,0v22.27H448Z" transform="translate(-220.39 -97.75)"/>
	<path fill="#f69165" d="M440.84,216.94c-3.47-3.47-9.65-14.28-12.35-18.91-7.33-12-14.28-24.31-21.23-36.66-11.19-19.68-22.38-39.75-33.19-59.43-2.31-3.86-6.95-5.4-10.81-3.09a7.72,7.72,0,0,0-3.09,10.81c3.47,6.56,6.95,13.12,10.81,19.3,7.33,13.51,15.05,27,22.77,40.14,6.95,12.35,14.28,24.7,21.61,37,3.47,6.17,10,17,14.67,22,5.4,5.4-2.32,25.09-13.89,25.09h-39a8.15,8.15,0,0,0-8.1,8.1c0,11.58,3.86,26.63,12,34.73,2.32,2.32,2.7,4.63.77,6.95l-18.14,7.72-48.24,20.84a9,9,0,0,0-5,8.1,7.76,7.76,0,0,0,6.56,6.95c7.72,1.55,31.26,6.95,44.77,12.35,4.25,1.55,7.72,3.47,9.26,5,2.7,2.7,2.7,5.4,0,7.72-3.47,3.09-7.72,7.33-10.42,12-3.47,5.79-4.63,12-.77,17.75.39.39.39.77.77,1.16,10,11.58,17.37,16.21,17.37,33.58,0,13.89-4.25,30.87-20.84,30.87h-.39a8.1,8.1,0,0,0,0,16.21c26.63,0,37-23.54,37-47.08,0-22-8.1-28.95-20.45-43.22,1.16-2.7,6.18-7.33,7.72-8.88.39,0,.39-.39.77-.39,8.88-8.88,8.88-22,0-30.87-3.86-3.86-11.58-7.33-20.07-10.42-5.79-1.93-12-3.86-18.14-5.4l18.91-8.1,27-11.58a3.54,3.54,0,0,0,2.32-1.55c8.88-8.88,8.88-22,0-30.87-3.47-3.47-5.4-9.65-6.56-15.44h30.1C440.45,269.43,457.05,232.76,440.84,216.94Z" transform="translate(-220.39 -97.75)"/>
</svg>