<svg xmlns="http://www.w3.org/2000/svg" xmlns:xlink="http://www.w3.org/1999/xlink" version="1.1" viewBox=" 0 0 109 121" width="95%">


	<path fill="#F69165" d="M68.80699046325685,49.205540516376495 c0.3660000000000002,-5.704 -2.887,-10.726 -7.751,-11.944 c-0.7420000000000004,-0.1570000000000001 -1.5190000000000001,0.16800000000000018 -1.92,0.785 c-1.798,2.5860000000000003 -3.553,5.28 -5.227,8.023 c-0.549,-3.124 -1.013,-6.322 -1.3800000000000001,-9.51 c-0.05300000000000004,-0.782 -0.5940000000000004,-1.454 -1.364,-1.6790000000000007 c-0.6170000000000004,-0.1550000000000001 -1.2530000000000001,-0.234 -1.8930000000000002,-0.234 c-4.54,0 -8.758000000000001,3.829 -10.258,9.31 c-2.515,9.217 -4.325,18.701 -5.3790000000000004,28.181 c-0.281,2.206 0.268,4.422 1.554,6.252 c1.085,1.451 2.493,2.254 4.072,2.321 l0.13,0.005000000000000004 c1.055,11.96 3.323,23.852 6.742,35.355 c0.27,0.8950000000000006 1.036,1.52 1.864,1.52 c0,0 0,0 0,0 c0.128,0 0.257,-0.015000000000000012 0.3810000000000002,-0.04500000000000004 l15.542,-3.729 c0.9450000000000004,-0.262 1.541,-1.22 1.359,-2.167 c-1.661,-10.383000000000001 -2.271,-20.982 -1.8170000000000002,-31.512 l0.135,-0.011000000000000012 c1.556,-0.1470000000000001 2.962,-0.8930000000000005 3.956,-2.095 c1.207,-1.436 1.788,-3.329 1.5950000000000002,-5.191 C68.41699046325681,65.01554051637649 68.30299046325683,57.0635405163765 68.80699046325685,49.205540516376495 zM39.50699046325684,76.47154051637649 c-0.6250000000000004,-0.016000000000000014 -1.201,-0.33800000000000036 -1.55,-0.8710000000000004 c-0.5870000000000004,-0.8540000000000004 -0.8370000000000004,-1.8890000000000002 -0.7020000000000004,-2.923 c1.036,-9.309 2.811,-18.604 5.274,-27.625 c0.994,-3.542 3.629,-6.107 6.407,-6.239 l0.09400000000000011,-0.005000000000000004 c0.556,4.388 1.2890000000000001,8.754 2.177,12.966 c0.128,0.7660000000000005 0.7280000000000004,1.375 1.492,1.5150000000000001 l0.09700000000000011,0.007000000000000008 c0.6140000000000004,0.135 1.397,-0.3040000000000002 1.79,-0.995 c2.108,-3.72 4.366,-7.356 6.716,-10.813 l0.09300000000000011,0.04600000000000005 c2.476,1.243 3.942,4.168 3.737,7.454 c-0.518,8.033 -0.401,16.174 0.34500000000000036,24.206 c0.09300000000000011,0.8510000000000004 -0.171,1.7160000000000002 -0.7290000000000004,2.379 c-0.3840000000000003,0.4720000000000002 -0.9550000000000004,0.7500000000000004 -1.554,0.7640000000000005 h-1.528 c-0.988,0.03300000000000003 -1.7850000000000001,0.8330000000000004 -1.8130000000000002,1.808 c-0.5900000000000004,10.75 -0.09100000000000011,21.595 1.482,32.24 l-12.232,2.706 c-3.225,-11.307 -5.318,-22.975 -6.221,-34.692 c-0.08700000000000008,-1.099 -0.8910000000000005,-1.928 -1.8690000000000002,-1.928 H39.50699046325684 zM41.01099046325686,76.97154051637649 L41.01099046325686,76.97154051637649 L41.01099046325686,76.97154051637649 L41.01099046325686,76.97154051637649 z" id="svg_2"/>
	<path fill="#F69165" d="M54.328990463256844,31.187540516376494 L54.328990463256844,31.187540516376494 c6.109,-0.006000000000000008 11.084,-4.98 11.09,-11.089 c0,-6.115 -4.975,-11.09 -11.09,-11.09 c-6.115,0 -11.09,4.975 -11.09,11.09 C43.23899046325681,26.213540516376497 48.213990463256835,31.187540516376494 54.328990463256844,31.187540516376494 zM54.324990463256825,12.475540516376496 v-0.5 l0,0 l0.003000000000000004,0.5 c4.197,0.005000000000000004 7.615,3.425 7.619,7.625 c-0.0020000000000000018,4.201 -3.4210000000000003,7.619 -7.626,7.619 c-4.202,-0.0020000000000000018 -7.619,-3.422 -7.617,-7.625 C46.70599046325685,15.893540516376497 50.124990463256836,12.475540516376496 54.324990463256825,12.475540516376496 z" id="svg_3"/>
	<path fill="#F69165" d="M70.48299046325684,17.140540516376497 c0.79,2.8970000000000002 0.404,5.929 -1.086,8.535 c-0.996,1.741 -2.441,3.186 -4.181,4.18 l-0.4380000000000002,0.25 l1.8250000000000002,3.127 l0.4300000000000002,-0.2440000000000001 c4.6290000000000004,-2.629 7.492,-7.569 7.471,-12.888 c0.021000000000000015,-5.3260000000000005 -2.842,-10.268 -7.471,-12.897 l-0.4300000000000002,-0.2440000000000001 l-1.824,3.128 l0.4380000000000002,0.25 C67.82299046325682,11.827540516376496 69.69299046325682,14.243540516376495 70.48299046325684,17.140540516376497 z" id="svg_4"/>
	<path fill="#F69165" d="M69.72999046325685,2.613540516376496 l-0.4320000000000002,-0.25 l-1.822,3.128 l0.4320000000000002,0.252 c3.832,2.238 6.563,5.835 7.69,10.129 c1.127,4.293 0.515,8.768 -1.7240000000000002,12.6 c-1.441,2.465 -3.505,4.5280000000000005 -5.9670000000000005,5.9670000000000005 l-0.4320000000000002,0.252 l1.826,3.127 l0.4320000000000002,-0.25 c6.207,-3.601 10.062,-10.294 10.062,-17.47 C79.79899046325681,12.914540516376496 75.94199046325684,6.215540516376495 69.72999046325685,2.613540516376496 z" id="svg_5"/>
	<path fill="#F69165" d="M36.09399046325683,27.454540516376497 c1.316,2.309 3.232,4.224 5.541,5.541 l0.7480000000000004,0.4230000000000002 v-0.7260000000000004 l1.506,-2.584 l-0.4380000000000002,-0.25 c-2.606,-1.49 -4.477,-3.907 -5.266,-6.804 c-0.79,-2.8970000000000002 -0.403,-5.928 1.087,-8.535 c0.995,-1.738 2.439,-3.184 4.179,-4.179 l0.4370000000000002,-0.25 l-1.823,-3.128 l-0.4300000000000002,0.2450000000000001 C34.52499046325681,11.262540516376495 32.039990463256856,20.345540516376495 36.09399046325683,27.454540516376497 z" id="svg_6"/>
	<path fill="#F69165" d="M38.925990463256824,37.595540516376495 l0.7510000000000004,0.4230000000000002 v-0.7330000000000004 l1.508,-2.581 l-0.4320000000000002,-0.252 c-7.911,-4.622 -10.587,-14.818 -5.9670000000000005,-22.73 c1.44,-2.464 3.503,-4.5280000000000005 5.9670000000000005,-5.9670000000000005 l0.4320000000000002,-0.252 l-1.828,-3.127 l-0.4310000000000002,0.25 c-9.641,5.599 -12.928,17.998 -7.329,27.639 C33.35999046325685,33.30054051637649 35.89399046325684,35.8355405163765 38.925990463256824,37.595540516376495 z" id="svg_7"/>
</svg>