<svg xmlns="http://www.w3.org/2000/svg" viewBox="0 0 363 344.58">
	<path fill="#f69165" d="M537.67,410.4a50.91,50.91,0,0,1-50.85-50.85A51.65,51.65,0,0,1,509,317.19L499,281H476.41a95,95,0,0,1,1.53,17.15A112.18,112.18,0,1,1,352.79,186.52L322.28,97.81l0-.28v-.47c-.85-3.45-4.85-6.68-8.29-6.68H265.36a4.8,4.8,0,0,1-4.52-3.44l0-.12L260,82a12.92,12.92,0,0,1,2.49-11.29,13.65,13.65,0,0,1,10.64-4.86h56a17.78,17.78,0,0,1,17.33,13.74h0L378,175.83H508.23a11.44,11.44,0,0,1,11.41,9.27l1.43,8.58a9.77,9.77,0,0,1-1.86,7.78,9.66,9.66,0,0,1-7.54,3.21H494.78l13,47.16h30.49a11.81,11.81,0,0,1,11.41,9.52l1.44,8.33a9.72,9.72,0,0,1-2.19,7.84,9,9,0,0,1-7.23,3.44H529.92l7.53,27.44h.21a51,51,0,0,1,0,102ZM515.75,324a42.15,42.15,0,0,0-19.8,35.51,41.72,41.72,0,1,0,41.72-41.72h-2.58a3.43,3.43,0,0,1-1.71.29,42.46,42.46,0,0,0-15.49,4.7A5.41,5.41,0,0,1,515.75,324ZM358.14,195.54c-53.48,3.79-95.35,48.81-95.35,102.58a102.87,102.87,0,1,0,205.74,0,116.35,116.35,0,0,0-2-20,4.29,4.29,0,0,1-.32-1.87A122,122,0,0,0,460.88,259l-.17-.3a2.81,2.81,0,0,1-.46-1.25,104.51,104.51,0,0,0-51.36-52.78,3.39,3.39,0,0,1-2.28-1,105.2,105.2,0,0,0-41-8.44h-4.72a6.17,6.17,0,0,1-2,.4A3.27,3.27,0,0,1,358.14,195.54ZM517.37,312.67A47.78,47.78,0,0,1,528,309.42L520.17,281H508.77Zm24.37-41.11-.05-.16-1.42-8.57v-.14c0-.56-1.22-1.44-2-1.44h-66.8a93.51,93.51,0,0,1,3.19,10.3Zm-43.48-19.72-13-47.16H473.63l13,47.16Zm-21.43,0-13-47.16h-36a116.91,116.91,0,0,1,40,47.16Zm34.83-56.29a.55.55,0,0,0,.29-.07s0-.09,0-.15l-1.41-8.5a3.41,3.41,0,0,0-2.3-1.86H374.51a4.54,4.54,0,0,1-4.52-3.15L337.82,82.72a1.16,1.16,0,0,1-.44-.79,9.16,9.16,0,0,0-8.3-6.7h-56c-1.91,0-3,.57-3.29,1.05a4.31,4.31,0,0,0-.72,3.69l.18,1.27h44.69a18,18,0,0,1,17.4,14.1l-.07,0L362.5,186a20.29,20.29,0,0,1,3.15-.16A110.37,110.37,0,0,1,411,195.54Zm26,194.86a31,31,0,1,1,30.86-30.85A31,31,0,0,1,537.67,390.4Zm0-52.58a21.58,21.58,0,1,0,21.72,21.72A21.49,21.49,0,0,0,537.67,337.83ZM365.66,389a90.85,90.85,0,1,1,90.85-90.86A91,91,0,0,1,365.66,389Zm4.56-9.45a81,81,0,0,0,49.63-20.57l-36-36a30.23,30.23,0,0,1-13.67,5.86Zm-58.77-20.57a80.7,80.7,0,0,0,49.35,20.57V328.84A30.93,30.93,0,0,1,347.15,323Zm115-6.63a81,81,0,0,0,20.57-49.64H396.13a30.46,30.46,0,0,1-5.64,13.92ZM284.26,302.68a81,81,0,0,0,20.57,49.64l35.72-35.72a33.38,33.38,0,0,1-5.61-13.92Zm81.4-26.29a21.72,21.72,0,1,0,0,43.44,21.72,21.72,0,1,0,0-43.44Zm-30.72,17.16a32.43,32.43,0,0,1,5.6-13.65l-35.71-36a81,81,0,0,0-20.57,49.64Zm112.12,0a81,81,0,0,0-20.57-49.63l-36,36a29.77,29.77,0,0,1,5.63,13.65Zm-99.88-20.27a30.82,30.82,0,0,1,13.63-5.64V216.72a80.7,80.7,0,0,0-49.35,20.57Zm23-5.64a29.77,29.77,0,0,1,13.65,5.63l36-36a81,81,0,0,0-49.63-20.57Z" transform="translate(-240.37 -65.82)"/>
	<path fill="#f69165" d="M273.08,66.67a12.78,12.78,0,0,0-10,4.57c-2.29,2.57-3.14,6.57-2.29,10.57l.86,4.86a3.94,3.94,0,0,0,3.71,2.86h48.57c4,0,8.29,3.71,9.14,7.43v.57l30.86,89.72c-56,6-99.72,53.43-99.72,110.86a111.43,111.43,0,1,0,222.87,0,93.72,93.72,0,0,0-1.71-18h24.29L510,317.55a50.8,50.8,0,0,0-22.29,42,50,50,0,1,0,50-50.29h-.86l-8-29.15h12.85a8.14,8.14,0,0,0,6.58-3.14c1.71-1.71,2.28-4.57,2-7.14l-1.43-8.29a11,11,0,0,0-10.58-8.86H507.09l-13.43-48.86h18a8.87,8.87,0,0,0,6.85-2.86,9,9,0,0,0,1.71-7.14l-1.42-8.57a10.53,10.53,0,0,0-10.58-8.57H377.37L345.65,79.82v.29a16.87,16.87,0,0,0-16.57-13.43Zm0,7.71h56a10,10,0,0,1,9.14,7.43.28.28,0,0,0,.29.29l32.29,99.44a3.69,3.69,0,0,0,3.71,2.57H508.24a4.12,4.12,0,0,1,3.14,2.57l1.42,8.57h0c0,.57,0,.57-.28.86a1.27,1.27,0,0,1-.86.29H410.8a109.48,109.48,0,0,0-45.15-9.72,15.08,15.08,0,0,0-3.71.29L330.22,95l.29.57A17.11,17.11,0,0,0,313.94,82.1H268.5l-.29-2a5.13,5.13,0,0,1,.86-4.29c.57-.86,2-1.43,4-1.43Zm92.58,120A106.4,106.4,0,0,1,407.09,203a2.6,2.6,0,0,0,2,.86,105.34,105.34,0,0,1,52,53.43c0,.57.29.86.58,1.43a122.69,122.69,0,0,1,5.42,17.43,3.56,3.56,0,0,0,.29,1.71,119.11,119.11,0,0,1,2,20.29A103.72,103.72,0,1,1,358.23,194.68a4,4,0,0,0,2.57-.29Zm59.43,9.43h39.44L478,252.68H467.38a115.17,115.17,0,0,0-42.29-48.86Zm47.43,0h13.43l13.43,48.86H485.95l-13.43-48.86Zm-106.86,4.29a90,90,0,1,0,90,90,90,90,0,0,0-90-90Zm-4,7.71V268.4a30,30,0,0,0-14.57,6l-36.86-37.15a81.31,81.31,0,0,1,51.43-21.43Zm7.71,0a81.42,81.42,0,0,1,51.72,21.43L383.94,274.4a28.88,28.88,0,0,0-14.57-6V215.83Zm57.15,26.86a81.4,81.4,0,0,1,21.43,51.72H395.37a28.88,28.88,0,0,0-6-14.58l37.15-37.14Zm-121.72,0,36.86,37.15a31.62,31.62,0,0,0-6,14.58H283.36a81.42,81.42,0,0,1,21.43-51.72ZM470.23,260.4h68c1.14,0,2.87,1.14,2.87,2.29l1.42,8.57c.29.57,0,.86,0,.86,0,.29-.28.29-.86.29H473.94a96.33,96.33,0,0,0-3.71-12ZM365.66,275.54a22.57,22.57,0,1,1-22.57,22.57,22.62,22.62,0,0,1,22.57-22.57Zm142,4.57h13.15l8.28,30a47.12,47.12,0,0,0-12.29,3.71l-9.14-33.72Zm-224.3,21.72h52.29a32.72,32.72,0,0,0,6,14.86l-36.86,36.86a81.42,81.42,0,0,1-21.43-51.72Zm112,0h52.58a81.41,81.41,0,0,1-21.43,51.72l-37.15-36.86a29.86,29.86,0,0,0,6-14.86ZM537.67,317a42.54,42.54,0,1,1-22.28,6.29,4.63,4.63,0,0,0,2-1.14,43.59,43.59,0,0,1,16-4.86,2.13,2.13,0,0,0,1.43-.29Zm-190.58,4.86a30.37,30.37,0,0,0,14.57,6.29v52.29A81.31,81.31,0,0,1,310.22,359l36.86-37.15Zm36.86,0L421.09,359a81.42,81.42,0,0,1-51.72,21.43V328.12a29.23,29.23,0,0,0,14.57-6.29Zm153.72,7.43a30.15,30.15,0,1,0,30,30.29,30.3,30.3,0,0,0-30-30.29Zm0,7.71a22.43,22.43,0,1,1-22.57,22.57A22.44,22.44,0,0,1,537.67,337Z" transform="translate(-240.37 -65.82)"/>
</svg>