<svg xmlns="http://www.w3.org/2000/svg" viewBox="0 0 164.73 244.98">
	<path d="M602.73,385.72a2.85,2.85,0,0,1-2.85-2.85V318.1a2.85,2.85,0,0,1,2.85-2.85h7.95V307.3a2.85,2.85,0,0,1,5.7,0v7.95h7.95a2.85,2.85,0,0,1,2.85,2.85v64.77a2.85,2.85,0,0,1-2.85,2.85Zm2.85-5.7h15.89V320.95H605.58Zm-78.41,5.7a2.87,2.87,0,0,1-2.85-2.64l-6.12-82.9-2.23-.12a13.35,13.35,0,0,1-9.33-4.61,15.77,15.77,0,0,1-3.8-12.29L510,220.46c1.56-13.66,12.3-24,25-24a2.83,2.83,0,0,1,2.63,1.76l10.85,26.21,11.48-26.24a2.86,2.86,0,0,1,2.61-1.71c12.7,0,23.44,10.3,25,24l7.15,62.7a15.69,15.69,0,0,1-3.8,12.28,13.46,13.46,0,0,1-9.33,4.61l-2.23.13-6.12,82.9a2.83,2.83,0,0,1-2.82,2.63Zm3.78-183c-8.12,1.91-14.27,9.32-15.3,18.44l-7.15,62.7a10.05,10.05,0,0,0,2.4,7.85,7.8,7.8,0,0,0,5.85,2.72h4.09a2.87,2.87,0,0,1,2.85,2.64l6.12,83h37.88l6.13-83a2.86,2.86,0,0,1,2.84-2.64h4.09a7.8,7.8,0,0,0,5.85-2.72,10,10,0,0,0,2.4-7.84l-7.15-62.7c-1-9.17-7.24-16.59-15.4-18.46l-2.06-.47L551,232.89a2.85,2.85,0,0,1-2.2,1.74h-.12l-.16,0h-.16a2.86,2.86,0,0,1-2.61-1.77L533,202.18Zm17.81-11.07a24.44,24.44,0,1,1,24.44-24.44A24.47,24.47,0,0,1,548.75,191.61Zm0-43.18a18.74,18.74,0,1,0,18.74,18.74A18.76,18.76,0,0,0,548.75,148.43Z" transform="translate(-471.72 -141.73)" fill="#429cc8" style="stroke:#429cc8;stroke-miterlimit:10;stroke-width:2px"/>
</svg>