<svg xmlns="http://www.w3.org/2000/svg" viewBox="0 0 164.73 244.98">
	<path d="M668,364.88a15.31,15.31,0,0,1-2.86-.37h0l-.51-.11a14.26,14.26,0,0,1-8.61-6.63h0A14.12,14.12,0,0,1,654.57,347h0l14.4-53.8a15.15,15.15,0,0,1,6.41-9.16c3-2,7-3,11.95-3H712c4.14,0,6.38-.51,7.55-1.43,1-.77,1.5-2.16,2.05-3.85h0L722,274H691.66a14.18,14.18,0,0,1-10-4.18h0a14.15,14.15,0,0,1-4.14-10,14.3,14.3,0,0,1,4.14-10.08h0a14.18,14.18,0,0,1,10-4.18h28.66l4-17.55,0-.15v-.11l0,0h0l.07-.26,0,0h0v0c1.94-4.84,5.28-13.08,17-13.08h7.15a15.5,15.5,0,0,1,11.8,5.09,18.3,18.3,0,0,1,4.51,12.5h0l0,46.4a54.34,54.34,0,0,0-6-.33c-.51,0-1.06,0-1.61,0v-46.1h0a10.75,10.75,0,0,0-2.46-7.37,8.08,8.08,0,0,0-6.19-2.6H741.5c-6.49,0-8.65,4.95-9.89,8l-4.51,20.27a3.84,3.84,0,0,1-3.74,3v0H691.55a6.3,6.3,0,0,0-4.54,1.91h0a6.71,6.71,0,0,0-1.91,4.69,6.57,6.57,0,0,0,1.94,4.65h0a6.44,6.44,0,0,0,4.65,1.94h45.92l4.76-17.52a3.81,3.81,0,0,1,4.69-2.64,3.76,3.76,0,0,1,2.64,4.65l-5.5,20.23a3.82,3.82,0,0,1-3.7,2.9H730l-1,3.63h0l-.07.18c-1,3-2,5.64-4.69,7.73-2.49,1.94-6.19,3.08-12.2,3.08H687.33c-3.45,0-6,.59-7.77,1.76a7.78,7.78,0,0,0-3.22,4.76l-14.4,53.8h0V349a6.73,6.73,0,0,0,.66,4.95h0a6.67,6.67,0,0,0,4,3l.07,0a6.61,6.61,0,0,0,5-.66,6.51,6.51,0,0,0,3-4l0,0,11.69-43.72a3.8,3.8,0,0,1,3.7-2.82v0H710a59.53,59.53,0,0,0-3.77,7.66H693L682.5,352.67a19.92,19.92,0,0,0-10,5.46A19.57,19.57,0,0,0,668,364.88ZM744.87,189.3a15.42,15.42,0,0,0-26.31-10.88h0a15.43,15.43,0,1,0,26.35,10.88Zm.88-16.27a23.07,23.07,0,1,1-32.58,0h0a23,23,0,0,1,32.58,0Zm38.41,54.68a3.81,3.81,0,1,1,0,7.62h-7.77V284a54.31,54.31,0,0,1,20.56,12.86,53.75,53.75,0,1,1-90.77,28h-4.36l-8.72,32.58a15.75,15.75,0,0,1,5,3.44h0a16.19,16.19,0,0,1,0,22.94v0a16.19,16.19,0,0,1-22.94,0v0h0a16.4,16.4,0,0,1-4.29-7.66H651.75a3.81,3.81,0,0,1,0-7.62h19.09a16.41,16.41,0,0,1,4.29-7.66h0a16.09,16.09,0,0,1,10.37-4.73l9.6-35.88a3.81,3.81,0,0,1,3.74-3h9.31A53.62,53.62,0,0,1,768.73,282V231.52a3.84,3.84,0,0,1,3.85-3.81Zm7.4,74.5A46.14,46.14,0,1,0,805,334.83,46.07,46.07,0,0,0,791.56,302.21Zm-98.84,63.95a8.67,8.67,0,0,0-12.17,0l0,0a8.67,8.67,0,0,0,0,12.17l0,0a8.63,8.63,0,0,0,12.2-12.2Z" transform="translate(812 -166.25) scale(-1, 1)" fill="#7dceef" />
</svg>