<svg xmlns="http://www.w3.org/2000/svg" xmlns:xlink="http://www.w3.org/1999/xlink" viewBox="0 0 794 545" width="95%">
	
	<defs>
		<symbol id="brain" viewBox="0 0 736 737">
			<path d="M602.303,273.946 c15.686,-17.053 24.383,-39.383 24.363,-62.553 c0.4770000000000003,-49.804 -39.442,-90.6 -89.245,-91.205 c-4.832,0.12100000000000002 -9.602,1.124 -14.072,2.96 c-7.148,-28.246 -33.632,-47.214 -62.676,-44.89 C453.326,52.917 429.943,35.614000000000004 403.55999999999995,36 c-14.36,-0.05600000000000004 -28.277,4.973 -39.285,14.196 C353.26700000000005,40.973 339.35,35.944 324.99,36 c-26.383,-0.3860000000000004 -49.767,16.917 -57.113,42.259 c-29.062,-2.39 -55.583,16.606 -62.676,44.89 c-4.471,-1.836 -9.24,-2.839 -14.072,-2.96 c-49.803,0.6050000000000006 -89.722,41.401 -89.245,91.205 c-0.02000000000000002,23.17 8.678,45.5 24.363,62.553 c-26.53,16.962 -42.588,46.273 -42.602,77.763 c1.8090000000000002,42.336 31.424,78.361 72.61,88.327 c-7.541,11.265 -11.793,24.409 -12.277,37.956 c-0.24800000000000016,35.379 20.012,67.702 51.96,82.901 c-0.02700000000000004,0.698000000000001 -0.04100000000000004,1.411 -0.04100000000000004,2.124 c-0.12200000000000008,28.948 19.829,54.118 48.041,60.606 c-1.855,5.039 -2.824,10.361 -2.863,15.73 c-0.33800000000000047,38.342 30.419,69.725 68.76,70.157 c21.503,-0.07 41.7,-10.329 54.44,-27.651 c12.74,17.322 32.938,27.581 54.44,27.651 c38.341,-0.43300000000000033 69.098,-31.815 68.76,-70.157 c-0.03700000000000001,-5.271 -0.9680000000000006,-10.497 -2.754,-15.456 c28.231,-6.614 48.128,-31.886 47.932,-60.881 c0,-0.7130000000000006 -0.01400000000000001,-1.4260000000000002 -0.04100000000000004,-2.124 c31.949,-15.199 52.208,-47.522 51.961,-82.901 c-0.4300000000000003,-13.078 -4.424,-25.791 -11.552,-36.764 c42.181,-8.981 72.224,-46.395 71.884,-89.52 C644.891,320.22 628.833,290.908 602.303,273.946 zM309.83399999999995,681.449 c-22.85,-0.4160000000000003 -41.053,-19.244 -40.697,-42.095 c0.6310000000000007,-5.261 2.512,-10.295 5.484,-14.681000000000001 c10.894,-3.123 20.811,-8.975 28.812,-17 c3.728,-3.356 5.3790000000000004,-8.447 4.332,-13.353 s-4.634,-8.879 -9.406,-10.421 s-10.006,-0.4190000000000003 -13.726,2.9450000000000003 c-4.53,4.882 -10.239,8.516 -16.58,10.552 c-0.9610000000000006,-0.06600000000000009 -1.927,-0.03200000000000004 -2.8810000000000002,0.10300000000000002 c-0.259,0.009000000000000018 -0.4920000000000003,-0.16600000000000023 -0.7500000000000007,-0.14400000000000004 c-1.165,0.0820000000000001 -3.028,0 -4.646,-0.04100000000000004 l-2.9859999999999998,-0.05600000000000004 c-18.51,-0.4190000000000003 -33.191,-15.732 -32.832,-34.242 c0.0840000000000001,-3.049 0.404,-6.086 0.9600000000000006,-9.085 c1.052,-6.818 -3.01,-13.39 -9.578,-15.498 c-26.067,-8.553 -43.588,-33.01 -43.301,-60.442 c2.329,-15.062 9.438,-28.979 20.278,-39.693 c19.897,-20.112 45.761,-33.259 73.735,-37.479 c7.75,0 14.031,-6.282 14.031,-14.032 c0,-7.7490000000000006 -6.281,-14.031 -14.031,-14.031 c-33.65,3.521 -65.138,18.26 -89.396,41.845 c-34.519,-1.338 -62.502,-28.435 -64.95,-62.892 c-0.14100000000000001,-27.918 17.989,-52.645 44.656,-60.908 c5.341,-1.5670000000000002 9.249,-6.143 9.962,-11.663 c0.7130000000000006,-5.52 -1.905,-10.938 -6.673,-13.81 c-18.619,-11.578 -29.873,-32.009 -29.708,-53.934 c-0.4940000000000003,-34.312 26.872,-62.554 61.183,-63.142 c6.026,1.7280000000000002 11.778,4.298 17.087,7.633 c3.7960000000000003,2.097 7.304,4.001 10.168,5.248 c4.707,2.035 10.149000000000001,1.342 14.195,-1.8090000000000002 c4.047,-3.15 6.054,-8.256 5.234,-13.319 c-0.7520000000000007,-3.285 -1.97,-6.446 -3.617,-9.386 c-0.699000000000001,-1.48 -1.467,-3.056 -2.028,-4.33 c2.01,-15.455 15.508,-26.805 31.078,-26.131 c4.002,-0.054000000000000076 7.9719999999999995,0.7200000000000006 11.661,2.274 c4.906,2.054 10.55,1.18 14.605,-2.262 c4.055,-3.442 5.835,-8.869 4.605,-14.044 c0.8320000000000006,-16.248 14.618,-28.78 30.872,-28.063 c9.874,-0.1 19.223,4.438 25.254,12.257 v108.708 c-16.404,23.654 -60.172,75.476 -98.221,75.476 c-7.7490000000000006,0 -14.031,6.282 -14.031,14.032 s6.282,14.031 14.031,14.031 c38.261,0 74.815,-32.342 98.221,-58.575 v409.363 C350.673,662.123 332.602,680.949 309.83399999999995,681.449 zM555.947,414.851 h-9.263 c-5.415,-0.003000000000000006 -10.348,3.111 -12.676,8 c-2.327,4.8900000000000015 -1.6340000000000003,10.682 1.782,14.884 c11.042,10.853 18.306,24.965 20.719,40.258 c0.2870000000000003,27.434 -17.234,51.89 -43.301,60.442 c-6.569,2.108 -10.631,8.68 -9.579,15.498 c0.556,2.999 0.8770000000000007,6.036 0.9610000000000006,9.085 c0.3590000000000003,18.51 -14.322,33.823 -32.832,34.242 l-3.303,0.0830000000000001 c-1.479,0.05600000000000004 -3.261,0.0680000000000001 -3.809,0.12300000000000008 c-5.384,-0.6400000000000008 -10.644,1.9340000000000002 -13.442,6.577 c-2.923,4.737 -2.944,10.712 -0.05600000000000004,15.471 c4.335,5.838 7.172,12.65 8.262,19.84 c0.561,14.853 -7.044,28.822 -19.821,36.415 s-28.683,7.593 -41.46,0 c-12.777,-7.5920000000000005 -20.383,-21.562 -19.823,-36.414 V76.32 c6.031,-7.819 15.38,-12.357 25.254,-12.257 c16.276,-0.6760000000000009 30.08,11.84 30.995,28.104 c-1.258,5.152 0.49500000000000033,10.574 4.532,14.015 c4.037,3.44 9.669,4.311 14.556000000000001,2.25 c3.689,-1.554 7.659,-2.329 11.661,-2.274 c15.57,-0.6730000000000009 29.068,10.676 31.078,26.131 c-0.562,1.274 -1.3290000000000002,2.85 -2.028,4.33 c-1.6470000000000002,2.94 -2.865,6.101 -3.617,9.386 c-0.8190000000000006,5.062 1.188,10.168 5.234,13.319 c4.046,3.15 9.488,3.8440000000000003 14.195,1.8090000000000002 c2.864,-1.247 6.372,-3.151 10.167,-5.248 c5.309,-3.335 11.062,-5.905 17.088,-7.633 c34.312,0.5870000000000006 61.677,28.829 61.183,63.142 c0.16500000000000023,21.925 -11.089,42.356 -29.708,53.934 c-4.767,2.872 -7.386,8.291 -6.673,13.81 c0.7130000000000006,5.52 4.621,10.096 9.962,11.663 c26.667,8.263 44.797,32.99 44.657000000000004,60.908 C617.41,385.94 590.177,414.179 555.947,414.851 L555.947,414.851 z"/>
			<path d="M416.17999999999995,144.032 c2.694,-2.555 4.221,-6.105 4.221,-9.818 c0,-3.713 -1.526,-7.263 -4.221,-9.818 c-5.46,-5.331 -14.176,-5.331 -19.636,0 c-1.427,1.181 -2.495,2.738 -3.083,4.495 c-0.777,1.6670000000000007 -1.162,3.491 -1.123,5.331 c-0.06400000000000008,5.681 3.341,10.827 8.595,12.988 C406.187,149.371 412.22799999999995,148.112 416.17999999999995,144.032 L416.17999999999995,144.032 z"/>
			<path d="M481.85699999999997,514.193 c-5.209,-2.144 -11.196,-0.926 -15.153,3.083 c-2.732,2.531 -4.2620000000000005,6.103 -4.208,9.826 c-0.03800000000000001,1.839 0.3460000000000005,3.662 1.122,5.33 c0.5850000000000006,1.7550000000000003 1.653,3.309 3.083,4.481 c2.529,2.7350000000000003 6.101,4.27 9.826,4.22 c1.8410000000000002,0.06000000000000006 3.669,-0.3250000000000004 5.33,-1.122 c1.7560000000000002,-0.5900000000000006 3.309,-1.6630000000000007 4.481,-3.097 c2.694,-2.555 4.22,-6.105 4.22,-9.818 s-1.525,-7.263 -4.22,-9.817 C485.16499999999996,515.8489999999999 483.61199999999997,514.778 481.85699999999997,514.193 z"/>
			<path d="M466.701,405.025 c-1.427,1.181 -2.495,2.738 -3.083,4.495 c-0.777,1.6670000000000007 -1.162,3.49 -1.123,5.33 c-0.09600000000000017,6.396 4.147,12.047 10.315,13.741 c6.1690000000000005,1.693 12.702,-0.998 15.887,-6.547 c3.185,-5.548 2.214,-12.547 -2.359,-17.02 C480.87800000000004,399.695 472.16099999999994,399.695 466.701,405.025 z"/>
			<path d="M486.33799999999997,292.774 c-5.46,-5.331 -14.177,-5.331 -19.637,0 c-1.427,1.181 -2.495,2.738 -3.083,4.494 c-0.777,1.6670000000000007 -1.162,3.491 -1.123,5.331 c0.11800000000000012,7.665 6.366,13.816 14.031,13.816 c7.666,0 13.913,-6.151 14.031,-13.816 c0.03200000000000004,-1.839 -0.3510000000000003,-3.661 -1.122,-5.331 C488.84299999999996,295.51 487.77,293.954 486.33799999999997,292.774 L486.33799999999997,292.774 z"/>
			<path d="M486.33799999999997,180.521 c-5.46,-5.331 -14.177,-5.331 -19.637,0 c-1.427,1.181 -2.495,2.738 -3.083,4.495 c-0.777,1.6670000000000007 -1.162,3.491 -1.123,5.331 c0.11800000000000012,7.665 6.366,13.815 14.031,13.815 c7.666,0 13.913,-6.151 14.031,-13.815 c0.03200000000000004,-1.839 -0.3510000000000003,-3.661 -1.122,-5.331 C488.84299999999996,183.258 487.77,181.702 486.33799999999997,180.521 L486.33799999999997,180.521 z"/>
			<path d="M430.212,461.151 c-5.461,-5.33 -14.177,-5.33 -19.637,0 c-4.3420000000000005,4.479 -5.164,11.305 -2.009,16.688 c3.154,5.382 9.511,8 15.541,6.4 c6.029,-1.6 10.253,-7.024 10.324,-13.263 c0.03200000000000004,-1.839 -0.3520000000000003,-3.661 -1.122,-5.33 C432.717,463.889 431.644,462.332 430.212,461.151 L430.212,461.151 z"/>
			<path d="M542.464,348.899 c-5.46,-5.331 -14.177,-5.331 -19.637,0 c-1.427,1.181 -2.495,2.738 -3.083,4.495 c-0.777,1.6670000000000007 -1.162,3.49 -1.123,5.33 c0.11800000000000012,7.665 6.366,13.815 14.031,13.815 c7.666,0 13.913,-6.15 14.031,-13.815 c0.03300000000000004,-1.839 -0.3520000000000003,-3.661 -1.122,-5.33 C544.969,351.637 543.896,350.079 542.464,348.899 L542.464,348.899 z"/>
			<path d="M430.212,348.899 c-5.46,-5.331 -14.177,-5.331 -19.637,0 c-4.3420000000000005,4.479 -5.164,11.305 -2.009,16.688 c3.154,5.382 9.511,8 15.541,6.4 c6.029,-1.6 10.253,-7.024 10.324,-13.263 c0.03200000000000004,-1.839 -0.3520000000000003,-3.661 -1.122,-5.33 C432.717,351.637 431.644,350.079 430.212,348.899 L430.212,348.899 z"/>
			<path d="M410.57500000000005,236.647 c-2.731,2.531 -4.261,6.102 -4.206,9.825 c-0.06600000000000009,1.842 0.3190000000000004,3.6710000000000003 1.122,5.33 c0.5850000000000006,1.7550000000000003 1.653,3.308 3.083,4.481 c2.555,2.694 6.105,4.22 9.818,4.22 s7.263,-1.526 9.818,-4.22 c1.4340000000000002,-1.172 2.508,-2.725 3.099,-4.481 c0.796,-1.661 1.182,-3.489 1.122,-5.33 c0.04900000000000005,-3.725 -1.484,-7.296 -4.22,-9.825 C424.75199999999995,231.317 416.03499999999997,231.317 410.57500000000005,236.647 L410.57500000000005,236.647 z"/>
			<path d="M522.827,236.647 c-4.079,3.991 -5.337,10.054 -3.183,15.338000000000001 c2.1550000000000002,5.284 7.2940000000000005,8.738 13.001,8.738 s10.846,-3.454 13.001,-8.738 c2.154,-5.284 0.8960000000000008,-11.347 -3.183,-15.338000000000001 C537.004,231.317 528.288,231.317 522.827,236.647 L522.827,236.647 z"/>
		</symbol>
	</defs>
	
	<use xlink:href="#brain" transform="matrix( 0.15, 0, 0, 0.15, 165, 120)" fill="#7dceef"  />
	<use xlink:href="#brain" transform="matrix( -0.15, 0, 0, 0.15, 600, 120)" fill="#F69165"  />
	
	<g>
		<path fill-rule="evenodd"  stroke="rgb(191, 191, 191)" stroke-width="3px" stroke-dasharray="8.3, 0.5, 0" stroke-linecap="butt" stroke-linejoin="bevel" fill="none" d="M224.049,121.500 L224.049,82.500 L294.042,82.500 "/>
		<path fill-rule="evenodd"  stroke="rgb(191, 191, 191)" stroke-width="3px" stroke-dasharray="8.3, 0.5, 0" stroke-linecap="butt" stroke-linejoin="bevel" fill="none" d="M224.049,201.500 L224.049,275.500"/>
		<path fill-rule="evenodd"  stroke="rgb(191, 191, 191)" stroke-width="3px" stroke-dasharray="8.3, 0.5, 0" stroke-linecap="butt" stroke-linejoin="bevel" fill="none" d="M540.049,121.500 L540.049,82.500 L464.042,82.500 "/>
		<path fill-rule="evenodd"  stroke="rgb(191, 191, 191)" stroke-width="3px" stroke-dasharray="8.3, 0.5, 0" stroke-linecap="butt" stroke-linejoin="bevel" fill="none" d="M540.049,201.500 L540.049,275.500"/>
	</g>
	 
	<text font-family="Ubuntu" fill="rgb(74, 86, 101)" transform="matrix( 0.9986158818343, 0, 0, 1.00190576782008,588.641180052902, 131.423763202563)" font-weight="300" font-size="22px">
		<tspan x="0">ГЕМОРРАГИЧЕСКИЙ</tspan>
		<tspan x="0" dy="22">ИНСУЛЬТ:</tspan>
	</text>
	<text font-family="Ubuntu" fill="rgb(74, 86, 101)" transform="matrix( 0.9986158818343, 0, 0, 1.00190576782008,588.547752076717, 185.588587435676)" font-weight="bold" font-size="34px">
		15%
	</text>
	<text font-family="Ubuntu" fill="rgb(74, 86, 101)" transform="matrix( 0.9986158818343, 0, 0, 1.00190576782008,588.03875530864, 205.065102406296)" font-weight="300" font-size="16px">
		случаев
	</text>
	<text font-family="Ubuntu" fill="rgb(74, 86, 101)" transform="matrix( 1.00063511631693, 0, 0, 1.00190576782008,0.44823802017015, 131.423763202563)" font-weight="300" width="100" font-size="22px">
		<tspan x="0">ИШЕМИЧЕСКИЙ</tspan>
		<tspan dx="-103" dy="22">ИНСУЛЬТ:</tspan>
	</text>
	<text font-family="Ubuntu" fill="rgb(74, 86, 101)" transform="matrix( 1.00063511631693, 0, 0, 1.00190576782008,94.9780884870659, 185.088587435676)" font-weight="bold" font-size="34px">
		85%
	</text>
	<text font-family="Ubuntu" fill="rgb(74, 86, 101)" transform="matrix( 1.00063511631693, 0, 0, 1.00190576782008,107.982216743126, 205.065102406296)" font-weight="300" font-size="16px">
		случаев
	</text>
	<g>
		<path d="M125,0A125,125 0 1,1 -101.12712429686843,-73.47315653655913L0,0Z" transform="translate(544,410)" fill="rgb(193,86,35)" />
		<path d="M-101.12712429686842,-73.47315653655916A125,125 0 0,1 125,0L0,0Z" transform="translate(544,410)" fill="rgb(245,169,138)" />
		<path fill-rule="evenodd"  stroke="rgb(191, 191, 191)" stroke-width="1px" stroke-linecap="butt" stroke-linejoin="miter" fill="none" transform="translate(20,0)" d="M524.527,277.060 C597.942,277.060 657.458,336.580 657.458,410.000 C657.458,483.421 597.942,542.939 524.527,542.939 C451.111,542.939 391.596,483.421 391.596,410.000 C391.596,336.580 451.111,277.060 524.527,277.060 Z"/>
		<text font-family="Ubuntu" fill="rgb(255, 255, 255)" transform="matrix( 0.99942357755931, 0, 0, 1.0001141731696,506.012104871254, 484.426907134421)" font-weight="bold" font-size="17px">
			60%
		</text>
		<text font-family="Ubuntu" fill="rgb(255, 255, 255)" transform="matrix( 0.99942357755931, 0, 0, 1.0001141731696,549.012104871254, 366.428907362767)" font-weight="bold" font-size="17px">	
			40%
		</text>
	</g>
	<g>
		<path d="M125,0A125,125 0 0,1 -101.12712429686842,73.47315653655916L0,0Z" transform="translate(225,410)" fill="rgb(74,86,101)" />
		<path d="M-101.12712429686842,73.47315653655916A125,125 0 0,1 -38.627124296868445,-118.88206453689419L0,0Z" transform="translate(225,410)" fill="rgb(49,148,197)" />
		<path d="M-38.627124296868416,-118.8820645368942A125,125 0 0,1 111.37581552354598,-56.748812467443344L0,0Z" transform="translate(225,410)" fill="rgb(125,206,239)" />
		<path d="M111.37581552354598,-56.748812467443344A125,125 0 0,1 125,0L0,0Z" transform="translate(225,410)" fill="rgb(245,169,138)" />
		<path fill-rule="evenodd"  stroke="rgb(191, 191, 191)" stroke-width="1px" stroke-linecap="butt" stroke-linejoin="miter" fill="none" d="M225.546,277.060 C298.962,277.060 358.477,336.580 358.477,410.000 C358.477,483.421 298.962,542.939 225.546,542.939 C152.131,542.939 92.615,483.421 92.615,410.000 C92.615,336.580 152.131,277.060 225.546,277.060 Z"/>
		<text font-family="Ubuntu" fill="rgb(255, 255, 255)" transform="matrix( 0.99942357755931, 0, 0, 1.0001141731696,210.012104871254, 484.426907134421)" font-weight="bold" font-size="17px">
			30-40%
		</text>
		<text font-family="Ubuntu" fill="rgb(255, 255, 255)" transform="matrix( 0.99942357755931, 0, 0, 1.0001141731696,123.012104871254, 398.426907134421)" font-weight="bold" font-size="17px">
			25-30%
		</text>
		<text font-family="Ubuntu" fill="rgb(255, 255, 255)" transform="matrix( 0.99942357755931, 0, 0, 1.0001141731696,220.012104871254, 339.428907362767)" font-weight="bold" font-size="17px">
			20-25%
		</text>
		<text font-family="Ubuntu" fill="rgb(255, 255, 255)" transform="matrix( 0.99942357755931, 0, 0, 1.0001141731696,280, 402)" font-weight="bold" font-size="17px">
			5-10%
		</text>
	</g>
	<g>
		<path d="M71.32923872213651,23.176274578121056A75,75 0 1,1 71.32923872213651,-23.17627457812107L0,0Z" transform="translate(381,82)" fill="rgb(49,148,197)"></path>
		<path d="M71.32923872213651,-23.176274578121056A75,75 0 0,1 71.32923872213651,23.176274578121056L0,0Z" transform="translate(381,82)" fill="rgb(245,169,138)"></path>
		<path fill-rule="evenodd"  stroke="rgb(191, 191, 191)" stroke-width="1px" stroke-linecap="butt" stroke-linejoin="miter" fill="none" d="M380.536,1.079 C425.224,1.079 461.451,37.309 461.451,82.000 C461.451,126.690 425.224,162.920 380.536,162.920 C335.848,162.920 299.622,126.690 299.622,82.000 C299.622,37.309 335.848,1.079 380.536,1.079 Z"/>
		<text font-family="Ubuntu" fill="rgb(255, 255, 255)" transform="matrix( 0.99942357755931, 0, 0, 1.0001141731696,420.009222759051, 87.0852106067055)" font-weight="bold" font-size="15.998px">
			15%
		</text>
		<text font-family="Ubuntu" fill="rgb(255, 255, 255)" transform="matrix( 0.99942357755931, 0, 0, 1.0001141731696,323.510087392712, 87.5330904965308)" font-weight="bold" font-size="17.998px">
			85%
		</text>
	</g>
</svg>