<svg xmlns="http://www.w3.org/2000/svg" viewBox="0 0 501 476.18">
	<path fill="#7dceef" d="M663.13,76.2,595,8.06c-10.69-10.69-29.28-10.69-40,0L542.55,20.54a28.19,28.19,0,0,0-5,32.84L422.13,168.61,305.2,51.76a28.25,28.25,0,0,0-5.86-31.23L286.87,8.06c-10.69-10.69-29.28-10.69-40,0L178.67,76.2a28.27,28.27,0,0,0,0,40l12.47,12.47a28.19,28.19,0,0,0,20,8.32A27.58,27.58,0,0,0,224,133.74L358,267.64l-7.13,7.21,5.77,5.77-132,132-10.52,4.5a29.53,29.53,0,0,0-9.16,48l2.46,2.46a29.45,29.45,0,0,0,47.95-9.25l4.5-10.52L392.52,315.08a12.89,12.89,0,0,0,5,1,13.35,13.35,0,0,0,9.5-3.9L422.13,297l14.51,14.51a12.39,12.39,0,0,0,8.83,3.65,12.54,12.54,0,0,0,5.26-1.19L583.28,446.52l4.5,10.52A29.58,29.58,0,0,0,614.93,475a29.22,29.22,0,0,0,20.79-8.66l2.46-2.46a29.53,29.53,0,0,0-9.16-48l-10.52-4.5L485.86,278.76a12.34,12.34,0,0,0-.17-10.52L619.34,134.58a28.18,28.18,0,0,0,31.31-5.94l12.47-12.47A28.27,28.27,0,0,0,663.13,76.2ZM529.39,195.51l-53.8-53.8,8.23-8.23,53.8,53.8Zm-67-43.11,57.53,57.53-45.65,45.65L463.63,245l-12.9-12.9c.08-.17.17-.42.25-.59a44.06,44.06,0,0,0,2-4,20.38,20.38,0,0,0,.93-2,33.67,33.67,0,0,0,1.78-5.94c1.78-9.42-1.1-18.24-8.32-25.46L434,180.75ZM435.54,206c4.24,4.24,4.16,7.89,3.65,10.35-.76,4.07-3.73,8.91-8.32,13.49l-16,16L401.77,259h0c-.93.93-2,1.87-2.89,2.63-5.68,4.84-10.95,6.87-15.61,5.43a13,13,0,0,1-5.26-3.39L376.39,262l-53.21-53.21,57.53-57.53,29.45,29.45h0Zm-69.33-64.32-53.8,53.8-8.23-8.23,53.8-53.8Zm-163-25-12.47-12.47a11.27,11.27,0,0,1,0-16l68.14-68.14a11.27,11.27,0,0,1,16,0l12.47,12.47a11.27,11.27,0,0,1,0,16l-68.14,68.14A11.59,11.59,0,0,1,203.2,116.68Zm91.56-51.42L348.48,119,290.94,176.5l-53.71-53.71ZM239.69,451.62a12.52,12.52,0,0,1-20.37,4l-2.46-2.46a12.49,12.49,0,0,1,3.9-20.37l6.79-2.88,15.1,15.1Zm12.9-20.71-11.2-11.2L368.5,292.59l11.2,11.2ZM410.08,285,397.52,297.6l-13.15-13.15h.93c.25,0,.51.08.76.08s.68-.08.93-.08a26.18,26.18,0,0,0,5.09-.68l1.27-.25a30.61,30.61,0,0,0,6.2-2.29c.42-.25.85-.51,1.36-.76,1-.51,2-1,3-1.61l1.78,1.78Zm6.79-17.23,10-10,12.73-12.73,28.6,28.6-22.74,22.74ZM629.7,440.58a12.22,12.22,0,0,1-3.48,11.2l-2.46,2.46a12.56,12.56,0,0,1-20.37-3.9l-2.89-6.79,15.11-15.11,6.79,2.89A13,13,0,0,1,629.7,440.58Zm-39.29-10.86L463.29,302.6l11.2-11.2L601.61,418.52ZM552.13,177.78,494.6,120.24l53.71-53.71,57.53,57.53Zm99-73.66L638.69,116.6a11.59,11.59,0,0,1-16,0L554.6,48.45a11.27,11.27,0,0,1,0-16L567.07,20a11.31,11.31,0,0,1,8-3.31A11.16,11.16,0,0,1,583,20l68.14,68.14A11.27,11.27,0,0,1,651.16,104.12Z" transform="translate(-170.4 -0.04)"/>
</svg>