<svg xmlns="http://www.w3.org/2000/svg" viewBox="0 0 474.4 447.97">
	<path fill="#7dceef" d="M431.92,354H410a9.92,9.92,0,0,1-9.92-9.92V222.73a9.93,9.93,0,0,1,9.92-9.92h21.93a9.93,9.93,0,0,1,9.92,9.92V344.05A9.93,9.93,0,0,1,431.92,354Zm-12-19.84H422V232.66h-2.08Z" transform="translate(-183.75 -14.13)"/>
	<path fill="#7dceef" d="M481.6,304.27H360.27a9.92,9.92,0,0,1-9.92-9.92V272.44a9.93,9.93,0,0,1,9.92-9.92H481.58a9.93,9.93,0,0,1,9.92,9.92v21.91A9.9,9.9,0,0,1,481.6,304.27ZM370.19,284.42H471.66v-2.06H370.19Z" transform="translate(-183.75 -14.13)"/>
	<path fill="#7dceef" d="M428.27,348.5H413.62a9.92,9.92,0,0,1-9.92-9.92V228.17a9.92,9.92,0,0,1,9.92-9.92h14.64a9.92,9.92,0,0,1,9.92,9.92V338.58A9.9,9.9,0,0,1,428.27,348.5Z" transform="translate(-183.75 -14.13)"/>
	<path fill="#7dceef" d="M476.15,300.64H365.74a9.93,9.93,0,0,1-9.92-9.92V276.05a9.93,9.93,0,0,1,9.92-9.92h110.4a9.93,9.93,0,0,1,9.92,9.92v14.66A9.9,9.9,0,0,1,476.15,300.64Z" transform="translate(-183.75 -14.13)"/>
	<path fill="#7dceef" d="M587,462.1H254.84c-39.21,0-71.1-30.78-71.1-68.58V173.25c0-37.82,31.89-68.6,71.1-68.6H587c39.21,0,71.1,30.78,71.1,68.6V393.52C658.14,431.32,626.26,462.1,587,462.1Zm-332.2-337.6c-28.26,0-51.25,21.89-51.25,48.75V393.52c0,26.87,23,48.73,51.25,48.73H587c28.26,0,51.25-21.87,51.25-48.73V173.25c0-26.87-23-48.75-51.25-48.75Z" transform="translate(-183.75 -14.13)"/>
	<path fill="#7dceef" d="M420.94,407.63A124.25,124.25,0,1,1,545.2,283.39,124.39,124.39,0,0,1,420.94,407.63Zm0-228.65A104.41,104.41,0,1,0,525.36,283.39,104.53,104.53,0,0,0,420.94,179Z" transform="translate(-183.75 -14.13)"/>
	<path fill="#7dceef" d="M535.28,124.49a9.92,9.92,0,0,1-9.92-9.92v-47C525.36,49,506.37,34,483,34H358.88C335.52,34,316.53,49,316.53,67.53v47a9.92,9.92,0,0,1-19.84,0v-47c0-29.45,27.9-53.4,62.19-53.4H483c34.29,0,62.19,24,62.19,53.4v47A9.91,9.91,0,0,1,535.28,124.49Z" transform="translate(-183.75 -14.13)"/>
</svg>