<svg xmlns="http://www.w3.org/2000/svg" viewBox="0 0 409.94 336.92">
	<path fill="#7dceef" d="M216,312a7.14,7.14,0,0,0,7.14,7.14h274a7.14,7.14,0,0,0,0-14.29H478.65a48.54,48.54,0,1,0-82.3-41.67,71,71,0,0,0-51.79-22.44c-38.11,0-118.7,7.62-122.12,7.94a7.14,7.14,0,0,0,1.35,14.22c.83-.08,83.32-7.88,120.77-7.88a57,57,0,0,1,56.5,49.83H223.12A7.14,7.14,0,0,0,216,312ZM444.3,236.27A34.28,34.28,0,1,1,410,270.54,34.31,34.31,0,0,1,444.3,236.27ZM457.46,69.65c-75.16,0-141.79,50.6-162.05,123.05a7.14,7.14,0,0,0,6.88,9.07H343a7.14,7.14,0,0,0,6.67-4.6C366.64,152.81,409.82,123,457.18,123a115.1,115.1,0,1,1,0,230.19H223.12a7.14,7.14,0,1,0,0,14.29h126.7a168.14,168.14,0,0,0,107.65,39.09c92.88,0,168.46-75.58,168.46-168.47S550.34,69.65,457.46,69.65Zm0,322.64a153.7,153.7,0,0,1-83.62-24.81h83.33c71.35,0,129.4-58,129.4-129.38s-58-129.39-129.4-129.39c-51.59,0-98.77,31.45-118.95,78.77H312c21.36-61.42,79.87-103.55,145.46-103.55,85,0,154.17,69.16,154.17,154.16S542.47,392.29,457.46,392.29Z" transform="translate(-215.97 -69.65)"/>
</svg>