<svg xmlns="http://www.w3.org/2000/svg" viewBox="0 0 327.36 467.26" width="95%">
	<path fill="#7dceef" d="M323.47,471.74a66.28,66.28,0,0,1-66.21-66.21v-285a66.28,66.28,0,0,1,66.21-66.21h62.15V39.81A35.36,35.36,0,0,1,420.94,4.48c19.15,0,35.32,16,35.32,35V54h62.15a66.28,66.28,0,0,1,66.21,66.21V405.54a66.28,66.28,0,0,1-66.21,66.21Zm0-397a45.46,45.46,0,0,0-45.41,45.41V405.54a45.46,45.46,0,0,0,45.41,45.41H518.42a45.46,45.46,0,0,0,45.41-45.41V120.18a45.27,45.27,0,0,0-45-45.41H506.12V89.29a35.36,35.36,0,0,1-35.32,35.32H371.46a35.36,35.36,0,0,1-35.32-35.32V74.77Zm33.46,14.52a14.54,14.54,0,0,0,14.52,14.52h99A14.54,14.54,0,0,0,485,89.29V74.77H445.87a10.54,10.54,0,0,1-10.4-10.4V39.44a14.37,14.37,0,0,0-14.52-14.52,14.54,14.54,0,0,0-14.52,14.52V64.37A10.54,10.54,0,0,1,396,74.77H356.93Z" transform="translate(-257.26 -4.48)"/>
	<path fill="#7dceef" d="M323.47,468.91a63.44,63.44,0,0,1-63.37-63.37v-285a63.45,63.45,0,0,1,63.37-63.37h65V39.81A32.53,32.53,0,0,1,420.94,7.32c17.61,0,32.49,14.71,32.49,32.12V56.8h65a63.44,63.44,0,0,1,63.37,63.37V405.54a63.44,63.44,0,0,1-63.37,63.37Zm0-397a48.3,48.3,0,0,0-48.24,48.24V405.54a48.3,48.3,0,0,0,48.24,48.24H518.42a48.3,48.3,0,0,0,48.24-48.24V120.18c0-26.6-21.47-48.24-47.86-48.24H503.29V89.29a32.53,32.53,0,0,1-32.49,32.49H371.46A32.53,32.53,0,0,1,339,89.29V71.93ZM354.1,89.29a17.38,17.38,0,0,0,17.36,17.36h99a17.38,17.38,0,0,0,17.36-17.36V71.93H445.87a7.67,7.67,0,0,1-7.57-7.56V39.44a17.17,17.17,0,0,0-17.36-17.36,17.38,17.38,0,0,0-17.36,17.36V64.37A7.67,7.67,0,0,1,396,71.93H354.1Zm-12,323.81a7.57,7.57,0,0,1,0-15.13h83.33a7.57,7.57,0,0,1,0,15.13Zm0-37.21a7.57,7.57,0,0,1,0-15.13H499.82a7.57,7.57,0,0,1,0,15.13Zm0-37.21a7.57,7.57,0,0,1,0-15.13H499.82a7.57,7.57,0,0,1,0,15.13Z" transform="translate(-257.26 -4.48)"/>
	<path fill="#7dceef" d="M323.47,469.76a64.3,64.3,0,0,1-64.22-64.22v-285a64.3,64.3,0,0,1,64.22-64.22H387.6V39.81A33.38,33.38,0,0,1,420.94,6.47c18.07,0,33.34,15.1,33.34,33V56h64.13a64.3,64.3,0,0,1,64.22,64.22V405.54a64.3,64.3,0,0,1-64.22,64.22Zm0-397a47.45,47.45,0,0,0-47.39,47.39V405.54a47.45,47.45,0,0,0,47.39,47.39H518.42a47.45,47.45,0,0,0,47.39-47.39V120.18a47.26,47.26,0,0,0-47-47.39H504.14V89.29a33.38,33.38,0,0,1-33.34,33.34H371.46a33.38,33.38,0,0,1-33.34-33.34V72.78Zm31.48,16.51a16.53,16.53,0,0,0,16.51,16.51h99a16.53,16.53,0,0,0,16.51-16.51V72.78H445.87a8.53,8.53,0,0,1-8.42-8.41V39.44a16.33,16.33,0,0,0-16.51-16.51,16.53,16.53,0,0,0-16.51,16.51V64.37A8.53,8.53,0,0,1,396,72.78H354.95ZM342.07,414a8.42,8.42,0,0,1,0-16.83h83.33a8.42,8.42,0,0,1,0,16.83Z" transform="translate(-257.26 -4.48)"/>
	<path fill="#7dceef" d="M420.94,9.3a30.64,30.64,0,0,0-30.5,30.5V59.16h-67a61.45,61.45,0,0,0-61.39,61.39v285a61.45,61.45,0,0,0,61.39,61.39H518.42a61.45,61.45,0,0,0,61.39-61.39V120.18a61.45,61.45,0,0,0-61.39-61.39h-67V39.44C451.45,23.07,437.69,9.3,420.94,9.3Zm0,10.79a19.21,19.21,0,0,1,19.34,19.34V64.37a5.72,5.72,0,0,0,5.58,5.58h43.9V89.29a19.45,19.45,0,0,1-19.34,19.34h-99a19.45,19.45,0,0,1-19.34-19.34V69.95H396a5.72,5.72,0,0,0,5.58-5.58V39.44A19.45,19.45,0,0,1,420.94,20.09ZM323.47,69.95H341V89.29a30.64,30.64,0,0,0,30.5,30.51H470.8a30.64,30.64,0,0,0,30.5-30.51V69.95H518.8c27.53,0,49.85,22.7,49.85,50.23V405.54a50.5,50.5,0,0,1-50.23,50.23H323.47a50.5,50.5,0,0,1-50.23-50.23V120.18A50.5,50.5,0,0,1,323.47,69.95Zm70.69,90.4c-3,0-5.21,1.49-6,4.09l-14.5,51.35-11.54-38.69a6.06,6.06,0,0,0-4.83-4.09,5.49,5.49,0,0,0-5.58,3l-13.39,26.79H323.47a5.58,5.58,0,1,0,0,11.16H341.7a5.81,5.81,0,0,0,4.84-3l8.56-17.48L368.86,237a5.18,5.18,0,0,0,5.21,4.1,6,6,0,0,0,5.21-4.1l12.27-43.53,11.53,87.43a5.64,5.64,0,0,0,5.58,4.84,4.92,4.92,0,0,0,5.21-4.47l16.74-69.94L435.46,234a6.51,6.51,0,0,0,4.83,4.46,5.25,5.25,0,0,0,5.58-3l10.79-21.58H518a5.58,5.58,0,1,0,0-11.16H452.94a5.8,5.8,0,0,0-4.83,3l-5.21,10.41-6.7-31.62a5.22,5.22,0,0,0-5.21-4.46,5.92,5.92,0,0,0-5.58,4.46l-15.25,64.74-10.79-84.08A5.93,5.93,0,0,0,394.16,160.35ZM342.07,325.54a5.58,5.58,0,0,0,0,11.16H499.82a5.58,5.58,0,0,0,0-11.16Zm0,37.21a5.58,5.58,0,0,0,0,11.16H499.82a5.58,5.58,0,0,0,0-11.16Zm0,37.21a5.58,5.58,0,0,0,0,11.16h83.33a5.58,5.58,0,0,0,0-11.16Z" transform="translate(-257.26 -4.48)"/>
</svg>