<svg id="2cb2b8e3-74b2-48fb-9aa4-f50b7a6d3780" data-name="Layer 1" xmlns="http://www.w3.org/2000/svg" viewBox="0 0 388.15 391.46" width="95%">
	<path fill="#7dceef" d="M362.24,152.19a32.17,32.17,0,0,0-25.59,16,31.68,31.68,0,0,0-2.9,7.08,38.81,38.81,0,0,0-33.4,52.35,47.68,47.68,0,0,0-2.8,81.22,4.6,4.6,0,0,0-.7,1.58,48.54,48.54,0,0,0,6.61,37.81,49.64,49.64,0,0,0,30.8,21.2A32,32,0,0,0,391.93,375a32,32,0,0,0,57.68-5.64,49.64,49.64,0,0,0,30.68-21.16,48.54,48.54,0,0,0,6.61-37.81,4.61,4.61,0,0,0-.7-1.58,47.69,47.69,0,0,0-2.79-81.22,38.82,38.82,0,0,0-33.27-52.35,31.68,31.68,0,0,0-2.92-7.08,32,32,0,0,0-55.27-.39,31.9,31.9,0,0,0-29.69-15.59Zm.61,9.16a23.78,23.78,0,0,1,7.54.73,22.86,22.86,0,0,1,17,21.5c0,.22-.06.43-.06.64v4.93a22.86,22.86,0,0,1-20.55-5.5,4.59,4.59,0,0,0-6.24,6.74,32.07,32.07,0,0,0,26.79,8.12v86.85a4.6,4.6,0,0,0-.79,1.63,11.87,11.87,0,0,1-18.72,6.27,4.61,4.61,0,0,0-5.68,7.24,20.55,20.55,0,0,0,25.19.34v13.83a4.62,4.62,0,0,0,.11,1v19.19a4.62,4.62,0,0,0-.11,1.06v22.59c0,.24,0,.48.05.71a23,23,0,1,1-41.17-14.48l.36-.09a11.86,11.86,0,0,1,13.06,14.82,4.62,4.62,0,0,0,3.25,5.65,4.56,4.56,0,0,0,5.61-3.23h0a21.15,21.15,0,0,0-4.61-19.38,20.94,20.94,0,0,0-7.63-5.38,22.9,22.9,0,0,1,8.24-1.58,4.59,4.59,0,1,0,.13-9.17h-.13a32,32,0,0,0-32.05,32.79,40.23,40.23,0,0,1-21.25-16,39.28,39.28,0,0,1-5.46-30,47.75,47.75,0,0,0,31.18,2.38,4.59,4.59,0,0,0-2.37-8.87,39,39,0,0,1-26.34-73.1,4.59,4.59,0,0,0,1.47-7.35l-.09-.21a29.79,29.79,0,0,1,22.9-41.5,32.14,32.14,0,0,0,4.52,16,31.87,31.87,0,0,0-13,4,4.59,4.59,0,0,0,4.59,8A22.91,22.91,0,0,1,362.33,227a4.59,4.59,0,0,0,8.92-2.13,32,32,0,0,0-18.54-22,31,31,0,0,0-3.44-1,4.57,4.57,0,0,0-1-1.45,22.93,22.93,0,0,1,14.6-39.1Zm58.16,0a22.92,22.92,0,0,1,20.62,28.49,4.59,4.59,0,0,0,8.91,2.22,32.18,32.18,0,0,0,.86-7.45,29.79,29.79,0,0,1,22.81,41.48l-.09.21a4.59,4.59,0,0,0,1.47,7.35,39,39,0,0,1-26.34,73.1,4.59,4.59,0,0,0-2.37,8.87,47.76,47.76,0,0,0,31.18-2.38,39.27,39.27,0,0,1-5.46,30,40.23,40.23,0,0,1-21.14,16,32,32,0,0,0-32.05-32.77,4.59,4.59,0,1,0-.13,9.17h.13a22.94,22.94,0,1,1-22.88,23.65c0-.24.05-.48.05-.71v-1.49h0a22.91,22.91,0,0,1,21.27,5.41,4.59,4.59,0,0,0,6.25-6.72h0a32.11,32.11,0,0,0-27.54-8V286.28a20.93,20.93,0,0,0,4.39,1.31,21.09,21.09,0,0,0,23.9-15.28,4.56,4.56,0,0,0-3.19-5.63,4.62,4.62,0,0,0-5.66,3.21l0,.08a11.86,11.86,0,0,1-18.72,6.27,4.65,4.65,0,0,0-.7-.47v-56a21.08,21.08,0,0,0,19-3.75c.23-.18.41-.4.63-.6l.41-.21a22.89,22.89,0,0,1,25.44,1,4.59,4.59,0,0,0,5.39-7.44,32.07,32.07,0,0,0-24.33-5.55,20.75,20.75,0,0,0-1.24-11.82,4.59,4.59,0,0,0-8.5,3.48l0,.12a11.84,11.84,0,0,1-3.55,13.89,11.71,11.71,0,0,1-13.33.84V184.22c0-.22,0-.43-.05-.64A22.91,22.91,0,0,1,421,161.34Zm0,77.91a4.55,4.55,0,0,0-4.66,4.49,4.63,4.63,0,0,0,3.53,4.58,36.91,36.91,0,0,1,23.94,18.46,4.66,4.66,0,0,0,.43.64,31.79,31.79,0,0,0,.48,11.09,21.16,21.16,0,0,0-6.11,3.39,20.94,20.94,0,0,0-6.06,8.26,4.6,4.6,0,0,0,8.55,3.4,11.85,11.85,0,0,1,19.35-3.92,4.62,4.62,0,0,0,6.5.16,4.56,4.56,0,0,0,.16-6.47l-.16-.16a21.06,21.06,0,0,0-13.19-6,22.86,22.86,0,0,1,10.73-25.5,4.59,4.59,0,1,0-4.59-8,31.86,31.86,0,0,0-12.09,12.6,46,46,0,0,0-25.91-16.95,4.51,4.51,0,0,0-.91-.13Zm-106.12,2.18a4.61,4.61,0,0,0-3.73,7.56,11.86,11.86,0,0,1-6.27,18.72,4.62,4.62,0,0,0-3.3,5.61,4.56,4.56,0,0,0,5.58,3.28l.07,0A21.09,21.09,0,0,0,319,268.17a22.88,22.88,0,0,1,16.7,22.06,4.6,4.6,0,1,0,9.19,0,31.93,31.93,0,0,0-.48-5.46,4.6,4.6,0,0,0,.5-1.61,22.86,22.86,0,0,1,23.44-20.43,4.59,4.59,0,1,0,.27-9.17,32.1,32.1,0,0,0-29.73,18.13,32,32,0,0,0-16.54-12,21.1,21.1,0,0,0,.14-7,20.88,20.88,0,0,0-4.14-9.35,4.55,4.55,0,0,0-3.49-1.9Z" transform="translate(-204.95 -82.36)"/>
	<path fill="#7dceef" d="M393.34,91.36a179.39,179.39,0,1,1-179.39,179.4A179.39,179.39,0,0,1,393.34,91.36h0" transform="translate(-204.95 -82.36)" style="fill:none;stroke:#7dceef;stroke-miterlimit:10;stroke-width:18px"/>
	<path fill="#7dceef" d="M585.31,446.89l-35.47-35.46c-8-8-18.81-10.18-24.08-4.91s-3.06,16.14,4.91,24.08L566.16,466c8,8,18.81,10.18,24.08,4.91S593.28,454.86,585.31,446.89Z" transform="translate(-204.95 -82.36)"/>
</svg>