<svg xmlns="http://www.w3.org/2000/svg" viewBox="0 0 683 530">
	<circle cx="195.77946662902832" cy="257.3740585446358" r="195.32000732421875" style="fill:#c15724" id="svg_4" class=""/>
	<path d="M346.9194583892822,207.2840518307686 A130.09,130.09 0 1 1 216.86945838928222,77.18405183076858 A130.09,130.09 0 0 1 346.9194583892822,207.2840518307686 z" style="fill:#f5a98a" id="svg_5" class=""/>
	<circle cx="517.0894641876221" cy="257.3740585446358" r="148.77000427246094" style="fill:#429cc9" id="svg_6" class=""/>
	<circle cx="530.3794422149658" cy="241.02405244112015" r="116.26000213623047" style="fill:#7dceef" id="svg_7" class=""/>
	<path d="M381.3094583892822,318.43405183076857 a148.65,148.65 0 0 0 0,-122.28 a148.66,148.66 0 0 0 0,122.28 z" style="fill:#b54a1f" id="svg_8" class=""/>
	<g transform="translate(20,75) scale(0.0082,-0.007) " fill="rgb(245, 169, 138)" stroke="none" id="svg_1" class="">
		<path d="M21007.874839669934,9921.517682462276 c-60.85463672027237,-16.959488922043118 -127.69497541303053,-46.887998784472146 -127.69497541303053,-56.86416873861516 c0,-3.9904679816572033 -5.985701972485806,-7.980935963314408 -12.969020940385914,-7.980935963314408 c-17.95710591745742,0 -136.67352837175923,-118.71642245430182 -136.67352837175923,-136.67352837175923 c0,-6.983318967900107 -3.9904679816572033,-12.969020940385914 -8.97855295872871,-12.969020940385914 c-4.988084977071505,0 -11.971403944971613,-12.969020940385914 -15.961871926628817,-29.92850986242903 c-3.9904679816572033,-15.961871926628817 -10.973786949557311,-29.92850986242903 -14.964254931214516,-29.92850986242903 c-4.988084977071505,0 -11.971403944971613,-16.959488922043118 -14.964254931214516,-36.91182883032914 c-3.9904679816572033,-20.949956903700322 -10.973786949557311,-59.85701972485806 -16.959488922043118,-87.79029559645849 c-7.980935963314408,-38.90706282115774 -5.985701972485806,-66.84033869275817 5.985701972485806,-128.69259240844482 c17.95710591745742,-85.79506160562988 59.85701972485806,-183.5615271562314 81.80459362397269,-192.5400801149601 c7.980935963314408,-2.992850986242903 13.966637935800215,-8.97855295872871 13.966637935800215,-13.966637935800215 c0,-11.971403944971613 67.83795568817247,-78.81174263772978 79.80935963314408,-78.81174263772978 c5.985701972485806,0 9.97616995414301,-3.9904679816572033 9.97616995414301,-8.97855295872871 c0,-3.9904679816572033 29.92850986242903,-22.945190894528924 65.84272169734388,-40.902296811986346 c122.70689043595902,-59.85701972485806 284.3208436930758,-59.85701972485806 407.0277341290348,0 c35.91421183491484,17.95710591745742 65.84272169734388,36.91182883032914 65.84272169734388,40.902296811986346 c0,4.988084977071505 3.9904679816572033,8.97855295872871 9.97616995414301,8.97855295872871 c11.971403944971613,0 79.80935963314408,67.83795568817247 79.80935963314408,79.80935963314408 c0,5.985701972485806 4.988084977071505,9.97616995414301 9.97616995414301,9.97616995414301 c5.985701972485806,0 14.964254931214516,9.97616995414301 19.95233990828602,22.945190894528924 c5.985701972485806,11.971403944971613 13.966637935800215,28.93089286701473 17.95710591745742,36.91182883032914 c28.93089286701473,49.88084977071505 35.91421183491484,71.82842366982968 45.89038178905785,143.65684733965935 c12.969020940385914,89.7855295872871 0.9976169954143012,194.5353141057887 -27.93327587160043,250.40186584898956 c-8.97855295872871,16.959488922043118 -15.961871926628817,35.91421183491484 -15.961871926628817,42.89753080281494 c0,5.985701972485806 -3.9904679816572033,11.971403944971613 -9.97616995414301,11.971403944971613 c-4.988084977071505,0 -9.97616995414301,5.985701972485806 -9.97616995414301,12.969020940385914 c0,17.95710591745742 -118.71642245430182,136.67352837175923 -136.67352837175923,136.67352837175923 c-6.983318967900107,0 -12.969020940385914,3.9904679816572033 -12.969020940385914,7.980935963314408 c0,10.973786949557311 -66.84033869275817,39.90467981657204 -134.67829438093065,56.86416873861516 c-66.84033869275817,17.95710591745742 -151.63778330297376,16.959488922043118 -216.48288800490332,0 z" id="svg_2"/>
		<path d="M20555.954340747256,8789.222392667045 c-2.992850986242903,-4.988084977071505 -15.961871926628817,-9.97616995414301 -26.935658876186128,-9.97616995414301 c-20.949956903700322,0 -89.7855295872871,-36.91182883032914 -95.7712315597729,-51.876083761543654 c-1.9952339908286016,-3.9904679816572033 -7.980935963314408,-7.980935963314408 -12.969020940385914,-7.980935963314408 c-9.97616995414301,0 -30.926126857843332,-20.949956903700322 -73.82365766065828,-71.82842366982968 c-10.973786949557311,-12.969020940385914 -30.926126857843332,-45.89038178905785 -44.89276479364355,-72.82604066524398 l-24.940424885357526,-49.88084977071505 l2.992850986242903,-269.3565887618613 c1.9952339908286016,-147.64731532131657 7.980935963314408,-395.0563301840632 12.969020940385914,-548.6893474778656 c5.985701972485806,-153.63301729380237 13.966637935800215,-424.98484004649225 17.95710591745742,-603.5582822256521 c4.988084977071505,-230.44952594070355 10.973786949557311,-333.20407646837657 19.95233990828602,-354.15403337207687 c32.92136084867194,-75.81889165148688 54.868934747786554,-119.71403944971613 60.85463672027237,-124.70212442678763 c3.9904679816572033,-2.992850986242903 26.935658876186128,-33.918977844086236 50.87846676612935,-69.83318967900107 c73.82365766065828,-107.74263550474451 93.77599756894429,-134.67829438093065 101.7569335322587,-137.67114536717355 c3.9904679816572033,-1.9952339908286016 6.983318967900107,-8.97855295872871 6.983318967900107,-16.959488922043118 c0,-6.983318967900107 5.985701972485806,-17.95710591745742 12.969020940385914,-23.942807889943225 c9.97616995414301,-7.980935963314408 15.961871926628817,-51.876083761543654 19.95233990828602,-151.63778330297376 c3.9904679816572033,-76.81650864690118 10.973786949557311,-187.55199513788858 16.959488922043118,-246.41139786733237 c10.973786949557311,-115.72357146805892 25.938041880771827,-344.17786341793385 39.90467981657204,-595.5773462623378 c4.988084977071505,-87.79029559645849 13.966637935800215,-206.50671805076033 18.95472291287172,-264.36850378478977 c10.973786949557311,-106.74501850933021 25.938041880771827,-328.21599149130503 40.902296811986346,-608.5463672027237 c4.988084977071505,-84.79744461021559 12.969020940385914,-206.50671805076033 18.95472291287172,-269.3565887618613 c11.971403944971613,-131.68544339468775 26.935658876186128,-348.16833139959107 42.89753080281494,-628.4987071110097 c5.985701972485806,-106.74501850933021 13.966637935800215,-204.51148405993172 18.95472291287172,-216.48288800490332 l8.97855295872871,-22.945190894528924 l328.21599149130503,0 c227.45667495446065,0 331.20884247754793,2.992850986242903 336.19692745461947,10.973786949557311 c2.992850986242903,5.985701972485806 9.97616995414301,80.80697662855839 14.964254931214516,166.60203823418829 c4.988084977071505,86.79267860104419 13.966637935800215,208.5019520415889 19.95233990828602,271.3518227526899 c4.988084977071505,62.84987071110096 13.966637935800215,186.5543781424743 18.95472291287172,274.3446737389328 c10.973786949557311,208.5019520415889 27.93327587160043,448.92764793643545 40.902296811986346,598.5701972485806 c5.985701972485806,65.84272169734388 13.966637935800215,191.5424631195458 18.95472291287172,279.33275871600426 c14.964254931214516,268.358971766447 29.92850986242903,483.844242775936 40.902296811986346,593.5821122715091 c4.988084977071505,57.86178573402946 13.966637935800215,178.57344217915988 18.95472291287172,269.3565887618613 c11.971403944971613,217.48050500031763 30.926126857843332,498.80849770715054 34.91659483950053,523.748922592508 c2.992850986242903,10.973786949557311 11.971403944971613,28.93089286701473 21.947573899114623,40.902296811986346 c29.92850986242903,32.92136084867194 62.84987071110096,82.80221061938698 62.84987071110096,93.77599756894429 c0,4.988084977071505 3.9904679816572033,9.97616995414301 8.97855295872871,9.97616995414301 c4.988084977071505,0 22.945190894528924,21.947573899114623 38.90706282115774,47.88561577988645 c15.961871926628817,25.938041880771827 34.91659483950053,53.871317752372256 42.89753080281494,62.84987071110096 c16.959488922043118,17.95710591745742 42.89753080281494,68.83557268358678 65.84272169734388,128.69259240844482 c12.969020940385914,36.91182883032914 17.95710591745742,104.74978451850161 23.942807889943225,389.0706282115774 c3.9904679816572033,189.5472291287172 11.971403944971613,465.8871368584786 17.95710591745742,613.5344521797952 c4.988084977071505,148.64493231673086 10.973786949557311,384.0825432345059 11.971403944971613,523.748922592508 l1.9952339908286016,254.39233383064678 l-32.92136084867194,62.84987071110096 c-53.871317752372256,102.754550527673 -130.68782639927343,166.60203823418829 -240.42569589484654,200.5210160782745 c-46.887998784472146,14.964254931214516 -1122.3191198410886,15.961871926628817 -1131.2976727998173,0.9976169954143012 z" id="svg_3"/>
	</g>
	<g transform="translate(50,100) scale(0.0082,-0.007) " fill="rgb(125, 206, 239)" stroke="none" class="" id="svg_21">
		<path d="M56647.51558674025,7200.796857266963 c-60.85463672027237,-16.959488922043118 -127.69497541303053,-46.887998784472146 -127.69497541303053,-56.86416873861516 c0,-3.9904679816572033 -5.985701972485806,-7.980935963314408 -12.969020940385914,-7.980935963314408 c-17.95710591745742,0 -136.67352837175923,-118.71642245430182 -136.67352837175923,-136.67352837175923 c0,-6.983318967900107 -3.9904679816572033,-12.969020940385914 -8.97855295872871,-12.969020940385914 c-4.988084977071505,0 -11.971403944971613,-12.969020940385914 -15.961871926628817,-29.92850986242903 c-3.9904679816572033,-15.961871926628817 -10.973786949557311,-29.92850986242903 -14.964254931214516,-29.92850986242903 c-4.988084977071505,0 -11.971403944971613,-16.959488922043118 -14.964254931214516,-36.91182883032914 c-3.9904679816572033,-20.949956903700322 -10.973786949557311,-59.85701972485806 -16.959488922043118,-87.79029559645849 c-7.980935963314408,-38.90706282115774 -5.985701972485806,-66.84033869275817 5.985701972485806,-128.69259240844482 c17.95710591745742,-85.79506160562988 59.85701972485806,-183.5615271562314 81.80459362397269,-192.5400801149601 c7.980935963314408,-2.992850986242903 13.966637935800215,-8.97855295872871 13.966637935800215,-13.966637935800215 c0,-11.971403944971613 67.83795568817247,-78.81174263772978 79.80935963314408,-78.81174263772978 c5.985701972485806,0 9.97616995414301,-3.9904679816572033 9.97616995414301,-8.97855295872871 c0,-3.9904679816572033 29.92850986242903,-22.945190894528924 65.84272169734388,-40.902296811986346 c122.70689043595902,-59.85701972485806 284.3208436930758,-59.85701972485806 407.0277341290348,0 c35.91421183491484,17.95710591745742 65.84272169734388,36.91182883032914 65.84272169734388,40.902296811986346 c0,4.988084977071505 3.9904679816572033,8.97855295872871 9.97616995414301,8.97855295872871 c11.971403944971613,0 79.80935963314408,67.83795568817247 79.80935963314408,79.80935963314408 c0,5.985701972485806 4.988084977071505,9.97616995414301 9.97616995414301,9.97616995414301 c5.985701972485806,0 14.964254931214516,9.97616995414301 19.95233990828602,22.945190894528924 c5.985701972485806,11.971403944971613 13.966637935800215,28.93089286701473 17.95710591745742,36.91182883032914 c28.93089286701473,49.88084977071505 35.91421183491484,71.82842366982968 45.89038178905785,143.65684733965935 c12.969020940385914,89.7855295872871 0.9976169954143012,194.5353141057887 -27.93327587160043,250.40186584898956 c-8.97855295872871,16.959488922043118 -15.961871926628817,35.91421183491484 -15.961871926628817,42.89753080281494 c0,5.985701972485806 -3.9904679816572033,11.971403944971613 -9.97616995414301,11.971403944971613 c-4.988084977071505,0 -9.97616995414301,5.985701972485806 -9.97616995414301,12.969020940385914 c0,17.95710591745742 -118.71642245430182,136.67352837175923 -136.67352837175923,136.67352837175923 c-6.983318967900107,0 -12.969020940385914,3.9904679816572033 -12.969020940385914,7.980935963314408 c0,10.973786949557311 -66.84033869275817,39.90467981657204 -134.67829438093065,56.86416873861516 c-66.84033869275817,17.95710591745742 -151.63778330297376,16.959488922043118 -216.48288800490332,0 z" id="svg_23"/>
		<path d="M56195.595087817564,6068.501567471732 c-2.992850986242903,-4.988084977071505 -15.961871926628817,-9.97616995414301 -26.935658876186128,-9.97616995414301 c-20.949956903700322,0 -89.7855295872871,-36.91182883032914 -95.7712315597729,-51.876083761543654 c-1.9952339908286012,-3.9904679816572033 -7.980935963314408,-7.980935963314408 -12.969020940385914,-7.980935963314408 c-9.97616995414301,0 -30.926126857843332,-20.949956903700322 -73.82365766065828,-71.82842366982968 c-10.973786949557311,-12.969020940385914 -30.926126857843332,-45.89038178905785 -44.89276479364355,-72.82604066524398 l-24.940424885357526,-49.88084977071505 l2.992850986242903,-269.3565887618613 c1.9952339908286012,-147.64731532131657 7.980935963314408,-395.0563301840632 12.969020940385914,-548.6893474778656 c5.985701972485806,-153.63301729380237 13.966637935800215,-424.98484004649225 17.95710591745742,-603.5582822256521 c4.988084977071505,-230.44952594070355 10.973786949557311,-333.20407646837657 19.95233990828602,-354.15403337207687 c32.92136084867194,-75.81889165148688 54.868934747786554,-119.71403944971613 60.85463672027237,-124.70212442678763 c3.9904679816572033,-2.992850986242903 26.935658876186128,-33.918977844086236 50.87846676612935,-69.83318967900107 c73.82365766065828,-107.74263550474451 93.77599756894429,-134.67829438093065 101.7569335322587,-137.67114536717355 c3.9904679816572033,-1.9952339908286012 6.983318967900107,-8.97855295872871 6.983318967900107,-16.959488922043118 c0,-6.983318967900107 5.985701972485806,-17.95710591745742 12.969020940385914,-23.942807889943225 c9.97616995414301,-7.980935963314408 15.961871926628817,-51.876083761543654 19.95233990828602,-151.63778330297376 c3.9904679816572033,-76.81650864690118 10.973786949557311,-187.55199513788858 16.959488922043118,-246.41139786733237 c10.973786949557311,-115.72357146805892 25.938041880771827,-344.17786341793385 39.90467981657204,-595.5773462623378 c4.988084977071505,-87.79029559645849 13.966637935800215,-206.50671805076033 18.95472291287172,-264.36850378478977 c10.973786949557311,-106.74501850933021 25.938041880771827,-328.21599149130503 40.902296811986346,-608.5463672027237 c4.988084977071505,-84.79744461021559 12.969020940385914,-206.50671805076033 18.95472291287172,-269.3565887618613 c11.971403944971613,-131.68544339468775 26.935658876186128,-348.16833139959107 42.89753080281494,-628.4987071110097 c5.985701972485806,-106.74501850933021 13.966637935800215,-204.51148405993172 18.95472291287172,-216.48288800490332 l8.97855295872871,-22.945190894528924 l328.21599149130503,0 c227.45667495446065,0 331.20884247754793,2.992850986242903 336.19692745461947,10.973786949557311 c2.992850986242903,5.985701972485806 9.97616995414301,80.80697662855839 14.964254931214516,166.60203823418829 c4.988084977071505,86.79267860104419 13.966637935800215,208.5019520415889 19.95233990828602,271.3518227526899 c4.988084977071505,62.84987071110096 13.966637935800215,186.5543781424743 18.95472291287172,274.3446737389328 c10.973786949557311,208.5019520415889 27.93327587160043,448.92764793643545 40.902296811986346,598.5701972485806 c5.985701972485806,65.84272169734388 13.966637935800215,191.5424631195458 18.95472291287172,279.33275871600426 c14.964254931214516,268.358971766447 29.92850986242903,483.844242775936 40.902296811986346,593.5821122715091 c4.988084977071505,57.86178573402946 13.966637935800215,178.57344217915988 18.95472291287172,269.3565887618613 c11.971403944971613,217.48050500031763 30.926126857843332,498.80849770715054 34.91659483950053,523.748922592508 c2.992850986242903,10.973786949557311 11.971403944971613,28.93089286701473 21.947573899114623,40.902296811986346 c29.92850986242903,32.92136084867194 62.84987071110096,82.80221061938698 62.84987071110096,93.77599756894429 c0,4.988084977071505 3.9904679816572033,9.97616995414301 8.97855295872871,9.97616995414301 c4.988084977071505,0 22.945190894528924,21.947573899114623 38.90706282115774,47.88561577988645 c15.961871926628817,25.938041880771827 34.91659483950053,53.871317752372256 42.89753080281494,62.84987071110096 c16.959488922043118,17.95710591745742 42.89753080281494,68.83557268358678 65.84272169734388,128.69259240844482 c12.969020940385914,36.91182883032914 17.95710591745742,104.74978451850161 23.942807889943225,389.0706282115774 c3.9904679816572033,189.5472291287172 11.971403944971613,465.8871368584786 17.95710591745742,613.5344521797952 c4.988084977071505,148.64493231673086 10.973786949557311,384.0825432345059 11.971403944971613,523.748922592508 l1.9952339908286012,254.39233383064678 l-32.92136084867194,62.84987071110096 c-53.871317752372256,102.754550527673 -130.68782639927343,166.60203823418829 -240.42569589484654,200.5210160782745 c-46.887998784472146,14.964254931214516 -1122.3191198410886,15.961871926628817 -1131.2976727998173,0.9976169954143012 z" id="svg_25"/>
	</g>
	<g transform="translate(-20,25)">
		<path fill-rule="evenodd" fill="rgb(66, 156, 200)" d="M429.9729571342468,485.6108032345772 C433.9489571342468,485.6108032345772 437.1729571342468,488.8338032345772 437.1729571342468,492.8108032345772 C437.1729571342468,496.7868032345772 433.9489571342468,500.0108032345772 429.9729571342468,500.0108032345772 C425.9969571342468,500.0108032345772 422.77295713424684,496.7868032345772 422.77295713424684,492.8108032345772 C422.77295713424684,488.8338032345772 425.9969571342468,485.6108032345772 429.9729571342468,485.6108032345772 z" id="svg_9" class=""/>
		<text font-family="Ubuntu" fill="rgb(74, 86, 101)" font-weight="300" font-size="24px" y="498.054051220417" x="448.45945930480957" id="svg_11" class="">
			случаев смерти в года
		</text>
	</g>
	<g transform="translate(-20,25)">
		<path fill-rule="evenodd" fill="rgb(193, 86, 35)" d="M100.78378486633301,486.1513534665108 C104.759784866333,486.1513534665108 107.98378486633301,489.3743534665108 107.98378486633301,493.3513534665108 C107.98378486633301,497.3273534665108 104.759784866333,500.5513534665108 100.78378486633301,500.5513534665108 C96.80778486633301,500.5513534665108 93.583784866333,497.3273534665108 93.583784866333,493.3513534665108 C93.583784866333,489.3743534665108 96.80778486633301,486.1513534665108 100.78378486633301,486.1513534665108 z" id="svg_10" class=""/>
		<text font-family="Ubuntu" fill="rgb(74, 86, 101)" font-weight="300" font-size="24px" y="498.054051220417" x="118.45945930480957" id="svg_14" class="">
			случаев смерти в год
		</text>
	</g>
	<text font-family="Ubuntu" fill="rgb(255, 255, 255)" font-weight="bold" font-size="24px" y="239.35134887695312" x="487.4864864349365" id="svg_15" class="">
		около 9.500
	</text>
	<text font-family="Ubuntu" fill="rgb(255, 255, 255)" font-weight="bold" font-size="24px" y="202.5945930480957" x="166.9459457397461" id="svg_16" class="">
		около 54.000
	</text>
</svg>