<svg xmlns="http://www.w3.org/2000/svg" xmlns:xlink="http://www.w3.org/1999/xlink" version="1.1" xml:space="preserve" viewBox="0 0 914 825" width="95%" style=""><rect id="backgroundrect" width="100%" height="100%" x="0" y="0" fill="none" stroke="none" style="" class=""/>
<path id="svg_4" fill="#7DCEEF" d="M615.188,476.445 l214.961,173.713 h-429.92 L615.188,476.445 z" class=""/><path id="svg_5" fill="#429CC9" d="M614.851,562.654 l215.298,87.504 H399.55499999999995 L614.851,562.654 z" class=""/><path id="svg_6" fill="#F5A98A" d="M265.281,98.861 l215.296,551.297 H49.983000000000004 L265.281,98.861 z" class=""/><path id="svg_7" fill="#C15724" d="M265.281,381.445 l215.296,268.713 H49.983000000000004 L265.281,381.445 z" class=""/><path id="svg_8" opacity="0.451" fill="#0D3447" enable-background="new    " d="M480.576,650.158 h15.405 l-39.567,-61.871 L480.576,650.158 z" class=""/><text id="svg_9" transform="matrix(0.999,0,0,1,268.6965,707.5078) " fill="#4A5665" font-family="'Ubuntu', sans-serif" font-weight="300" font-size="26.5716" class="" y="10" x="-154.15415415415413">количество заболевших</text><text id="svg_9_1_" transform="matrix(1,0,0,1,202.7161,105.791) " enable-background="new    " class="" y="10" x="-154"><tspan x="-154" y="10" fill="#4A5665" font-family="'Ubuntu', sans-serif" font-weight="700" font-size="26" id="svg_1">Ишемический</tspan><tspan x="-154" y="34" fill="#4A5665" font-family="'Ubuntu', sans-serif" font-weight="700" font-size="26" id="svg_2">инсульт:</tspan></text><text id="svg_10" transform="matrix(0.999,0,0,1,376.9915,319.9634) " fill="#FFFFFF" font-family="'Ubuntu', sans-serif" font-weight="700" font-size="25" class="" y="10" x="-154.15415415415413">90.000</text><text id="svg_11" transform="matrix(0.999,0,0,1,377.054,552.6543) " fill="#FFFFFF" font-family="'Ubuntu', sans-serif" font-weight="700" font-size="25" class="" y="10" x="-154.15415415415413">54.000</text><text id="svg_12" transform="matrix(0.999,0,0,1,729.8577,535.002) " fill="#FFFFFF" font-family="'Ubuntu', sans-serif" font-weight="700" font-size="25" class="" y="10" x="-154.15415415415418">10.000</text><text id="svg_13" transform="matrix(0.999,0,0,1,737.3899,613.0879) " fill="#FFFFFF" font-family="'Ubuntu', sans-serif" font-weight="700" font-size="25" class="" y="10" x="-154.15415415415407">9.500</text><path id="svg_14" fill="#F5A98A" d="M88.16,694.375 l13.279,26.143 h-26.559 L88.16,694.375 z" class=""/><text id="svg_15" transform="matrix(0.999,0,0,1,271.5188,751.5781) " fill="#4A5665" font-family="'Ubuntu', sans-serif" font-weight="300" font-size="26.5633" class="" y="10" x="-154.15415415415413">количество умерших</text><path id="svg_16" fill="#C15724" d="M88.16,737.549 l13.279,26.143 h-26.559 L88.16,737.549 z" class=""/><text id="svg_17" transform="matrix(0.999,0,0,1,698.7122,708.4043) " fill="#4A5665" font-family="'Ubuntu', sans-serif" font-weight="300" font-size="26.5716" class="" y="10" x="-154.15415415415407">количество заболевших</text><path id="svg_18" fill="#7DCEEF" d="M514.762,694.375 l13.281,26.143 h-26.561 L514.762,694.375 z" class=""/><text id="svg_19" transform="matrix(0.999,0,0,1,699.6008,751.5781) " fill="#4A5665" font-family="'Ubuntu', sans-serif" font-weight="300" font-size="26.5633" class="" y="10" x="-154.15415415415407">количество умерших</text><path id="svg_20" fill="#429CC9" d="M514.762,737.549 l13.281,26.143 h-26.561 L514.762,737.549 z" class=""/><g id="svg_3" class="">
	<text transform="matrix(1,0,0,1,574.2292,329.9448) " id="svg_21" y="10" x="-154"><tspan x="-154" y="10" fill="#4A5665" font-family="'Ubuntu', sans-serif" font-weight="700" font-size="26" id="svg_22">Геморрагический</tspan><tspan x="-154" y="34" fill="#4A5665" font-family="'Ubuntu', sans-serif" font-weight="700" font-size="26" id="svg_23">инсульт:</tspan></text>
</g><rect x="48.71600341796875" y="159.44500732421875" fill="#F5A98A" width="40" height="6.5" id="svg_24" class=""/><rect x="421.71600341796875" y="384.44500732421875" fill="#7DCEEF" width="40.308998107910156" height="6.5" id="svg_25" class=""/><g id="svg_26" class="">
	<g id="svg_27">
		<path fill="#F5A98A" d="M269.408,48.01 l-1.076,-0.04400000000000001 h-6.275 l-1.076,0.04400000000000001 c-1.703,0.09000000000000002 -2.958,1.569 -2.869,3.227 l0.5830000000000001,9.861 c0.08900000000000002,1.255 1.12,2.286 2.42,2.286 h0.17900000000000002 l1.031,15.329 c0.08900000000000002,1.435 0.8960000000000001,2.241 1.8820000000000001,2.241 h1.972 c0.986,0 1.8370000000000002,-0.7620000000000001 1.8820000000000001,-2.241 l1.031,-15.329 h0.17900000000000002 c1.255,0 2.331,-0.986 2.42,-2.286 l0.5830000000000001,-9.861 C272.366,49.534 271.112,48.1 269.408,48.01 z" id="svg_28"/>
	</g>
	<g id="svg_29">
		<circle fill="#F5A98A" cx="265.19500732421875" cy="42.58599853515625" r="4.257999897003174" id="svg_30"/>
	</g>
</g><g id="svg_31" class="">
	<g id="svg_32">
		<path fill="#7DCEEF" d="M619.833,430.589 l-1.076,-0.04400000000000001 h-6.275 l-1.076,0.04400000000000001 c-1.703,0.09000000000000002 -2.957,1.569 -2.8680000000000003,3.228 l0.5830000000000001,9.86 c0.09000000000000002,1.255 1.12,2.286 2.42,2.286 h0.18000000000000002 l1.031,15.329 c0.08900000000000002,1.435 0.8960000000000001,2.241 1.883,2.241 h1.971 c0.986,0 1.838,-0.7620000000000001 1.883,-2.241 l1.031,-15.329 h0.18000000000000002 c1.255,0 2.33,-0.986 2.42,-2.286 l0.5830000000000001,-9.86 C622.791,432.113 621.536,430.679 619.833,430.589 z" id="svg_33"/>
	</g>
	<g id="svg_34">
		<circle fill="#7DCEEF" cx="615.6190185546875" cy="425.1650085449219" r="4.257999897003174" id="svg_35"/>
	</g>
</g>

</svg>