<svg xmlns="http://www.w3.org/2000/svg" xmlns:xlink="http://www.w3.org/1999/xlink" version="1.1" viewBox="0 0 914 837" width="95%" style="">
<path id="svg_4" fill="#7DCEEF" d="M625.188,203.486 l214.961,446.672 h-429.92 L625.188,203.486 z" class=""/><path id="svg_5" fill="#429CC9" d="M624.851,541.442 l215.298,108.716 H409.55499999999995 L624.851,541.442 z" class=""/><path id="svg_6" fill="#F5A98A" d="M275.281,98.861 l215.296,551.297 H59.983000000000004 L275.281,98.861 z" class=""/><path id="svg_7" fill="#C15724" d="M275.281,514.433 l215.296,135.726 H59.983000000000004 L275.281,514.433 z" class=""/><path id="svg_8" opacity="0.451" fill="#0D3447" enable-background="new    " d="M488.88,650.158 h17.102 l-49.897,-87.544 L488.88,650.158 z" class=""/><text id="svg_9" transform="matrix(0.999,0,0,1,268.6965,707.5078) " fill="#4A5665" font-family="'Ubuntu', sans-serif" font-weight="300" font-size="26.5716" class="" y="10" x="-144.1441441441441">случаев инсульта в год</text><text id="svg_10" transform="matrix(0.999,0,0,1,353.6565,419.9634) " fill="#FFFFFF" font-family="'Ubuntu', sans-serif" font-weight="700" font-size="25" class="" y="10" x="-144.14414414414415">20.000.000</text><text id="svg_11" transform="matrix(0.999,0,0,1,361.1223,592.6543) " fill="#FFFFFF" font-family="'Ubuntu', sans-serif" font-weight="700" font-size="25" class="" y="10" x="-144.14414414414415">5.000.000</text><text id="svg_12" transform="matrix(0.999,0,0,1,699.5403,456.002) " fill="#FFFFFF" font-family="'Ubuntu', sans-serif" font-weight="700" font-size="25" class="" y="10" x="-144.1441441441441">15.000.000</text><text id="svg_13" transform="matrix(0.999,0,0,1,707.0051,612.0879) " fill="#FFFFFF" font-family="'Ubuntu', sans-serif" font-weight="700" font-size="25" class="" y="10" x="-144.1441441441441">4.500.000</text><path id="svg_14" fill="#F5A98A" d="M98.16,694.375 l13.279,26.143 h-26.559 L98.16,694.375 z" class=""/><text id="svg_15" transform="matrix(0.999,0,0,1,271.5188,751.5781) " fill="#4A5665" font-family="'Ubuntu', sans-serif" font-weight="300" font-size="26.5633" class="" y="10" x="-144.1441441441441">умирают</text><path id="svg_16" fill="#C15724" d="M98.16,737.549 l13.279,26.143 h-26.559 L98.16,737.549 z" class=""/><text id="svg_17" transform="matrix(0.999,0,0,1,698.7122,708.4043) " fill="#4A5665" font-family="'Ubuntu', sans-serif" font-weight="300" font-size="26.5633" class="" y="10" x="-144.1441441441441">выживших</text><path id="svg_18" fill="#7DCEEF" d="M524.762,694.375 l13.281,26.143 h-26.561 L524.762,694.375 z" class=""/><text id="svg_19" transform="matrix(0.999,0,0,1,699.6008,751.5781) " fill="#4A5665" font-family="'Ubuntu', sans-serif" font-weight="300" font-size="26.5633" class="" y="10" x="-144.1441441441441">остаются инвалидами</text><path id="svg_20" fill="#429CC9" d="M524.762,737.549 l13.281,26.143 h-26.561 L524.762,737.549 z" class=""/><g id="svg_1" class="">
	<g id="svg_2">
		<path fill="#F5A98A" d="M280.149,53.671 l-1.076,-0.04400000000000001 h-6.275 l-1.076,0.04400000000000001 c-1.703,0.09000000000000002 -2.958,1.569 -2.869,3.227 l0.5830000000000001,9.861 c0.08900000000000002,1.255 1.12,2.286 2.42,2.286 h0.17900000000000002 l1.031,15.329 c0.08900000000000002,1.435 0.8960000000000001,2.241 1.8820000000000001,2.241 h1.972 c0.986,0 1.8370000000000002,-0.7620000000000001 1.8820000000000001,-2.241 l1.031,-15.329 h0.17900000000000002 c1.255,0 2.331,-0.986 2.42,-2.286 l0.5830000000000001,-9.861 C283.108,55.195 281.853,53.761 280.149,53.671 z" id="svg_3"/>
	</g>
	<g id="svg_21">
		<circle fill="#F5A98A" cx="275.9360046386719" cy="48.24800109863281" r="4.257999897003174" id="svg_22"/>
	</g>
</g><g id="svg_23" class="">
	<g id="svg_24">
		<path fill="#7DCEEF" d="M630.833,150.244 l-1.076,-0.04400000000000001 h-6.275 l-1.076,0.04400000000000001 c-1.703,0.09000000000000002 -2.957,1.569 -2.8680000000000003,3.227 l0.5830000000000001,9.861 c0.09000000000000002,1.255 1.12,2.286 2.42,2.286 h0.18000000000000002 l1.031,15.329 c0.08900000000000002,1.435 0.8960000000000001,2.241 1.883,2.241 h1.971 c0.986,0 1.838,-0.7620000000000001 1.883,-2.241 l1.031,-15.329 h0.18000000000000002 c1.255,0 2.33,-0.986 2.42,-2.286 l0.5830000000000001,-9.861 C633.791,151.768 632.536,150.333 630.833,150.244 z" id="svg_25"/>
	</g>
	<g id="svg_26">
		<circle fill="#7DCEEF" cx="626.6190185546875" cy="144.82000732421875" r="4.257999897003174" id="svg_27"/>
	</g>
</g>
</svg>