<svg xmlns="http://www.w3.org/2000/svg" xmlns:xlink="http://www.w3.org/1999/xlink" version="1.1" viewBox="0 0 584 637">

<path fill="#F69165" d="M438.977,314.389 c35.279,0 63.984,-28.705 63.984,-63.984 c0,-35.278 -28.705,-63.983 -63.984,-63.983 h-20.205 v-20.206 c0,-11.14 9.065,-20.205 20.205,-20.205 c35.279,0 63.984,-28.706 63.984,-63.984 c0,-35.279 -28.705,-63.984 -63.984,-63.984 H169.57299999999998 c-35.279,0 -63.983,28.705 -63.983,63.984 c0,35.278 28.704,63.984 63.983,63.984 c11.14,0 20.205,9.065 20.205,20.205 v20.206 h-20.205 c-35.279,0 -63.983,28.705 -63.983,63.983 c0,35.279 28.704,63.984 63.983,63.984 c11.14,0 20.205,9.065 20.205,20.205 v20.205 h-20.205 c-35.279,0 -63.983,28.705 -63.983,63.984 c0,35.278 28.704,63.983 63.983,63.983 c11.14,0 20.205,9.065 20.205,20.205 c0,25.991 21.148,47.146 47.146,47.146 c11.141,0 20.206,9.065 20.206,20.205 c0,25.991 21.148,47.146 47.146,47.146 s47.146,-21.154 47.146,-47.146 c0,-11.14 9.065,-20.205 20.206,-20.205 c25.997,0 47.146,-21.155 47.146,-47.146 c0,-11.14 9.065,-20.205 20.205,-20.205 c35.279,0 63.984,-28.705 63.984,-63.983 c0,-35.279 -28.705,-63.984 -63.984,-63.984 h-20.205 v-20.205 C418.77200000000005,323.454 427.837,314.389 438.977,314.389 zM216.71800000000002,166.216 c0,-25.991 -21.148,-47.146 -47.146,-47.146 c-20.428,0 -37.043,-16.622 -37.043,-37.043 s16.615,-37.043 37.043,-37.043 h269.404 c20.428,0 37.043,16.623 37.043,37.043 s-16.615,37.043 -37.043,37.043 c-25.997,0 -47.146,21.155 -47.146,47.146 v20.206 h-20.205 c-25.998,0 -47.146,21.155 -47.146,47.146 c0,11.14 -9.065,20.206 -20.205,20.206 s-20.205,-9.065 -20.205,-20.206 c0,-25.991 -21.148,-47.146 -47.146,-47.146 h-20.205 V166.216 zM476.02,418.783 c0,20.421 -16.615,37.043 -37.043,37.043 c-25.997,0 -47.146,21.155 -47.146,47.146 c0,11.14 -9.065,20.206 -20.205,20.206 c-25.998,0 -47.146,21.154 -47.146,47.146 c0,11.14 -9.065,20.205 -20.205,20.205 s-20.205,-9.065 -20.205,-20.205 c0,-25.991 -21.148,-47.146 -47.146,-47.146 c-11.14,0 -20.205,-9.066 -20.205,-20.206 c0,-25.99 -21.148,-47.146 -47.146,-47.146 c-20.428,0 -37.043,-16.622 -37.043,-37.043 s16.615,-37.044 37.043,-37.044 h67.351 c11.141,0 20.206,9.066 20.206,20.206 c0,25.99 21.148,47.146 47.146,47.146 s47.146,-21.155 47.146,-47.146 c0,-11.14 9.065,-20.206 20.206,-20.206 h67.351 C459.405,381.739 476.02,398.362 476.02,418.783 zM371.626,354.799 c-25.998,0 -47.146,21.155 -47.146,47.146 c0,11.14 -9.065,20.205 -20.205,20.205 s-20.205,-9.065 -20.205,-20.205 c0,-25.991 -21.148,-47.146 -47.146,-47.146 h-20.205 v-20.205 c0,-25.99 -21.148,-47.146 -47.146,-47.146 c-20.428,0 -37.043,-16.623 -37.043,-37.043 s16.615,-37.043 37.043,-37.043 h67.351 c11.141,0 20.206,9.065 20.206,20.205 c0,25.991 21.148,47.146 47.146,47.146 s47.146,-21.155 47.146,-47.146 c0,-11.14 9.065,-20.205 20.206,-20.205 h67.351 c20.428,0 37.043,16.622 37.043,37.043 s-16.615,37.043 -37.043,37.043 c-25.997,0 -47.146,21.155 -47.146,47.146 v20.205 H371.626 zM289.996,129.981 c-3.771,-3.7720000000000002 -5.927,-8.958 -5.927,-14.279 c0,-5.32 2.1550000000000002,-10.513 5.927,-14.278 c7.543,-7.543 21.081,-7.543 28.557,0 c3.771,3.765 5.927,8.958 5.927,14.278 c0,5.321 -2.1550000000000002,10.507 -5.927,14.279 c-3.771,3.771 -8.958,5.927 -14.278,5.927 C298.953,135.908 293.76800000000003,133.752 289.996,129.981 z" id="svg_1" class="selected"/>

</svg>