<svg xmlns="http://www.w3.org/2000/svg" xmlns:xlink="http://www.w3.org/1999/xlink" version="1.1" viewBox="0 0 582 527">

<path fill="#F69165" d="M453.653,384.662 c-68.698,-17.512 -76.78,-51.86 -76.78,-76.781 c0,-14.144 4.041,-29.634 6.735,-38.39 c14.817,-1.347 26.94,-13.471 36.369,-38.39 c10.776,-26.94 2.694,-43.778 -6.062,-51.86 c6.062,-35.696 4.041,-66.004 -4.714,-90.924 l0,0 c-4.715,-12.123 -10.776,-23.573 -18.859,-33.002 c-33.002,-38.39 -84.188,-41.758 -99.006,-41.758 s-66.004,3.368 -98.333,42.431 c-2.021,2.694 -4.714,5.388 -6.734,8.756 l0,0 c-18.858,28.288 -24.92,67.351 -16.838,115.17 c-8.756,8.082 -16.838,24.92 -6.062,51.86 c9.429,24.92 21.552,37.043 36.369,38.391 c2.694,8.755 6.735,24.246 6.735,38.39 c0,24.92 -8.082,59.27 -76.78,76.78 c-82.169,20.206 -114.497,53.208 -114.497,116.518 c0,5.389 4.715,10.103 10.103,10.103 c5.389,0 10.103,-4.714 10.103,-10.103 c0,-45.799 16.164,-76.78 99.007,-97.659 c61.289,-15.49 92.271,-47.819 92.271,-96.312 c0,-24.921 -9.429,-51.188 -10.103,-52.534 c-2.021,-4.715 -6.735,-7.409 -11.449,-6.062 c-3.368,0.6730000000000002 -12.124,2.693 -22.9,-25.594 c-9.429,-23.573 1.348,-29.635 2.694,-30.308 c4.041,-2.021 6.735,-6.735 6.062,-10.776 c-2.021,-10.103 -2.693,-19.532 -3.367,-28.961 l206.769,23.573 c0,1.347 -0.6740000000000002,3.367 -0.6740000000000002,4.714 c-0.6740000000000002,4.041 1.347,8.756 5.388,10.776 c1.348,0.6730000000000002 12.123,6.735 2.694,30.308 c-10.776,27.614 -19.532,26.267 -22.899,25.593 c-4.715,-0.6740000000000002 -9.43,2.021 -11.449,6.062 c-0.6740000000000002,1.347 -10.104,26.94 -10.104,52.534 c0,48.493 30.982,80.821 92.271,96.312 c82.842,20.879 99.006,51.187 99.006,97.659 c0,5.388 4.715,10.103 10.104,10.103 c5.388,0 10.103,-4.715 10.103,-10.103 C567.476,438.543 535.822,405.541 453.653,384.662 zM200.41199999999998,80.23400000000001 l191.277,20.879 c2.021,6.062 2.694,12.123 4.041,18.858 l-202.054,-23.573 C195.024,90.33699999999999 197.71800000000002,85.62299999999999 200.41199999999998,80.23400000000001 zM341.17600000000004,44.538 l-44.451,26.267 l-26.941,-3.368 l47.146,-30.981 C324.33799999999997,38.477000000000004 333.09400000000005,40.497 341.17600000000004,44.538 zM238.80200000000002,64.07 l-23.572,-2.694 c22.899,-21.552 54.554,-26.94 69.371,-27.614 L238.80200000000002,64.07 zM374.852,68.785 c2.694,3.368 5.388,7.409 8.082,11.45 l-53.207,-6.062 l30.981,-18.185 l0,0 C366.096,59.35499999999999 370.13699999999994,64.07 374.852,68.785 zM186.269,133.442 c0,-6.062 0.6730000000000002,-12.124 2.021,-17.511 l208.788,24.92 c0,5.388 0,11.449 -0.6730000000000002,17.511 L186.269,133.442 z" id="svg_1" class=""/>

</svg>