<svg xmlns="http://www.w3.org/2000/svg" xmlns:xlink="http://www.w3.org/1999/xlink" version="1.1" viewBox="0 0 638 675">

	<path fill="#F69165" d="M604.465,128.284 c-9.472,-8.419 -19.995,-12.628 -30.519,-12.628 c-18.942,1.052 -32.623,16.838 -45.252,31.571 c-4.209,4.209 -7.366,8.419 -10.523,11.576 c-9.472,8.419 -21.047,16.838 -36.833,27.362 c-22.1,13.681000000000001 -46.304,24.204 -74.718,35.78 c-12.628,5.2620000000000005 -47.356,13.681000000000001 -58.932,-7.367 c-11.576,-19.995 -17.891000000000002,-54.723 -19.995,-65.247 v-3.157 c-1.053,-6.314 -2.104,-11.576 -2.104,-16.838 c0,-4.209 1.052,-8.419 2.104,-11.576 c2.104,-5.2620000000000005 4.209,-9.471 7.366,-14.733 c6.314,-12.628 13.681000000000001,-26.309 10.524000000000001,-44.199 c-3.157,-16.838 -12.629,-29.466 -26.31,-35.78 c-15.785,-7.367 -34.728,-5.2620000000000005 -50.514,5.2620000000000005 c-10.523,7.367 -17.89,15.786 -19.995,26.309 c-3.156,18.942 8.42,35.78 18.943,51.566 c3.156,5.2620000000000005 6.313,9.471 8.419,13.681000000000001 c6.313,11.576 11.575,24.204 16.837,42.094 c7.367,25.257 11.576,51.566 13.682,74.718 l2.104,17.89 c1.052,6.314 -3.157,11.576 -9.472,13.681000000000001 c-14.732,3.157 -30.519,2.105 -46.304,1.053 c-6.314,0 -12.628,-1.053 -18.942,-1.053 c-19.995,0 -38.938,-1.052 -56.828,-3.157 c-2.104,0 -5.2620000000000005,0 -7.366,-1.053 c-10.523,-1.052 -21.047,-1.052 -28.414,-6.314 c-4.209,-3.157 -8.419,-6.314 -12.628,-10.523 c-10.523,-9.471 -23.151,-19.995 -41.042,-21.047 c-16.838,-1.052 -31.571,5.2620000000000005 -41.042,17.89 c-10.523,13.681000000000001 -12.629,32.623 -6.314,50.513 c4.21,12.628 11.576,21.048 21.047,25.257 c16.838,7.366 36.833,0 53.671,-6.314 c5.2620000000000005,-2.104 10.523,-4.209 15.785,-5.2620000000000005 c12.629,-3.157 26.31,-5.2620000000000005 45.252,-6.314 c28.413,-1.052 125.231,-1.052 129.44,10.524000000000001 c1.053,2.104 -1.053,5.2620000000000005 -2.104,6.313 c-6.314,8.419 -62.09,51.566 -78.928,68.404 c-7.366,7.366 -14.732,15.785 -23.151,23.151 l-22.1,21.048 c-12.629,12.628 -26.31,26.309 -43.147,32.623 c-10.523,4.209 -24.204,5.2620000000000005 -36.832,7.366 c-24.204,4.21 -47.356,7.367 -64.194,25.257 c-16.838,17.891000000000002 -23.152,45.252 -16.838,72.613 c6.314,25.257 23.152,44.199 44.199,51.565 c7.366,2.104 15.785,4.21 23.152,4.21 c22.1,0 44.199,-9.472 58.932,-26.31 c15.785,-16.838 17.891000000000002,-35.78 18.942,-53.67 c1.053,-10.524000000000001 2.105,-19.995 5.2620000000000005,-28.414 c7.367,-18.942 23.152,-35.78 36.833,-50.514 c8.419,-8.419 14.733,-15.785 19.995,-22.1 c18.942,-21.047 39.989,-38.938 61.037,-56.827 c11.576,-9.472 22.1,-17.891000000000002 33.676,-27.361 c9.471,-7.367 22.1,-19.995 34.728,-18.942 c16.838,2.104 24.204,28.413 30.519,42.094 c13.681000000000001,26.31 25.257,52.618 36.833,78.928 c14.732,34.728 27.361,70.508 37.885,106.288 c0,1.053 1.053,4.21 1.053,4.21 c0,1.052 -2.105,3.157 -4.21,6.314 c-1.052,1.052 -1.052,2.104 -2.104,3.156 c-14.733,22.1 -9.472,53.671 12.628,68.404 c8.419,5.2620000000000005 17.891000000000002,8.419 27.361,8.419 c15.786,0 32.624,-7.367 41.042,-19.995 c14.733,-21.048 9.472,-53.671 -12.628,-68.404 c-3.157,-2.104 -6.314,-4.209 -9.472,-5.2620000000000005 c-3.156,-2.104 -6.313,-3.156 -8.418,-5.2620000000000005 c-3.157,-3.156 -6.314,-8.419 -9.472,-13.681000000000001 c-18.942,-36.832 -36.833,-75.77 -50.514,-116.812 c-9.471,-25.257 -16.838,-51.566 -23.151,-77.875 c-2.105,-9.472 -10.524000000000001,-26.31 -8.419,-35.78 c2.104,-8.419 11.575,-7.367 18.942,-8.419 h4.209 c34.729,-3.157 58.933,2.105 76.822,14.733 c7.367,5.2620000000000005 15.786,8.419 25.257,7.367 c19.995,-1.053 36.833,-16.838 38.938,-37.885 c1.053,-11.576 -3.157,-22.1 -10.523,-30.519 c-12.628,-13.681000000000001 -35.78,-16.838 -51.565,-6.314 c-14.733,9.472 -34.729,13.681000000000001 -54.723,12.628 c-8.419,-1.052 -24.205,4.209 -30.519,-4.209 c-14.733,-16.837 54.723,-42.094 63.142,-45.251 c2.104,-1.052 4.209,-2.104 7.366,-3.157 c10.523,-4.209 18.942,-8.419 28.414,-7.366 c5.2620000000000005,0 10.523,1.052 15.785,3.157 c13.681000000000001,3.157 29.466,6.314 45.252,-1.052 c15.785,-7.366 25.257,-18.942 27.361,-34.728 C625.512,158.802 618.146,139.859 604.465,128.284 z" id="svg_2"/>
</svg>