<?xml version="1.0" encoding="utf-8"?>
<!-- Generator: Adobe Illustrator 16.0.0, SVG Export Plug-In . SVG Version: 6.00 Build 0)  -->
<!DOCTYPE svg PUBLIC "-//W3C//DTD SVG 1.1//EN" "http://www.w3.org/Graphics/SVG/1.1/DTD/svg11.dtd">
<svg version="1.1" id="Layer_1" xmlns="http://www.w3.org/2000/svg" xmlns:xlink="http://www.w3.org/1999/xlink"
	 viewBox="0 0 1190.549 841.891" enable-background="new 0 0 1190.549 841.891"
	 xml:space="preserve">
<g>
	<g>
		<path fill="#F69165" d="M833.303,257.946c15.686-17.053,24.383-39.383,24.363-62.553c0.477-49.804-39.442-90.6-89.245-91.205
			c-4.832,0.121-9.602,1.124-14.072,2.96c-7.148-28.246-33.632-47.214-62.676-44.89C684.326,36.917,660.943,19.614,634.56,20
			c-14.36-0.056-28.277,4.973-39.285,14.196C584.267,24.973,570.35,19.944,555.99,20c-26.383-0.386-49.767,16.917-57.113,42.259
			c-29.062-2.39-55.583,16.606-62.676,44.89c-4.471-1.836-9.24-2.839-14.072-2.96c-49.803,0.605-89.722,41.401-89.245,91.205
			c-0.02,23.17,8.678,45.5,24.363,62.553c-26.53,16.962-42.588,46.273-42.602,77.763c1.809,42.336,31.424,78.361,72.61,88.327
			c-7.541,11.265-11.793,24.409-12.277,37.956c-0.248,35.379,20.012,67.702,51.96,82.901c-0.027,0.698-0.041,1.411-0.041,2.124
			c-0.122,28.948,19.829,54.118,48.041,60.606c-1.855,5.039-2.824,10.361-2.863,15.73c-0.338,38.342,30.419,69.725,68.76,70.157
			c21.503-0.07,41.7-10.329,54.44-27.651c12.74,17.322,32.938,27.581,54.44,27.651c38.341-0.433,69.098-31.815,68.76-70.157
			c-0.037-5.271-0.968-10.497-2.754-15.456c28.231-6.614,48.128-31.886,47.932-60.881c0-0.713-0.014-1.426-0.041-2.124
			c31.949-15.199,52.208-47.522,51.961-82.901c-0.43-13.078-4.424-25.791-11.552-36.764c42.181-8.981,72.224-46.395,71.884-89.52
			C875.891,304.22,859.833,274.908,833.303,257.946z M540.834,665.449c-22.85-0.416-41.053-19.244-40.697-42.095
			c0.631-5.261,2.512-10.295,5.484-14.681c10.894-3.123,20.811-8.975,28.812-17c3.728-3.356,5.379-8.447,4.332-13.353
			s-4.634-8.879-9.406-10.421s-10.006-0.419-13.726,2.945c-4.53,4.882-10.239,8.516-16.58,10.552
			c-0.961-0.066-1.927-0.032-2.881,0.103c-0.259,0.009-0.492-0.166-0.75-0.144c-1.165,0.082-3.028,0-4.646-0.041l-2.986-0.056
			c-18.51-0.419-33.191-15.732-32.832-34.242c0.084-3.049,0.404-6.086,0.96-9.085c1.052-6.818-3.01-13.39-9.578-15.498
			c-26.067-8.553-43.588-33.01-43.301-60.442c2.329-15.062,9.438-28.979,20.278-39.693c19.897-20.112,45.761-33.259,73.735-37.479
			c7.75,0,14.031-6.282,14.031-14.032c0-7.749-6.281-14.031-14.031-14.031c-33.65,3.521-65.138,18.26-89.396,41.845
			c-34.519-1.338-62.502-28.435-64.95-62.892c-0.141-27.918,17.989-52.645,44.656-60.908c5.341-1.567,9.249-6.143,9.962-11.663
			c0.713-5.52-1.905-10.938-6.673-13.81c-18.619-11.578-29.873-32.009-29.708-53.934c-0.494-34.312,26.872-62.554,61.183-63.142
			c6.026,1.728,11.778,4.298,17.087,7.633c3.796,2.097,7.304,4.001,10.168,5.248c4.707,2.035,10.149,1.342,14.195-1.809
			c4.047-3.15,6.054-8.256,5.234-13.319c-0.752-3.285-1.97-6.446-3.617-9.386c-0.699-1.48-1.467-3.056-2.028-4.33
			c2.01-15.455,15.508-26.805,31.078-26.131c4.002-0.054,7.972,0.72,11.661,2.274c4.906,2.054,10.55,1.18,14.605-2.262
			c4.055-3.442,5.835-8.869,4.605-14.044c0.832-16.248,14.618-28.78,30.872-28.063c9.874-0.1,19.223,4.438,25.254,12.257v108.708
			c-16.404,23.654-60.172,75.476-98.221,75.476c-7.749,0-14.031,6.282-14.031,14.032s6.282,14.031,14.031,14.031
			c38.261,0,74.815-32.342,98.221-58.575v409.363C581.673,646.123,563.602,664.949,540.834,665.449z M786.947,398.851h-9.263
			c-5.415-0.003-10.348,3.111-12.676,8c-2.327,4.89-1.634,10.682,1.782,14.884c11.042,10.853,18.306,24.965,20.719,40.258
			c0.287,27.434-17.234,51.89-43.301,60.442c-6.569,2.108-10.631,8.68-9.579,15.498c0.556,2.999,0.877,6.036,0.961,9.085
			c0.359,18.51-14.322,33.823-32.832,34.242l-3.303,0.083c-1.479,0.056-3.261,0.068-3.809,0.123
			c-5.384-0.64-10.644,1.934-13.442,6.577c-2.923,4.737-2.944,10.712-0.056,15.471c4.335,5.838,7.172,12.65,8.262,19.84
			c0.561,14.853-7.044,28.822-19.821,36.415s-28.683,7.593-41.46,0c-12.777-7.592-20.383-21.562-19.823-36.414V60.32
			c6.031-7.819,15.38-12.357,25.254-12.257c16.276-0.676,30.08,11.84,30.995,28.104c-1.258,5.152,0.495,10.574,4.532,14.015
			c4.037,3.44,9.669,4.311,14.556,2.25c3.689-1.554,7.659-2.329,11.661-2.274c15.57-0.673,29.068,10.676,31.078,26.131
			c-0.562,1.274-1.329,2.85-2.028,4.33c-1.647,2.94-2.865,6.101-3.617,9.386c-0.819,5.062,1.188,10.168,5.234,13.319
			c4.046,3.15,9.488,3.844,14.195,1.809c2.864-1.247,6.372-3.151,10.167-5.248c5.309-3.335,11.062-5.905,17.088-7.633
			c34.312,0.587,61.677,28.829,61.183,63.142c0.165,21.925-11.089,42.356-29.708,53.934c-4.767,2.872-7.386,8.291-6.673,13.81
			c0.713,5.52,4.621,10.096,9.962,11.663c26.667,8.263,44.797,32.99,44.657,60.908C848.41,369.94,821.177,398.179,786.947,398.851
			L786.947,398.851z"/>
		<path fill="#F69165" d="M647.18,128.032c2.694-2.555,4.221-6.105,4.221-9.818c0-3.713-1.526-7.263-4.221-9.818
			c-5.46-5.331-14.176-5.331-19.636,0c-1.427,1.181-2.495,2.738-3.083,4.495c-0.777,1.667-1.162,3.491-1.123,5.331
			c-0.064,5.681,3.341,10.827,8.595,12.988C637.187,133.371,643.228,132.112,647.18,128.032L647.18,128.032z"/>
		<path fill="#F69165" d="M712.857,498.193c-5.209-2.144-11.196-0.926-15.153,3.083c-2.732,2.531-4.262,6.103-4.208,9.826
			c-0.038,1.839,0.346,3.662,1.122,5.33c0.585,1.755,1.653,3.309,3.083,4.481c2.529,2.735,6.101,4.27,9.826,4.22
			c1.841,0.06,3.669-0.325,5.33-1.122c1.756-0.59,3.309-1.663,4.481-3.097c2.694-2.555,4.22-6.105,4.22-9.818
			s-1.525-7.263-4.22-9.817C716.165,499.849,714.612,498.778,712.857,498.193z"/>
		<path fill="#F69165" d="M697.701,389.025c-1.427,1.181-2.495,2.738-3.083,4.495c-0.777,1.667-1.162,3.49-1.123,5.33
			c-0.096,6.396,4.147,12.047,10.315,13.741c6.169,1.693,12.702-0.998,15.887-6.547c3.185-5.548,2.214-12.547-2.359-17.02
			C711.878,383.695,703.161,383.695,697.701,389.025z"/>
		<path fill="#F69165" d="M717.338,276.774c-5.46-5.331-14.177-5.331-19.637,0c-1.427,1.181-2.495,2.738-3.083,4.494
			c-0.777,1.667-1.162,3.491-1.123,5.331c0.118,7.665,6.366,13.816,14.031,13.816c7.666,0,13.913-6.151,14.031-13.816
			c0.032-1.839-0.351-3.661-1.122-5.331C719.843,279.51,718.77,277.954,717.338,276.774L717.338,276.774z"/>
		<path fill="#F69165" d="M717.338,164.521c-5.46-5.331-14.177-5.331-19.637,0c-1.427,1.181-2.495,2.738-3.083,4.495
			c-0.777,1.667-1.162,3.491-1.123,5.331c0.118,7.665,6.366,13.815,14.031,13.815c7.666,0,13.913-6.151,14.031-13.815
			c0.032-1.839-0.351-3.661-1.122-5.331C719.843,167.258,718.77,165.702,717.338,164.521L717.338,164.521z"/>
		<path fill="#F69165" d="M661.212,445.151c-5.461-5.33-14.177-5.33-19.637,0c-4.342,4.479-5.164,11.305-2.009,16.688
			c3.154,5.382,9.511,8,15.541,6.4c6.029-1.6,10.253-7.024,10.324-13.263c0.032-1.839-0.352-3.661-1.122-5.33
			C663.717,447.889,662.644,446.332,661.212,445.151L661.212,445.151z"/>
		<path fill="#F69165" d="M773.464,332.899c-5.46-5.331-14.177-5.331-19.637,0c-1.427,1.181-2.495,2.738-3.083,4.495
			c-0.777,1.667-1.162,3.49-1.123,5.33c0.118,7.665,6.366,13.815,14.031,13.815c7.666,0,13.913-6.15,14.031-13.815
			c0.033-1.839-0.352-3.661-1.122-5.33C775.969,335.637,774.896,334.079,773.464,332.899L773.464,332.899z"/>
		<path fill="#F69165" d="M661.212,332.899c-5.46-5.331-14.177-5.331-19.637,0c-4.342,4.479-5.164,11.305-2.009,16.688
			c3.154,5.382,9.511,8,15.541,6.4c6.029-1.6,10.253-7.024,10.324-13.263c0.032-1.839-0.352-3.661-1.122-5.33
			C663.717,335.637,662.644,334.079,661.212,332.899L661.212,332.899z"/>
		<path fill="#F69165" d="M641.575,220.647c-2.731,2.531-4.261,6.102-4.206,9.825c-0.066,1.842,0.319,3.671,1.122,5.33
			c0.585,1.755,1.653,3.308,3.083,4.481c2.555,2.694,6.105,4.22,9.818,4.22s7.263-1.526,9.818-4.22
			c1.434-1.172,2.508-2.725,3.099-4.481c0.796-1.661,1.182-3.489,1.122-5.33c0.049-3.725-1.484-7.296-4.22-9.825
			C655.752,215.317,647.035,215.317,641.575,220.647L641.575,220.647z"/>
		<path fill="#F69165" d="M753.827,220.647c-4.079,3.991-5.337,10.054-3.183,15.338c2.155,5.284,7.294,8.738,13.001,8.738
			s10.846-3.454,13.001-8.738c2.154-5.284,0.896-11.347-3.183-15.338C768.004,215.317,759.288,215.317,753.827,220.647
			L753.827,220.647z"/>
	</g>
</g>
</svg>
