<?xml version="1.0" encoding="utf-8"?>
<!-- Generator: Adobe Illustrator 16.0.0, SVG Export Plug-In . SVG Version: 6.00 Build 0)  -->
<!DOCTYPE svg PUBLIC "-//W3C//DTD SVG 1.1//EN" "http://www.w3.org/Graphics/SVG/1.1/DTD/svg11.dtd">
<svg version="1.1" id="Layer_1" xmlns="http://www.w3.org/2000/svg" xmlns:xlink="http://www.w3.org/1999/xlink" viewBox="0 0 1190.549 841.891" enable-background="new 0 0 1190.549 841.891"
	 xml:space="preserve">
<path fill="#F69165" d="M729.977,333.389c35.279,0,63.984-28.705,63.984-63.984c0-35.278-28.705-63.983-63.984-63.983h-20.205
	v-20.206c0-11.14,9.065-20.205,20.205-20.205c35.279,0,63.984-28.706,63.984-63.984c0-35.279-28.705-63.984-63.984-63.984H460.573
	c-35.279,0-63.983,28.705-63.983,63.984c0,35.278,28.704,63.984,63.983,63.984c11.14,0,20.205,9.065,20.205,20.205v20.206h-20.205
	c-35.279,0-63.983,28.705-63.983,63.983c0,35.279,28.704,63.984,63.983,63.984c11.14,0,20.205,9.065,20.205,20.205v20.205h-20.205
	c-35.279,0-63.983,28.705-63.983,63.984c0,35.278,28.704,63.983,63.983,63.983c11.14,0,20.205,9.065,20.205,20.205
	c0,25.991,21.148,47.146,47.146,47.146c11.141,0,20.206,9.065,20.206,20.205c0,25.991,21.148,47.146,47.146,47.146
	s47.146-21.154,47.146-47.146c0-11.14,9.065-20.205,20.206-20.205c25.997,0,47.146-21.155,47.146-47.146
	c0-11.14,9.065-20.205,20.205-20.205c35.279,0,63.984-28.705,63.984-63.983c0-35.279-28.705-63.984-63.984-63.984h-20.205v-20.205
	C709.772,342.454,718.837,333.389,729.977,333.389z M507.718,185.216c0-25.991-21.148-47.146-47.146-47.146
	c-20.428,0-37.043-16.622-37.043-37.043s16.615-37.043,37.043-37.043h269.404c20.428,0,37.043,16.623,37.043,37.043
	s-16.615,37.043-37.043,37.043c-25.997,0-47.146,21.155-47.146,47.146v20.206h-20.205c-25.998,0-47.146,21.155-47.146,47.146
	c0,11.14-9.065,20.206-20.205,20.206s-20.205-9.065-20.205-20.206c0-25.991-21.148-47.146-47.146-47.146h-20.205V185.216z
	 M767.02,437.783c0,20.421-16.615,37.043-37.043,37.043c-25.997,0-47.146,21.155-47.146,47.146c0,11.14-9.065,20.206-20.205,20.206
	c-25.998,0-47.146,21.154-47.146,47.146c0,11.14-9.065,20.205-20.205,20.205s-20.205-9.065-20.205-20.205
	c0-25.991-21.148-47.146-47.146-47.146c-11.14,0-20.205-9.066-20.205-20.206c0-25.99-21.148-47.146-47.146-47.146
	c-20.428,0-37.043-16.622-37.043-37.043s16.615-37.044,37.043-37.044h67.351c11.141,0,20.206,9.066,20.206,20.206
	c0,25.99,21.148,47.146,47.146,47.146s47.146-21.155,47.146-47.146c0-11.14,9.065-20.206,20.206-20.206h67.351
	C750.405,400.739,767.02,417.362,767.02,437.783z M662.626,373.799c-25.998,0-47.146,21.155-47.146,47.146
	c0,11.14-9.065,20.205-20.205,20.205s-20.205-9.065-20.205-20.205c0-25.991-21.148-47.146-47.146-47.146h-20.205v-20.205
	c0-25.99-21.148-47.146-47.146-47.146c-20.428,0-37.043-16.623-37.043-37.043s16.615-37.043,37.043-37.043h67.351
	c11.141,0,20.206,9.065,20.206,20.205c0,25.991,21.148,47.146,47.146,47.146s47.146-21.155,47.146-47.146
	c0-11.14,9.065-20.205,20.206-20.205h67.351c20.428,0,37.043,16.622,37.043,37.043s-16.615,37.043-37.043,37.043
	c-25.997,0-47.146,21.155-47.146,47.146v20.205H662.626z M580.996,148.981c-3.771-3.772-5.927-8.958-5.927-14.279
	c0-5.32,2.155-10.513,5.927-14.278c7.543-7.543,21.081-7.543,28.557,0c3.771,3.765,5.927,8.958,5.927,14.278
	c0,5.321-2.155,10.507-5.927,14.279c-3.771,3.771-8.958,5.927-14.278,5.927C589.953,154.908,584.768,152.752,580.996,148.981z"/>
</svg>
