<?xml version="1.0" encoding="utf-8"?>
<!-- Generator: Adobe Illustrator 16.0.0, SVG Export Plug-In . SVG Version: 6.00 Build 0)  -->
<!DOCTYPE svg PUBLIC "-//W3C//DTD SVG 1.1//EN" "http://www.w3.org/Graphics/SVG/1.1/DTD/svg11.dtd">
<svg version="1.1" id="Layer_1" xmlns="http://www.w3.org/2000/svg" xmlns:xlink="http://www.w3.org/1999/xlink" viewBox="0 0 1190.549 841.891" enable-background="new 0 0 1190.549 841.891"
	 xml:space="preserve">
<path fill="#F69165" d="M763.653,458.662c-68.698-17.512-76.78-51.86-76.78-76.781c0-14.144,4.041-29.634,6.735-38.39
	c14.817-1.347,26.94-13.471,36.369-38.39c10.776-26.94,2.694-43.778-6.062-51.86c6.062-35.696,4.041-66.004-4.714-90.924l0,0
	c-4.715-12.123-10.776-23.573-18.859-33.002c-33.002-38.39-84.188-41.758-99.006-41.758s-66.004,3.368-98.333,42.431
	c-2.021,2.694-4.714,5.388-6.734,8.756l0,0c-18.858,28.288-24.92,67.351-16.838,115.17c-8.756,8.082-16.838,24.92-6.062,51.86
	c9.429,24.92,21.552,37.043,36.369,38.391c2.694,8.755,6.735,24.246,6.735,38.39c0,24.92-8.082,59.27-76.78,76.78
	c-82.169,20.206-114.497,53.208-114.497,116.518c0,5.389,4.715,10.103,10.103,10.103c5.389,0,10.103-4.714,10.103-10.103
	c0-45.799,16.164-76.78,99.007-97.659c61.289-15.49,92.271-47.819,92.271-96.312c0-24.921-9.429-51.188-10.103-52.534
	c-2.021-4.715-6.735-7.409-11.449-6.062c-3.368,0.673-12.124,2.693-22.9-25.594c-9.429-23.573,1.348-29.635,2.694-30.308
	c4.041-2.021,6.735-6.735,6.062-10.776c-2.021-10.103-2.693-19.532-3.367-28.961l206.769,23.573c0,1.347-0.674,3.367-0.674,4.714
	c-0.674,4.041,1.347,8.756,5.388,10.776c1.348,0.673,12.123,6.735,2.694,30.308c-10.776,27.614-19.532,26.267-22.899,25.593
	c-4.715-0.674-9.43,2.021-11.449,6.062c-0.674,1.347-10.104,26.94-10.104,52.534c0,48.493,30.982,80.821,92.271,96.312
	c82.842,20.879,99.006,51.187,99.006,97.659c0,5.388,4.715,10.103,10.104,10.103c5.388,0,10.103-4.715,10.103-10.103
	C877.476,512.543,845.822,479.541,763.653,458.662z M510.412,154.234l191.277,20.879c2.021,6.062,2.694,12.123,4.041,18.858
	l-202.054-23.573C505.024,164.337,507.718,159.623,510.412,154.234z M651.176,118.538l-44.451,26.267l-26.941-3.368l47.146-30.981
	C634.338,112.477,643.094,114.497,651.176,118.538z M548.802,138.07l-23.572-2.694c22.899-21.552,54.554-26.94,69.371-27.614
	L548.802,138.07z M684.852,142.785c2.694,3.368,5.388,7.409,8.082,11.45l-53.207-6.062l30.981-18.185l0,0
	C676.096,133.355,680.137,138.07,684.852,142.785z M496.269,207.442c0-6.062,0.673-12.124,2.021-17.511l208.788,24.92
	c0,5.388,0,11.449-0.673,17.511L496.269,207.442z"/>
</svg>
