<?xml version="1.0" encoding="utf-8"?>
<!-- Generator: Adobe Illustrator 16.0.0, SVG Export Plug-In . SVG Version: 6.00 Build 0)  -->
<!DOCTYPE svg PUBLIC "-//W3C//DTD SVG 1.1//EN" "http://www.w3.org/Graphics/SVG/1.1/DTD/svg11.dtd">
<svg version="1.1" id="Layer_1" xmlns="http://www.w3.org/2000/svg" xmlns:xlink="http://www.w3.org/1999/xlink" viewBox="0 0 1190.549 841.891" enable-background="new 0 0 1190.549 841.891"
	 xml:space="preserve">
<g>
	<path fill="#F69165" d="M880.465,126.284c-9.472-8.419-19.995-12.628-30.519-12.628c-18.942,1.052-32.623,16.838-45.252,31.571
		c-4.209,4.209-7.366,8.419-10.523,11.576c-9.472,8.419-21.047,16.838-36.833,27.362c-22.1,13.681-46.304,24.204-74.718,35.78
		c-12.628,5.262-47.356,13.681-58.932-7.367c-11.576-19.995-17.891-54.723-19.995-65.247v-3.157
		c-1.053-6.314-2.104-11.576-2.104-16.838c0-4.209,1.052-8.419,2.104-11.576c2.104-5.262,4.209-9.471,7.366-14.733
		c6.314-12.628,13.681-26.309,10.524-44.199c-3.157-16.838-12.629-29.466-26.31-35.78c-15.785-7.367-34.728-5.262-50.514,5.262
		c-10.523,7.367-17.89,15.786-19.995,26.309c-3.156,18.942,8.42,35.78,18.943,51.566c3.156,5.262,6.313,9.471,8.419,13.681
		c6.313,11.576,11.575,24.204,16.837,42.094c7.367,25.257,11.576,51.566,13.682,74.718l2.104,17.89
		c1.052,6.314-3.157,11.576-9.472,13.681c-14.732,3.157-30.519,2.105-46.304,1.053c-6.314,0-12.628-1.053-18.942-1.053
		c-19.995,0-38.938-1.052-56.828-3.157c-2.104,0-5.262,0-7.366-1.053c-10.523-1.052-21.047-1.052-28.414-6.314
		c-4.209-3.157-8.419-6.314-12.628-10.523c-10.523-9.471-23.151-19.995-41.042-21.047c-16.838-1.052-31.571,5.262-41.042,17.89
		c-10.523,13.681-12.629,32.623-6.314,50.513c4.21,12.628,11.576,21.048,21.047,25.257c16.838,7.366,36.833,0,53.671-6.314
		c5.262-2.104,10.523-4.209,15.785-5.262c12.629-3.157,26.31-5.262,45.252-6.314c28.413-1.052,125.231-1.052,129.44,10.524
		c1.053,2.104-1.053,5.262-2.104,6.313c-6.314,8.419-62.09,51.566-78.928,68.404c-7.366,7.366-14.732,15.785-23.151,23.151
		l-22.1,21.048c-12.629,12.628-26.31,26.309-43.147,32.623c-10.523,4.209-24.204,5.262-36.832,7.366
		c-24.204,4.21-47.356,7.367-64.194,25.257c-16.838,17.891-23.152,45.252-16.838,72.613c6.314,25.257,23.152,44.199,44.199,51.565
		c7.366,2.104,15.785,4.21,23.152,4.21c22.1,0,44.199-9.472,58.932-26.31c15.785-16.838,17.891-35.78,18.942-53.67
		c1.053-10.524,2.105-19.995,5.262-28.414c7.367-18.942,23.152-35.78,36.833-50.514c8.419-8.419,14.733-15.785,19.995-22.1
		c18.942-21.047,39.989-38.938,61.037-56.827c11.576-9.472,22.1-17.891,33.676-27.361c9.471-7.367,22.1-19.995,34.728-18.942
		c16.838,2.104,24.204,28.413,30.519,42.094c13.681,26.31,25.257,52.618,36.833,78.928c14.732,34.728,27.361,70.508,37.885,106.288
		c0,1.053,1.053,4.21,1.053,4.21c0,1.052-2.105,3.157-4.21,6.314c-1.052,1.052-1.052,2.104-2.104,3.156
		c-14.733,22.1-9.472,53.671,12.628,68.404c8.419,5.262,17.891,8.419,27.361,8.419c15.786,0,32.624-7.367,41.042-19.995
		c14.733-21.048,9.472-53.671-12.628-68.404c-3.157-2.104-6.314-4.209-9.472-5.262c-3.156-2.104-6.313-3.156-8.418-5.262
		c-3.157-3.156-6.314-8.419-9.472-13.681c-18.942-36.832-36.833-75.77-50.514-116.812c-9.471-25.257-16.838-51.566-23.151-77.875
		c-2.105-9.472-10.524-26.31-8.419-35.78c2.104-8.419,11.575-7.367,18.942-8.419h4.209c34.729-3.157,58.933,2.105,76.822,14.733
		c7.367,5.262,15.786,8.419,25.257,7.367c19.995-1.053,36.833-16.838,38.938-37.885c1.053-11.576-3.157-22.1-10.523-30.519
		c-12.628-13.681-35.78-16.838-51.565-6.314c-14.733,9.472-34.729,13.681-54.723,12.628c-8.419-1.052-24.205,4.209-30.519-4.209
		c-14.733-16.837,54.723-42.094,63.142-45.251c2.104-1.052,4.209-2.104,7.366-3.157c10.523-4.209,18.942-8.419,28.414-7.366
		c5.262,0,10.523,1.052,15.785,3.157c13.681,3.157,29.466,6.314,45.252-1.052c15.785-7.366,25.257-18.942,27.361-34.728
		C901.512,156.802,894.146,137.859,880.465,126.284z"/>
</g>
</svg>
