<svg xmlns="http://www.w3.org/2000/svg" xmlns:xlink="http://www.w3.org/1999/xlink" viewBox="0 0 518 545">
    <path fill-rule="evenodd"  stroke="rgb(216, 216, 216)" stroke-width="1px" stroke-linecap="butt" stroke-linejoin="miter" fill="none" d="M258.500,1.285 C400.996,1.285 516.511,116.801 516.511,259.297 C516.511,401.792 400.996,517.307 258.500,517.307 C116.005,517.307 0.489,401.792 0.489,259.297 C0.489,116.801 116.005,1.285 258.500,1.285 Z"/>
    <path fill-rule="evenodd"  stroke="rgb(216, 216, 216)" stroke-width="1px" stroke-linecap="butt" stroke-linejoin="miter" fill="none" d="M258.500,41.277 C378.909,41.277 476.519,138.888 476.519,259.297 C476.519,379.705 378.909,477.316 258.500,477.316 C138.091,477.316 40.481,379.705 40.481,259.297 C40.481,138.888 138.091,41.277 258.500,41.277 Z"/>
    <path fill-rule="evenodd"  stroke="rgb(216, 216, 216)" stroke-width="1px" stroke-linecap="butt" stroke-linejoin="miter" fill="none" d="M258.500,81.284 C356.814,81.284 436.513,160.983 436.513,259.297 C436.513,357.610 356.814,437.309 258.500,437.309 C160.186,437.309 80.487,357.610 80.487,259.297 C80.487,160.983 160.186,81.284 258.500,81.284 Z"/>
    <path fill-rule="evenodd"  stroke="rgb(216, 216, 216)" stroke-width="1px" stroke-linecap="butt" stroke-linejoin="miter" fill="rgb(231, 237, 237)" d="M258.500,121.283 C334.723,121.283 396.513,183.074 396.513,259.297 C396.513,335.519 334.723,397.310 258.500,397.310 C182.277,397.310 120.487,335.519 120.487,259.297 C120.487,183.074 182.277,121.283 258.500,121.283 Z"/>

    <image  x="14.285%" y="2.477%" width="70.85%" height="97.4312%" xlink:href="{{ 'assets/images/spastika/muskules1.png'|theme }}" />

    <g class="marker" id="right-top" data-image="{{ 'assets/images/spastika/muskules1.png'|theme }}">
        <path fill="#656e79" fill-opacity=".22" stroke="none" stroke-width="0" stroke-dasharray="none" stroke-linejoin="round" stroke-linecap="butt" stroke-dashoffset="" fill-rule="nonzero" opacity="1" marker-start="" marker-mid="" marker-end="" d="M460.7945897672591,125.77693745937279 C460.7945897672591,115.4852375461139 469.2186873148273,107.14896061637431 479.61880774392404,107.14896061637431 C490.01892817302075,107.14896061637431 498.44302572058893,115.4852375461139 498.44302572058893,125.77693745937279 C498.44302572058893,136.06863737263168 490.01892817302075,144.4049143023713 479.61880774392404,144.4049143023713 C469.2186873148273,144.4049143023713 460.7945897672591,136.06863737263168 460.7945897672591,125.77693745937279 z" />
        <path fill="#656e79" fill-opacity=".55" stroke="none" stroke-width="0" stroke-dasharray="none" stroke-linejoin="round" stroke-linecap="butt" stroke-dashoffset="" fill-rule="nonzero" opacity="1" marker-start="" marker-mid="" marker-end="" d="M468.7749310323706,125.79405668943102 C468.7749310323706,119.79915026207966 473.56325898912877,114.94327605592511 479.47477498512654,114.94327605592511 C485.3862909811244,114.94327605592511 490.1746189378825,119.79915026207966 490.1746189378825,125.79405668943102 C490.1746189378825,131.78896311678238 485.3862909811244,136.64483732293692 479.47477498512654,136.64483732293692 C473.56325898912877,136.64483732293692 468.7749310323706,131.78896311678238 468.7749310323706,125.79405668943102 z" />
        <path fill="#656e79" fill-opacity="1" stroke="none" stroke-width="0" stroke-dasharray="none" stroke-linejoin="round" stroke-linecap="butt" stroke-dashoffset="" fill-rule="nonzero" opacity="1" marker-start="" marker-mid="" marker-end="" d="M474.58054053783417,125.70054051280022 C474.58054053783417,122.9381095735737 476.81810959860763,120.70054051280022 479.58054053783417,120.70054051280022 C482.3429714770607,120.70054051280022 484.58054053783417,122.9381095735737 484.58054053783417,125.70054051280022 C484.58054053783417,128.46297145202675 482.3429714770607,130.70054051280022 479.58054053783417,130.70054051280022 C476.81810959860763,130.70054051280022 474.58054053783417,128.46297145202675 474.58054053783417,125.70054051280022 z" />
    </g>

    <g class="marker" id="left-top" data-image="{{ 'assets/images/spastika/muskules2.png'|theme }}">
        <path fill="#656e79" fill-opacity=".22" stroke="none" stroke-width="0" stroke-dasharray="none" stroke-linejoin="round" stroke-linecap="butt" stroke-dashoffset="" fill-rule="nonzero" opacity="1" marker-start="" marker-mid="" marker-end="" d="M19.794589767259083,124.7997978970044 C19.794589767259083,114.5080979837455 28.21868731482732,106.17182105400592 38.61880774392404,106.17182105400592 C49.018928173020754,106.17182105400592 57.443025720588935,114.5080979837455 57.443025720588935,124.7997978970044 C57.443025720588935,135.0914978102633 49.018928173020754,143.42777474000292 38.61880774392404,143.42777474000292 C28.21868731482732,143.42777474000292 19.794589767259083,135.0914978102633 19.794589767259083,124.7997978970044 z" />
        <path fill="#656e79" fill-opacity=".55" stroke="none" stroke-width="0" stroke-dasharray="none" stroke-linejoin="round" stroke-linecap="butt" stroke-dashoffset="" fill-rule="nonzero" opacity="1" marker-start="" marker-mid="" marker-end="" d="M27.774931032370603,124.81691712706262 C27.774931032370603,118.82201069971126 32.56325898912877,113.96613649355672 38.474774985126544,113.96613649355672 C44.386290981124375,113.96613649355672 49.174618937882485,118.82201069971126 49.174618937882485,124.81691712706262 C49.174618937882485,130.811823554414 44.386290981124375,135.66769776056853 38.474774985126544,135.66769776056853 C32.56325898912877,135.66769776056853 27.774931032370603,130.811823554414 27.774931032370603,124.81691712706262 z" />
        <path fill="#656e79" fill-opacity="1" stroke="none" stroke-width="0" stroke-dasharray="none" stroke-linejoin="round" stroke-linecap="butt" stroke-dashoffset="" fill-rule="nonzero" opacity="1" marker-start="" marker-mid="" marker-end="" d="M33.58054053783417,124.72340095043182 C33.58054053783417,121.96097001120529 35.818109598607634,119.72340095043182 38.58054053783417,119.72340095043182 C41.3429714770607,119.72340095043182 43.58054053783417,121.96097001120529 43.58054053783417,124.72340095043182 C43.58054053783417,127.48583188965836 41.3429714770607,129.72340095043182 38.58054053783417,129.72340095043182 C35.818109598607634,129.72340095043182 33.58054053783417,127.48583188965836 33.58054053783417,124.72340095043182 z" />
    </g>

    <g class="marker" id="left-bottom" data-image="{{ 'assets/images/spastika/muskules3.png'|theme }}">
        <path fill="#656e79" fill-opacity=".22" stroke="none" stroke-width="0" stroke-dasharray="none" stroke-linejoin="round" stroke-linecap="butt" stroke-dashoffset="" fill-rule="nonzero" opacity="1" marker-start="" marker-mid="" marker-end="" d="M19.19458980302187,392.6969373866551 C19.19458980302187,382.40523747339626 27.618687350590108,374.06896054365666 38.018807779686824,374.06896054365666 C48.41892820878354,374.06896054365666 56.84302575635172,382.40523747339626 56.84302575635172,392.6969373866551 C56.84302575635172,402.988637299914 48.41892820878354,411.32491422965364 38.018807779686824,411.32491422965364 C27.618687350590108,411.32491422965364 19.19458980302187,402.988637299914 19.19458980302187,392.6969373866551 z" />
        <path fill="#656e79" fill-opacity=".55" stroke="none" stroke-width="0" stroke-dasharray="none" stroke-linejoin="round" stroke-linecap="butt" stroke-dashoffset="" fill-rule="nonzero" opacity="1" marker-start="" marker-mid="" marker-end="" d="M27.17493106813339,392.7140566167134 C27.17493106813339,386.719150189362 31.963259024891556,381.8632759832075 37.87477502088933,381.8632759832075 C43.78629101688716,381.8632759832075 48.57461897364527,386.719150189362 48.57461897364527,392.7140566167134 C48.57461897364527,398.7089630440647 43.78629101688716,403.5648372502193 37.87477502088933,403.5648372502193 C31.963259024891556,403.5648372502193 27.17493106813339,398.7089630440647 27.17493106813339,392.7140566167134 z" />
        <path fill="#656e79" fill-opacity="1" stroke="none" stroke-width="0" stroke-dasharray="none" stroke-linejoin="round" stroke-linecap="butt" stroke-dashoffset="" fill-rule="nonzero" opacity="1" marker-start="" marker-mid="" marker-end="" d="M32.980540573596954,392.62054044008255 C32.980540573596954,389.858109500856 35.21810963437042,387.62054044008255 37.980540573596954,387.62054044008255 C40.74297151282349,387.62054044008255 42.980540573596954,389.858109500856 42.980540573596954,392.62054044008255 C42.980540573596954,395.3829713793091 40.74297151282349,397.62054044008255 37.980540573596954,397.62054044008255 C35.21810963437042,397.62054044008255 32.980540573596954,395.3829713793091 32.980540573596954,392.62054044008255 z" />
    </g>

    <g class="marker" id="right-bottom" data-image="{{ 'assets/images/spastika/muskules4.png'|theme }}">
        <path fill="#656e79" fill-opacity=".22" stroke="none" stroke-width="0" stroke-dasharray="none" stroke-linejoin="round" stroke-linecap="butt" stroke-dashoffset="" fill-rule="nonzero" opacity="1" marker-start="" marker-mid="" marker-end="" d="M461.67458982209536,391.4969374581807 C461.67458982209536,381.20523754492183 470.0986873696636,372.86896061518223 480.4988077987603,372.86896061518223 C490.898928227857,372.86896061518223 499.3230257754252,381.20523754492183 499.3230257754252,391.4969374581807 C499.3230257754252,401.78863737143956 490.898928227857,410.1249143011792 480.4988077987603,410.1249143011792 C470.0986873696636,410.1249143011792 461.67458982209536,401.78863737143956 461.67458982209536,391.4969374581807 z" />
        <path fill="#656e79" fill-opacity=".55" stroke="none" stroke-width="0" stroke-dasharray="none" stroke-linejoin="round" stroke-linecap="butt" stroke-dashoffset="" fill-rule="nonzero" opacity="1" marker-start="" marker-mid="" marker-end="" d="M469.6549310872069,391.51405668823895 C469.6549310872069,385.51915026088756 474.44325904396504,380.66327605473305 480.3547750399628,380.66327605473305 C486.26629103596065,380.66327605473305 491.05461899271876,385.51915026088756 491.05461899271876,391.51405668823895 C491.05461899271876,397.5089631155903 486.26629103596065,402.36483732174486 480.3547750399628,402.36483732174486 C474.44325904396504,402.36483732174486 469.6549310872069,397.5089631155903 469.6549310872069,391.51405668823895 z" />
        <path fill="#656e79" fill-opacity="1" stroke="none" stroke-width="0" stroke-dasharray="none" stroke-linejoin="round" stroke-linecap="butt" stroke-dashoffset="" fill-rule="nonzero" opacity="1" marker-start="" marker-mid="" marker-end="" d="M475.46054059267044,391.4205405116081 C475.46054059267044,388.6581095723816 477.6981096534439,386.4205405116081 480.46054059267044,386.4205405116081 C483.222971531897,386.4205405116081 485.46054059267044,388.6581095723816 485.46054059267044,391.4205405116081 C485.46054059267044,394.18297145083466 483.222971531897,396.4205405116081 480.46054059267044,396.4205405116081 C477.6981096534439,396.4205405116081 475.46054059267044,394.18297145083466 475.46054059267044,391.4205405116081 z" />
    </g>

</svg>