<?xml version="1.0" encoding="utf-8"?>
<!-- Generator: Adobe Illustrator 16.0.0, SVG Export Plug-In . SVG Version: 6.00 Build 0)  -->
<!DOCTYPE svg PUBLIC "-//W3C//DTD SVG 1.1//EN" "http://www.w3.org/Graphics/SVG/1.1/DTD/svg11.dtd">
<svg version="1.1" id="Layer_1" xmlns="http://www.w3.org/2000/svg" xmlns:xlink="http://www.w3.org/1999/xlink" viewBox="0 0 1190.549 841.891" width="95%" enable-background="new 0 0 1190.549 841.891"
	 xml:space="preserve">
<path fill="#63DAFD" d="M610.523,666.086c93.1,0,177.494-37.218,239.164-97.564c-7.352-11.693-17.266-21.427-30.375-27.326
	c-43.777-20.206-113.15-43.778-113.15-43.778s-5.387-22.899-11.449-33.676c-5.389-11.45-11.449-5.389-11.449-5.389l1.346-39.737
	c22.9-16.837,22.9-56.575,22.9-56.575s5.389-5.388,11.449-33.675c5.389-28.288-5.389-28.288-5.389-28.288s18.186-63.31,4.715-90.25
	c-10.102-20.879-24.246-37.717-47.145-47.146c0,0-51.861-23.572-74.086-20.205c-47.147,6.735-47.147,40.41-47.147,40.41
	c-22.899,9.43-31.655-1.347-40.41,20.206c-22.9,56.575-0.674,94.965-0.674,94.965s-11.45,0-5.389,28.288
	c5.389,28.287,11.45,33.675,11.45,33.675s0,39.738,22.899,56.575l1.347,39.737c-1.347,0.674-6.735-4.714-12.797,6.735
	c-5.388,11.45-11.449,33.676-11.449,33.676s-69.372,23.573-113.149,44.452c-13.111,5.899-23.023,15.633-30.375,27.326
	C433.029,628.868,517.424,666.086,610.523,666.086z"/>
</svg>
