<?xml version="1.0" encoding="utf-8"?>
<!-- Generator: Adobe Illustrator 16.0.0, SVG Export Plug-In . SVG Version: 6.00 Build 0)  -->
<!DOCTYPE svg PUBLIC "-//W3C//DTD SVG 1.1//EN" "http://www.w3.org/Graphics/SVG/1.1/DTD/svg11.dtd">
<svg version="1.1" id="_x35_42264cb-09e1-484d-b9f2-be62ede79db5"
	 xmlns="http://www.w3.org/2000/svg" xmlns:xlink="http://www.w3.org/1999/xlink" 
	 viewBox="363.561 0 131 119.061" enable-background="new 363.561 0 131 119.061" xml:space="preserve" width="95%">
<title>brain</title>
<g>
	<linearGradient id="SVGID_1_" gradientUnits="userSpaceOnUse" x1="405.4087" y1="39.718" x2="445.5611" y2="74.4292">
		<stop  offset="0" style="stop-color:#7FCDEE"/>
		<stop  offset="1" style="stop-color:#F4A889"/>
	</linearGradient>
	<path fill="url(#SVGID_1_)" d="M492.493,53.938c-0.109-1.314-0.6-3.625-0.776-4.444c0.218-1.271,0.923-6.081-0.261-9.163
		c-1.129-2.931-4.558-5.859-5.76-6.82c-0.388-1.456-1.629-5.655-3.533-8.054c-1.993-2.511-6.398-4.986-7.614-5.642
		c-0.368-0.497-1.164-1.534-1.847-2.208c-0.601-0.59-2.485-2.071-3.742-3.04c-0.574-0.445-1.072-0.969-1.491-1.566
		c-0.815-1.166-2.218-2.92-3.763-3.763c-1.533-0.837-4.153-1.15-6.082-1.235c-0.385-0.018-0.75-0.153-1.054-0.392
		c-1.587-1.248-5.012-3.781-7.8-4.706c-3.398-1.135-10.703-0.734-12.312-0.63c-0.76-0.188-3.008-0.715-4.449-0.733
		C430.666,1.519,427.94,2.253,427,2.53c-1.645-0.207-8.767-0.897-14.643,1.786c-8.101,3.697-12.706,10.381-13.569,11.721
		c-0.958,0.781-5.111,4.222-7.361,7.132c-2.229,2.874-5.238,8.991-5.967,10.498c-1.234,0.925-5.387,4.148-6.876,6.73
		c-1.352,2.343-1.863,6.089-2.024,7.646c-1.499,1.079-5.285,3.958-6.54,6.36c-1.311,2.514-1.304,6.483-1.26,7.81
		c-0.656,1.329-2.71,5.663-2.828,7.959c-0.114,2.227,1,5.075,1.454,6.13c-0.155,1.491-0.555,6.229,0.234,8.737
		c0.902,2.865,3.93,6.051,4.283,6.414c0.234,0.239,5.818,5.881,9.1,7.817c2.689,1.583,6.916,2.804,8.534,3.237
		c0.401,0.373,1.003,1.328,1.319,1.792c4.101,6.05,7.64,11.274,15.717,12.161c2.981,0.334,8.802-0.409,10.075-0.582
		c0.983,0.182,4.66,0.817,8.101,0.817c0.967,0,1.914-0.052,2.777-0.175c3.891-0.558,9.259-3.155,10.548-3.798
		c1.258-0.087,5.958-0.474,9.031-1.551c2.93-1.028,6.652-3.104,11.713-6.534c4.006-2.722,6.119-4.61,9.508-7.718
		c0.611-0.558,1.442-1.183,2.375-1.888c1.629-1.232,3.654-2.765,5.348-4.547c2.299-2.415,3.993-5.196,4.562-6.178
		c0.784-0.48,2.561-1.664,3.458-3.034c0.848-1.299,1.268-3.249,1.43-4.206c0.993-0.956,3.488-3.617,4.691-7.24
		C491.593,65.616,492.651,55.718,492.493,53.938z M481.184,35.466c-1.288-1.067-2.82-1.691-4.32-1.76
		c-0.949-0.058-1.854,0.145-2.662,0.519c-0.062,0.028-0.131,0.021-0.184-0.018c-0.055-0.039-0.082-0.104-0.074-0.169
		c0.398-3.305,0.258-6.819-0.416-10.004c-0.015-0.068,0.009-0.14,0.06-0.189c0.051-0.048,0.122-0.067,0.19-0.051
		c1.562,0.398,2.818,1.366,3.623,2.171c1.203,1.208,2.148,2.715,3.012,4.156c0.408,0.682,0.803,1.355,1.095,2.053
		c0.892,2.147,1.101,6.82,0.919,8.584c-0.008,0.078-0.074,0.136-0.15,0.133c-0.039-0.001-0.076-0.001-0.113,0
		c-0.838,0.04-1.897,0.173-2.67,0.868c-1.105,0.996-1.46,3.363-1.544,5.27c-0.004,0.094-0.065,0.177-0.154,0.209
		c-0.088,0.033-0.189,0.008-0.253-0.062c-0.991-1.086-2.084-2.051-3.306-2.786c-0.308-0.187-0.712-0.087-0.891,0.223
		c-0.188,0.309-0.087,0.707,0.218,0.891c3.069,1.846,5.494,5.032,6.656,8.742c1.072,3.438,1.12,7.311,0.133,11.204
		c-0.4,1.588-0.863,2.704-1.508,3.611c-0.345,0.483-1.568,1.7-2.307,1.888c-0.097,0.024-0.201-0.001-0.273-0.066
		c-0.074-0.067-0.111-0.167-0.097-0.266c0.185-1.32,0.265-2.657,0.134-3.997c-0.408-4.101-2.201-5.791-4.919-7.999
		c-0.13-0.106-0.181-0.282-0.124-0.438c0.246-0.694,0.445-1.418,0.553-2.19c0.296-2.091,0.115-4.356-0.562-7.137
		c-0.167-0.683-0.369-1.371-0.648-2.022c-0.653-2.973,0.552-6.166,1.703-8.637c0.327-0.693,0.657-1.359,1.118-1.872
		c0.797-0.887,1.994-1.382,3.387-1.322c1.215,0.058,2.475,0.577,3.553,1.465c0.275,0.23,0.686,0.192,0.914-0.087
		C481.501,36.104,481.464,35.694,481.184,35.466z M428.729,5.365c0.52-0.287,1.076-0.511,1.649-0.672
		c0.03-0.006,0.061-0.013,0.092-0.019c0.493-0.131,1-0.171,1.508-0.208c0.902,0.009,2.462,0.336,3.417,0.56
		c0.404,0.169,0.824,0.305,1.188,0.551c0.196,0.132,0.453,0.144,0.662,0.041c0.49-0.255,1.021-0.419,1.562-0.531
		c0.211-0.006,0.428-0.012,0.65-0.018c0.106-0.003,0.202,0.067,0.23,0.17c0.029,0.103-0.017,0.212-0.108,0.265
		c-0.965,0.559-1.661,1.273-2.018,2.113c-0.044,0.099-0.146,0.157-0.255,0.138c-0.627-0.107-1.293-0.177-2.002-0.184
		c-0.982-0.009-2.267,0.02-3.492,0.354c-0.247,0.067-0.491,0.155-0.732,0.256c-0.134,0.056-0.29-0.001-0.354-0.132
		c-0.415-0.824-1.346-1.753-2.029-2.302c-0.062-0.048-0.094-0.125-0.087-0.201C428.616,5.472,428.661,5.403,428.729,5.365z
		 M404.861,13.233c0.343-0.351,0.69-0.703,1.081-1.068c0.308-0.272,0.614-0.521,0.902-0.737c1.981-1.476,4.298-2.542,6.542-3.574
		c0.841-0.388,1.855-0.812,2.924-1.201c0.099-0.036,0.209-0.001,0.271,0.084c0.06,0.086,0.056,0.202-0.011,0.283
		c-0.217,0.263-0.419,0.538-0.597,0.831c-0.188,0.308-0.088,0.708,0.219,0.894c0.301,0.184,0.705,0.084,0.892-0.221
		c0.695-1.149,1.749-2.084,2.963-2.698c0.725-0.366,1.509-0.56,2.322-0.578c0.886-0.019,1.685-0.004,2.357,0.03
		c0.353,0.018,0.697,0.084,1.031,0.2c2,0.689,2.718,1.718,3.817,3.191c0.044,0.059,0.062,0.134,0.052,0.208
		c-0.011,0.074-0.051,0.14-0.111,0.183c-0.407,0.296-0.793,0.638-1.158,1.009c-0.075,0.077-0.193,0.091-0.285,0.036
		c-2.854-1.714-6.379-1.626-8.788-1.395c-1.25,0.12-2.565,0.312-3.732,0.913c-0.829,0.428-1.549,1.053-2.127,1.555
		c-0.328,0.286-0.638,0.59-0.953,0.89c-0.221,0.212-0.495,0.355-0.795,0.418c-0.011,0.003-0.023,0.005-0.033,0.009
		c-2.369,0.783-5.536,1.938-7.707,2.81c-0.141,0.056-0.279,0.115-0.417,0.174c-0.051,0.021-0.11,0.009-0.147-0.032
		c-0.038-0.042-0.044-0.102-0.017-0.15C403.791,14.524,404.315,13.837,404.861,13.233z M393.074,25.986
		c1.533-2.213,3.335-4,5.273-5.301c0.044-0.03,0.102-0.03,0.146,0.001s0.064,0.084,0.052,0.137c-0.075,0.32-0.132,0.643-0.147,0.97
		c-0.079,1.816,0.727,3.536,2.035,4.662c0.031,0.027,0.048,0.066,0.044,0.106c-0.004,0.04-0.024,0.078-0.058,0.101
		c-0.19,0.126-0.365,0.263-0.525,0.412c-0.036,0.034-0.089,0.044-0.135,0.025c-1.497-0.583-3.341-0.334-4.963,0.702
		c-1.182,0.755-2.151,1.84-3.046,2.978c-0.599,0.762-0.977,1.27-1.539,2.059l-1.229,1.725c-0.015,0.02-0.038,0.032-0.063,0.032
		H388.8c-0.034,0-0.064-0.016-0.082-0.042c-0.019-0.027-0.021-0.062-0.009-0.093C389.638,32.17,391.183,28.715,393.074,25.986z
		 M380.06,44.82c0.72-1.836,1.686-3.629,2.871-5.138c1.13-1.128,2.463-2.251,3.491-3.061c0.377-0.193,0.755-0.357,1.133-0.472
		c0.052-0.017,0.11,0.002,0.142,0.046c0.033,0.044,0.034,0.104,0.003,0.15c-1.16,1.681-2.285,3.386-3.363,5.115
		c-0.879,1.415-1.666,2.82-1.661,4.439c0.001,0.457,0.118,0.967,0.28,1.492c0.012,0.038,0.005,0.078-0.016,0.111
		c-0.023,0.032-0.058,0.053-0.097,0.056c-1.089,0.087-2.147,0.356-3.181,0.757c-0.042,0.016-0.09,0.009-0.126-0.018
		c-0.036-0.028-0.055-0.072-0.05-0.116C379.583,47.3,379.768,46.052,380.06,44.82z M371.959,57.948
		c0.468-1.257,1.112-2.501,2.01-3.623c0.63-0.787,1.281-1.453,1.942-2.071c0.413-0.345,0.816-0.671,1.202-0.97
		c1.886-1.439,3.874-2.296,5.963-2.439c0.25-0.017,0.484,0.121,0.591,0.347c0.177,0.378,0.365,0.753,0.56,1.122
		c0.095,0.179,0.094,0.394-0.003,0.572c-1.055,1.953-1.963,3.86-2.515,5.829c-0.022,0.085-0.099,0.144-0.186,0.147
		c-2.433,0.09-5.243,2.199-6.298,3.425c-1.334,1.555-1.307,0.77-3.422,2.209c-0.02,0.013-0.047,0.016-0.07,0.006
		c-0.022-0.012-0.037-0.035-0.039-0.058C371.648,61.603,371.657,59.677,371.959,57.948z M370.504,65.395
		c0.866-1.073,1.969-1.956,3.223-2.513c0.064-0.028,0.141-0.019,0.196,0.026c0.055,0.044,0.082,0.114,0.068,0.185
		c-0.321,1.689-0.021,3.499,1.032,4.869c0.016,0.021,0.048,0.013,0.065,0.032c-0.063,0.161-0.142,0.332-0.2,0.485
		c-1.082,2.922-1.703,6.024-1.877,9.145c-0.006,0.081-0.051,0.153-0.122,0.189c-0.071,0.037-0.157,0.033-0.225-0.01
		c-0.968-0.605-1.8-1.423-2.461-2.361c-0.406-0.888-1.432-3.511-1.351-5.124C368.905,69.298,369.692,67.23,370.504,65.395z
		 M376.802,90.969c0.002,0.085-0.041,0.163-0.116,0.207c-0.074,0.041-0.164,0.039-0.235-0.008c-1.33-0.853-2.523-2.037-3.496-3.521
		c-1.131-1.725-1.98-3.814-2.588-6.389c-0.122-0.519-0.221-1.09-0.268-1.669c0.02-0.575,0.048-1.135,0.083-1.642
		c0.016-0.085,0.075-0.151,0.154-0.177c0.079-0.026,0.165-0.008,0.225,0.051c0.684,0.638,1.449,1.183,2.291,1.589
		c0.079,0.037,0.129,0.117,0.129,0.203c0.001,0.738-0.001,1.477,0.056,2.211c0.223,2.826,1.078,6.465,3.687,8.578
		c0.058,0.047,0.089,0.117,0.083,0.191C376.799,90.717,376.796,90.842,376.802,90.969z M389.562,98.798
		c0,0.04-0.016,0.078-0.045,0.105c-0.029,0.027-0.068,0.042-0.108,0.039c-1-0.068-1.99-0.366-2.87-0.861
		c-0.079-0.045-0.119-0.135-0.102-0.223c0.018-0.089,0.09-0.155,0.18-0.167c0.972-0.126,1.898-0.372,2.742-0.864
		c0.046-0.026,0.101-0.026,0.146,0c0.046,0.027,0.073,0.075,0.073,0.127L389.562,98.798z M389.59,94.986
		c0,0.012-0.005,0.023-0.013,0.033c-0.203,0.212-0.425,0.405-0.669,0.566c-1.264,0.835-2.92,0.927-4.649,0.952
		c-0.103,0.003-0.205,0.004-0.306,0.006c-1.229,0.003-2.417-0.405-3.387-1.161c-0.134-0.104-0.269-0.213-0.407-0.324
		c-0.783-0.913-1.576-2.207-1.909-3.309c-0.025-0.084,0-0.175,0.065-0.233c0.065-0.06,0.158-0.075,0.24-0.042
		c1.55,0.642,3.25,0.817,4.776,0.898c0.378,0.019,0.762,0.036,1.146,0.036c0.863,0,1.735-0.084,2.568-0.389
		c0.818-0.302,1.6-0.816,2.463-1.621c0.02-0.021,0.038-0.04,0.053-0.062c0.008-0.012,0.025-0.017,0.038-0.011
		s0.022,0.018,0.022,0.032L389.59,94.986z M389.653,85.793l-0.009,1.313c-0.006,0.889-0.377,1.734-1.026,2.341
		c-0.73,0.683-1.374,1.111-2.024,1.353c-0.973,0.359-2.063,0.329-3.193,0.274c-1.711-0.092-3.666-0.265-5.203-1.184
		c-2.793-1.674-3.645-5.367-3.866-8.165c-0.339-4.312,0.274-8.733,1.777-12.792c0.273-0.735,0.619-1.586,1.118-2.316
		c1.243-1.815,3.517-2.843,5.699-2.655c0.108,0.01,0.206,0.069,0.264,0.161c0.057,0.092,0.068,0.206,0.029,0.308
		c-0.233,0.606-0.432,1.236-0.576,1.893c-0.543,2.469-0.476,5.241,0.197,8.235c0.29,1.299,0.838,3.036,2.102,4.189
		c0.069,0.064,0.098,0.163,0.072,0.255c-0.027,0.092-0.102,0.159-0.196,0.177c-0.246,0.045-0.489,0.102-0.724,0.192
		c-1.856,0.718-3.269,2.529-3.51,4.506c-0.045,0.355,0.209,0.681,0.565,0.726c0.025,0.001,0.054,0.004,0.079,0.004
		c0.324,0,0.603-0.241,0.645-0.57c0.188-1.515,1.27-2.901,2.691-3.451c0.991-0.388,2.098-0.403,3.257-0.382
		c0.475,0.006,0.952,0.021,1.429,0.039c0.165,0.006,0.32,0.08,0.43,0.203c0.11,0.123,0.164,0.287,0.15,0.451
		C389.693,82.542,389.663,84.18,389.653,85.793z M390.659,76.015c-0.161,0.545-0.286,1.094-0.393,1.642
		c-0.066,0.344-0.309,0.627-0.638,0.747c-0.038,0.013-0.078,0.027-0.119,0.04c-1.162,0.373-2.378,0.276-3.234-0.259
		c-1.346-0.829-1.882-2.63-2.167-3.912c-0.631-2.81-0.699-5.391-0.197-7.673c0.587-2.646,1.956-4.891,3.853-6.319
		c0.285-0.215,0.346-0.621,0.13-0.91c-0.218-0.288-0.626-0.346-0.911-0.129c-1.156,0.868-2.108,2.018-2.864,3.336
		c-0.083,0.146-0.259,0.21-0.417,0.153c-1.76-0.631-5.628,0.344-7.548,3.149c-0.123,0.181-0.217,0.369-0.316,0.557
		c-0.016,0.03-0.047,0.05-0.082,0.049c-0.034,0-0.066-0.021-0.081-0.051c-0.854-1.685-0.704-3.858,0.535-5.304
		c0.854-0.991,3.131-2.63,4.94-2.931c0.066-0.011,0.132,0.011,0.178,0.06c0.046,0.048,0.065,0.115,0.052,0.181
		c-0.082,0.392-0.173,0.781-0.209,1.187c-0.032,0.355,0.235,0.671,0.59,0.704c0.019,0.001,0.038,0.001,0.058,0.001
		c0.334,0,0.619-0.256,0.647-0.594c0.287-3.283,1.786-6.309,3.632-9.575c0.041-0.074,0.126-0.114,0.209-0.099
		c0.084,0.013,0.15,0.079,0.166,0.162c0.246,1.358,0.919,2.58,2.633,2.914c0.076,0.015,0.138,0.074,0.157,0.149
		c0.019,0.077-0.008,0.157-0.068,0.205c-0.907,0.733-1.863,1.635-2.869,2.771c-0.238,0.268-0.215,0.679,0.054,0.917
		c0.123,0.111,0.279,0.165,0.431,0.165c0.179,0,0.359-0.075,0.485-0.218c2.13-2.402,5.451-5.268,8.671-5.124
		c0.343-0.008,0.664-0.264,0.68-0.622c0.014-0.359-0.264-0.662-0.622-0.675c-2.09-0.134-4.375,1.351-6.238,1.23
		c-1.665-0.106-2.201-1.045-2.143-3.93c0.006-0.336,0.102-0.661,0.274-0.95c2.229-3.71,4.54-6.94,7.807-9.15
		c0.295-0.2,0.375-0.605,0.175-0.902c-0.204-0.301-0.61-0.377-0.905-0.174c-4.183,2.829-6.83,7.087-9.614,11.954
		c-0.045,0.08-0.09,0.159-0.133,0.239c-0.022,0.042-0.068,0.068-0.116,0.067c-0.048-0.001-0.092-0.028-0.114-0.072
		c-0.49-0.981-1.041-2.257-1.044-3.126c-0.006-1.274,0.689-2.5,1.464-3.748c2.146-3.444,4.473-6.817,6.913-10.024
		c0.958-1.258,1.92-2.451,3.139-3.231c0.891-0.568,2.192-0.976,3.403-0.68c0.038,0.01,0.069,0.035,0.085,0.07
		c0.018,0.035,0.018,0.075,0.001,0.11c-0.239,0.526-0.414,1.064-0.532,1.539c-0.318,1.301-0.61,2.58-0.683,3.915
		c-0.161,2.8,0.412,5.136,1.75,7.137c-0.725,1.718-1.154,3.533-1.473,5.261c-0.067,0.354,0.165,0.691,0.52,0.758
		c0.037,0.007,0.079,0.011,0.118,0.011c0.308,0,0.58-0.218,0.638-0.532c0.33-1.777,0.743-3.656,1.517-5.358
		c0.505-1.108,1.165-2.139,1.956-3.066c0.232-0.273,0.2-0.684-0.072-0.917c-0.276-0.232-0.682-0.2-0.917,0.072
		c-0.617,0.723-1.13,1.521-1.591,2.349c-0.885-1.614-1.274-3.42-1.149-5.643c0.069-1.224,0.349-2.439,0.65-3.678
		c0.158-0.646,0.343-1.377,0.736-1.907c0.58-0.782,1.68-1.247,3.359-1.421c0.896-0.091,2.245-0.006,3.071,0.055
		c0.417,0.031,0.808,0.204,1.113,0.49c0.783,0.733,1.854,1.016,2.964,1.245c1,0.208,2.218,0.46,3.447,0.46
		c0.133,0,0.266-0.003,0.399-0.009c1.542-0.071,2.897-0.606,3.815-1.507c0.257-0.25,0.26-0.662,0.009-0.919
		c-0.248-0.256-0.663-0.26-0.917-0.008c-0.691,0.674-1.742,1.078-2.968,1.135c-1.123,0.041-2.206-0.153-3.523-0.425
		c-1.053-0.219-2.048-0.473-2.568-1.17c-0.508-0.688-0.476-1.709-0.394-2.786c0.028-0.359-0.239-0.671-0.597-0.698
		c-0.422-0.051-0.672,0.241-0.698,0.596c-0.047,0.603-0.084,1.387,0.058,2.165c0.008,0.04-0.005,0.082-0.033,0.111
		s-0.069,0.045-0.108,0.04c-1.064-0.118-1.986-0.197-3.205-0.07c-0.631,0.066-1.178,0.185-1.685,0.33
		c-0.034,0.01-0.07,0.006-0.101-0.012c-1.367-0.778-2.269-2.423-2.193-4.092c0.077-1.678,1.063-3.33,2.578-4.312
		c0.647-0.417,1.38-0.725,2.143-1.029c1.316-0.528,3-1.159,4.647-1.748c0.082-0.029,0.174,0.004,0.218,0.078
		c0.045,0.075,0.032,0.172-0.033,0.23c-0.738,0.677-1.485,1.346-2.186,2.047c-0.254,0.253-0.254,0.666,0,0.92
		c0.127,0.127,0.295,0.191,0.459,0.191s0.333-0.063,0.46-0.191c2.016-2.016,4.132-3.994,6.291-5.879
		c0.552-0.481,1.178-1.026,1.87-1.38c0.914-0.473,1.965-0.65,3.257-0.774c2.166-0.205,5.257-0.28,7.743,1.093
		c0.058,0.032,0.099,0.087,0.113,0.15c0.015,0.064,0.003,0.131-0.034,0.187c-0.941,1.361-1.423,2.769-1.52,3.652
		c-0.012,0.11-0.082,0.207-0.182,0.255c-0.294,0.138-0.583,0.288-0.871,0.453c-0.171,0.098-0.388,0.046-0.495-0.12
		c-1.714-2.638-5.51-3.619-6.881-2.958c-0.327,0.152-0.464,0.54-0.311,0.864c0.152,0.322,0.536,0.466,0.863,0.31
		c0.755-0.359,3.898,0.375,5.266,2.507c0.104,0.164,0.065,0.379-0.089,0.495c-1.274,0.956-2.452,2.057-3.464,3.049
		c-0.139,0.137-0.359,0.143-0.504,0.014c-1.202-1.064-3.714-1.927-4.294-2.002c-0.105-0.014-0.197-0.071-0.258-0.158
		c-0.059-0.087-0.079-0.194-0.054-0.297c0.027-0.11,0.052-0.22,0.077-0.333c0.223-1.063,0.432-2.068,1.118-2.681
		c0.267-0.24,0.29-0.65,0.051-0.917c-0.244-0.272-0.657-0.29-0.921-0.051c-1,0.896-1.267,2.162-1.52,3.384
		c-0.043,0.207-0.088,0.41-0.138,0.613c-0.056,0.228-0.249,0.394-0.482,0.417c-1.584,0.151-3.268,0.671-5.035,1.563
		c-0.93,0.466-1.889,1.029-2.928,1.722c-0.302,0.198-0.38,0.603-0.181,0.902c0.197,0.296,0.603,0.377,0.898,0.181
		c0.997-0.662,1.911-1.2,2.793-1.644c2.35-1.183,4.495-1.656,6.415-1.412c2.048,0.265,3.586,1.256,4.336,2.662
		c0.019,0.035,0.02,0.076,0.005,0.112c-0.016,0.036-0.047,0.063-0.084,0.074c-1.093,0.303-2.07,0.886-2.935,1.424
		c-0.304,0.19-0.399,0.589-0.209,0.895c0.124,0.198,0.337,0.308,0.553,0.308c0.118,0,0.239-0.032,0.343-0.098
		c0.904-0.562,1.838-1.143,2.847-1.362c0.349-0.075,0.701-0.106,1.053-0.126c1.571-0.08,3.148,0.103,4.669,0.558
		c0.355,0.104,0.708-0.095,0.81-0.438c0.105-0.344-0.092-0.707-0.434-0.809c-1.664-0.493-3.396-0.704-5.113-0.609
		c-0.054,0.003-0.104-0.027-0.125-0.076c-0.035-0.079-0.075-0.157-0.117-0.232c-0.079-0.145-0.053-0.323,0.065-0.439
		c2.088-2.068,4.994-4.791,7.669-5.178c0.305-0.043,0.612-0.067,0.924-0.092c0.54-0.042,1.097-0.085,1.657-0.23
		c1.173-0.303,2.046-1.04,2.339-1.968c0.104-0.343-0.086-0.707-0.429-0.813c-0.346-0.115-0.709,0.085-0.816,0.428
		c-0.181,0.586-0.852,0.949-1.419,1.095c-0.451,0.115-0.931,0.154-1.435,0.193c-0.339,0.027-0.675,0.054-1.009,0.104
		c-0.116,0.016-0.23,0.047-0.345,0.078c-0.056,0.016-0.117,0-0.157-0.042c-0.042-0.042-0.057-0.102-0.041-0.158
		c0.705-2.439,2.775-4.719,4.973-5.314c1.069-0.287,2.184-0.32,3.14-0.307c2.92,0.028,5.096,1.114,6.07,2.036
		c0.268,0.248,0.676,0.236,0.922-0.026c0.248-0.26,0.234-0.673-0.026-0.919c-0.683-0.645-1.81-1.29-3.23-1.753
		c-0.067-0.021-0.12-0.072-0.146-0.138c-0.025-0.065-0.02-0.138,0.015-0.2c0.601-1.056,1.908-1.638,2.722-1.892
		c1.513-0.475,3.277-0.554,4.646-0.296c0.066,0.012,0.116,0.064,0.129,0.131c0.012,0.067-0.019,0.134-0.077,0.168
		c-0.359,0.213-0.711,0.46-1.047,0.759c-0.896,0.803-1.584,1.766-2.197,2.685c-0.199,0.298-0.119,0.701,0.18,0.901
		c0.111,0.073,0.238,0.11,0.361,0.11c0.209,0,0.416-0.102,0.539-0.291c0.568-0.849,1.2-1.731,1.986-2.438
		c0.569-0.508,1.477-1.144,2.578-1.285c0.083-0.011,0.17-0.015,0.258-0.014c0.362,0.001,0.714,0.092,1.03,0.27
		c0.869,0.484,1.724,1.04,2.507,1.587c0.121,0.084,0.185,0.233,0.16,0.379c-0.023,0.146-0.13,0.267-0.273,0.308
		c-2.541,0.744-4.972,1.862-6.998,3.36c-0.76,0.56-1.48,1.17-2.197,1.778c-0.174,0.148-0.348,0.294-0.52,0.437
		c-0.346,0.287-0.796,0.419-1.241,0.363c-0.128-0.016-0.258-0.03-0.388-0.038c-0.56-0.035-1.118-0.031-1.664-0.018
		c-0.605,0.007-1.209,0.019-1.816-0.036c-0.847-0.078-2.002-0.338-2.707-1.14c-0.24-0.272-0.65-0.299-0.917-0.058
		c-0.269,0.236-0.294,0.647-0.06,0.917c0.784,0.887,2.016,1.433,3.564,1.574c0.65,0.062,1.295,0.05,1.955,0.042
		c0.236-0.005,0.473-0.004,0.709,0c0.062,0.001,0.117,0.043,0.134,0.104c0.018,0.06-0.009,0.125-0.062,0.159
		c-0.771,0.488-1.421,0.816-2.32,1.277c-1.494,0.767-3.032,1.559-4.365,2.743c-0.221,0.196-0.509,0.3-0.804,0.291
		c-1.438-0.044-2.862-0.464-3.779-1.44c-0.243-0.262-0.661-0.279-0.917-0.031c-0.264,0.247-0.276,0.657-0.028,0.92
		c0.89,0.95,2.133,1.504,3.455,1.746c0.116,0.022,0.213,0.104,0.25,0.215c0.039,0.111,0.017,0.236-0.061,0.324
		c-0.263,0.303-0.533,0.607-0.792,0.854c-1.11,1.059-2.593,1.745-4.164,2.472c-0.174,0.08-0.343,0.171-0.518,0.251
		c-1.253,0.077-2.801-0.278-3.477-1.07c-0.229-0.276-0.638-0.307-0.917-0.075c-0.273,0.231-0.304,0.643-0.072,0.915
		c0.26,0.307,1.257,0.902,2.033,1.103c0.065,0.018,0.115,0.071,0.127,0.137c0.012,0.067-0.016,0.134-0.072,0.173
		c-0.307,0.213-0.651,0.441-1.209,0.831c-1.281,0.886-2.44,1.926-3.486,3.079c-2.819,1.207-6.078,1.22-9.028,1.167
		c-2.562-0.041-4.821-0.173-6.542-1.39c-0.295-0.209-0.698-0.14-0.905,0.154c-0.206,0.293-0.14,0.698,0.156,0.906
		c1.249,0.887,2.706,1.265,4.149,1.441c0.077,0.01,0.137,0.068,0.146,0.145c0.011,0.077-0.031,0.148-0.102,0.178
		c-1.163,0.484-2.271,1.089-3.245,1.883c-0.279,0.226-0.32,0.636-0.095,0.914c0.229,0.278,0.635,0.317,0.914,0.092
		c2.67-2.175,6.292-3.179,9.694-2.688c0.531,0.078,1.127,0.2,1.529,0.535c0.167,0.138,0.286,0.313,0.374,0.503
		c0.047,0.102,0.042,0.22-0.016,0.318c-0.009,0.016-0.019,0.03-0.028,0.047c-0.438,0.768-0.87,1.54-1.416,2.238
		c-0.567,0.731-1.269,1.389-2.015,2.085l-0.447,0.431c-0.189,0.181-0.418,0.306-0.671,0.37c-1.502,0.375-3.162,0.038-4.376-0.938
		c-0.279-0.219-0.687-0.178-0.914,0.102c-0.225,0.279-0.178,0.689,0.102,0.915c0.963,0.772,2.19,1.271,3.564,1.357
		c0.091,0.005,0.17,0.063,0.204,0.149c0.033,0.084,0.015,0.181-0.048,0.248c-1.166,1.234-2.292,2.505-3.327,3.84
		c-1.193,1.539-2.279,3.145-3.315,4.778c0.049-1.197,0.054-2.382,0.04-3.505c-0.007-0.355-0.295-0.641-0.652-0.641h-0.009
		c-0.359,0.006-0.645,0.301-0.641,0.661c0.027,1.938,0.026,4.041-0.296,6.074c-1.097,1.88-2.144,3.782-3.14,5.696
		c-0.234,0.452-0.622,0.807-1.092,1c-0.484,0.198-0.97,0.322-1.423,0.329c-0.727-0.021-1.359-0.28-1.733-0.712
		c-0.367-0.424-0.501-1.213-0.511-1.882c-0.007-0.417,0.105-0.823,0.326-1.177c0.219-0.35,0.282-0.696-0.17-0.946
		c-0.911-0.518-1.639,1.127-2.257,2.117c-1.385,2.222-2.602,5.306-3.009,8.397c-0.048,0.356,0.204,0.683,0.559,0.729
		c0.028,0.003,0.058,0.008,0.086,0.008c0.32,0,0.6-0.239,0.645-0.566c0.216-1.635,0.662-3.242,1.28-4.777
		c0.028-0.071,0.085-0.129,0.157-0.157c0.071-0.028,0.151-0.026,0.223,0.004c1.088,0.491,2.02,1.326,2.569,2.382
		c0.288,0.554,0.462,1.158,0.533,1.777c0.063,0.549-0.035,1.095-0.282,1.588l-1.501,2.993
		C392.205,72.089,391.265,73.961,390.659,76.015z M415.518,45.319c0.048,0.264-0.098,0.524-0.349,0.621
		c-4.626,1.781-7.432,5.955-9.151,8.515l-0.276,0.412c-1.83,2.709-2.644,6.498-3.009,9.371c-0.033,0.258-0.173,0.491-0.385,0.641
		c-1.561,1.1-3.021,2.402-4.37,3.867c-0.07,0.077-0.185,0.089-0.271,0.03s-0.114-0.172-0.068-0.264l1.671-3.332
		c2.927-5.837,5.957-11.874,9.989-17.078c1.555-2.008,3.285-3.919,5.132-5.675l0.434-0.409c0.239-0.222,0.479-0.449,0.717-0.681
		c0.046-0.044,0.114-0.052,0.168-0.02c0.053,0.032,0.08,0.097,0.062,0.157C415.634,42.134,415.329,44.3,415.518,45.319z
		 M397.35,61.858c-0.313,0.621-0.633,1.243-0.942,1.859l-0.276,0.551c-0.023,0.045-0.069,0.069-0.117,0.066
		c-0.049-0.004-0.091-0.036-0.106-0.084c-0.109-0.319-0.234-0.633-0.392-0.932c-0.683-1.312-1.841-2.349-3.188-2.958
		c-0.071-0.032-0.125-0.092-0.15-0.164s-0.02-0.153,0.014-0.221c0.13-0.259,0.261-0.518,0.402-0.771
		c0.024-0.042,0.072-0.066,0.122-0.06c0.049,0.007,0.088,0.043,0.1,0.092c0.133,0.538,0.353,1.037,0.669,1.402
		c0.615,0.705,1.59,1.129,2.682,1.158c0.34,0.01,0.693-0.037,1.049-0.111c0.046-0.009,0.093,0.008,0.121,0.044
		C397.366,61.767,397.372,61.817,397.35,61.858z M417.29,112.558c0.054,0.084,0.122,0.161,0.194,0.236
		c0.043,0.044,0.052,0.109,0.024,0.163c-0.028,0.054-0.089,0.083-0.149,0.072c-0.236-0.041-0.382-0.07-0.39-0.071
		c-0.092-0.019-0.188-0.027-0.282-0.027c-0.067,0-0.138,0.005-0.204,0.015c-0.067,0.01-6.656,0.932-9.593,0.604
		c-2.515-0.275-4.48-1.066-6.176-2.235c-0.059-0.04-0.077-0.118-0.044-0.181c0.032-0.063,0.107-0.091,0.174-0.067
		c0.45,0.171,0.91,0.337,1.38,0.502c0.073,0.025,0.143,0.037,0.216,0.037c0.27,0,0.52-0.168,0.612-0.434
		c0.121-0.34-0.058-0.709-0.396-0.829c-2.208-0.776-4.186-1.581-5.792-2.711c-1.155-1.43-2.279-3.047-3.493-4.838
		c-0.066-0.202-0.162-0.428-0.218-0.613c-0.153-0.495-0.237-1.011-0.354-1.518l0.082-11.825c0.001-0.105,0.07-0.199,0.17-0.232
		c0.1-0.034,0.211,0,0.274,0.084c0.481,0.633,1.153,1.399,1.721,1.74c0.178,0.108,0.28,0.31,0.259,0.516
		c-0.005,0.05-0.008,0.099-0.008,0.148c0.002,2.008,0.469,3.821,1.345,5.246c1.054,1.713,2.752,2.878,4.545,3.121
		c0.248,0.033,0.492,0.05,0.736,0.05c0.559,0,1.101-0.095,1.621-0.252c0.076-0.023,0.159-0.003,0.216,0.054
		c0.058,0.057,0.079,0.139,0.056,0.215c-0.06,0.211-0.111,0.428-0.134,0.653c-0.02,0.189-0.012,0.371-0.005,0.555
		c0.002,0.062-0.021,0.121-0.064,0.164c-1.795,1.771-4.289,2.447-4.923,2.308c-0.346-0.073-0.696,0.15-0.768,0.502
		c-0.076,0.352,0.148,0.697,0.501,0.772c1.544,0.316,4.045-0.987,5.285-1.973c0.054-0.043,0.126-0.058,0.192-0.04
		c0.067,0.018,0.121,0.065,0.146,0.13c0.516,1.301,1.505,2.394,2.617,3.152c0.055,0.038,0.09,0.1,0.094,0.166
		c0.004,0.067-0.023,0.133-0.074,0.177c-0.338,0.298-0.708,0.604-0.88,0.707c-0.829,0.502-1.787,1.023-2.654,0.833
		c-0.346-0.072-0.696,0.15-0.768,0.502c-0.077,0.353,0.149,0.697,0.501,0.771c0.215,0.044,0.429,0.067,0.641,0.067
		c1.035,0,2.025-0.5,2.951-1.06c0.384-0.229,1.133-0.883,1.555-1.3c0.062-0.062,0.155-0.08,0.236-0.047
		c1.95,0.796,4.083,1.006,6.002,1.159l3.303,0.27c0.027,0.003,0.051,0.019,0.063,0.042c0.018,0.026,0.017,0.055,0.001,0.077
		C416.787,109.417,416.381,111.146,417.29,112.558z M414.379,106.433c-2.069-0.168-4.414-0.357-6.342-1.356
		c-1.622-0.845-3.269-2.692-3.057-4.76c0.084-0.832,0.462-1.601,0.978-2.363c0,0,1.971-2.574,2.692-2.986
		c0.721-0.413,2.083-0.43,2.083-0.43c1.368-0.08,2.755-0.118,4.127-0.079c1.143,0.021,2.355,0.084,3.476,0.396
		c2.377,0.664,4.231,2.353,6.189,4.14c1.016,0.928,2.067,1.887,3.204,2.696c0.289,0.206,0.698,0.139,0.907-0.153
		c0.206-0.293,0.14-0.698-0.153-0.907c-1.072-0.765-2.095-1.695-3.083-2.595c-0.829-0.754-1.67-1.513-2.563-2.2
		c-0.509-0.394-0.917-0.886-1.21-1.459c-1.833-3.584-2.715-7.496-2.58-11.219c0.004-0.021,0.024-0.033,0.027-0.055
		c0.034-0.383,0.053-0.774,0.046-1.165c0.071-0.721,0.172-1.435,0.325-2.134c0.158-0.735,0.409-1.68,0.923-2.453
		c0.251-0.373,0.566-0.718,0.899-1.08c0.214-0.233,0.423-0.48,0.627-0.731c0.441,0.573,1.044,0.909,1.627,1.16
		c1.025,0.437,2.139,0.536,3.127,0.623l1.177,0.106c1.143,0.086,0.908-1.008,0.439-1.164c-0.29-0.097-0.844-0.203-2.044-0.29
		c-0.757-0.076-1.514-0.188-2.187-0.473c-0.851-0.364-1.196-0.683-1.353-1.225c0.009-0.021,0.027-0.038,0.036-0.061
		c0.187-0.482,0.268-0.969,0.332-1.444c0.044-0.789,0.08-1.104-0.019-1.367c-0.188-0.5-0.969-0.312-1.112,0.152
		c-0.033,0.18-0.064,0.36-0.09,0.54l-0.042,0.299c-0.063,0.482-0.123,0.938-0.283,1.342c-0.235,0.601-0.701,1.11-1.192,1.648
		c-0.353,0.385-0.717,0.781-1.019,1.236c-0.603,0.901-0.886,1.918-1.072,2.744c-0.221-0.253-0.488-0.495-0.804-0.733
		c-1.241-0.938-2.777-1.474-4.326-1.509c-0.395-0.078-0.654,0.273-0.667,0.633c-0.007,0.36,0.276,0.656,0.636,0.665
		c1.278,0.029,2.549,0.473,3.577,1.248c0.458,0.347,0.768,0.689,0.946,1.051c0.188,0.38,0.233,0.83,0.236,1.299
		c-0.333,3.773,0.345,7.773,1.97,11.507c0.042,0.097,0.021,0.211-0.054,0.286s-0.188,0.098-0.286,0.057
		c-0.247-0.105-0.5-0.2-0.764-0.273c-1.26-0.352-2.571-0.42-3.799-0.443c-1.413-0.024-2.828-0.001-4.228,0.084
		c-0.539,0.03-1.087,0.109-1.625,0.244c0.626-1.765,0.923-3.629,1.182-5.339c0.051-0.355-0.193-0.688-0.55-0.739
		c-0.365-0.06-0.682,0.189-0.74,0.545c-0.335,2.237-0.711,4.531-1.747,6.52c-0.784,0.92-1.587,1.991-2.254,2.689
		c-1.028,0.741-2.255,1.194-3.558,1.017c-1.41-0.191-2.758-1.13-3.612-2.517c-0.749-1.218-1.146-2.799-1.148-4.565
		c-0.007-3.046,1.136-6.109,3.132-8.402c1.477-1.7,3.521-3.117,6.188-4.336c0.356,0.811,0.83,1.558,1.356,2.249
		c0.727,0.961,1.415,1.868,1.52,2.914c0.035,0.336,0.318,0.587,0.647,0.587c0.023,0,0.044-0.002,0.067-0.003
		c0.355-0.036,0.615-0.355,0.581-0.714c-0.143-1.411-0.977-2.509-1.781-3.568c-0.67-0.883-1.302-1.717-1.505-2.668
		c-0.204-0.975,0.067-2.036,0.388-3.037c0.733-2.282,2.5-3.506,2.67-3.885c0.146-0.328,0-0.711-0.327-0.859
		c-0.886-0.396-3.189,3.132-3.58,4.345c-0.345,1.078-0.614,2.23-0.452,3.396c-2.903,1.312-5.128,2.856-6.754,4.726
		c-1.665,1.91-2.757,4.306-3.201,6.808c-0.015,0.087-0.076,0.158-0.161,0.188c-0.083,0.028-0.176,0.009-0.241-0.05
		c-0.671-0.609-1.229-1.356-1.661-2.184c-0.389-0.744-0.58-1.562-0.566-2.4c0.042-2.238,0.177-4.487,0.705-6.61
		c0.212-0.483,0.438-0.974,0.709-1.492c3.826-7.305,9.692-12.129,16.572-13.714c0.058-0.013,0.12-0.001,0.167,0.034
		c0.048,0.033,0.081,0.088,0.087,0.146c0.063,0.566,0.178,1.132,0.353,1.687c0.675,2.153,2.183,4.17,4.241,5.673
		c0.118,0.085,0.25,0.127,0.385,0.127c0.199,0,0.396-0.094,0.524-0.267c0.213-0.291,0.148-0.697-0.14-0.91
		c-1.837-1.342-3.173-3.122-3.77-5.012c-0.651-2.088-0.394-4.323,0.696-5.977c0.772-1.166,1.897-2.031,3.094-2.946
		c0.132-0.1,0.937-0.757,2.499-2.206c1.403-1.555,2.089-3.218,1.877-4.802c-0.048-0.355-0.387-0.605-0.73-0.559
		c-0.355,0.048-0.606,0.374-0.559,0.731c0.274,2.037-1.469,3.844-2.53,4.74c-0.434,0.368-0.889,0.714-1.343,1.062
		c-1.232,0.94-2.501,1.912-3.394,3.265c-0.704,1.068-1.087,2.338-1.195,3.663c-0.008,0.092-0.074,0.168-0.164,0.187
		c-2.268,0.484-4.447,1.337-6.504,2.493c-0.07,0.039-0.156,0.034-0.221-0.011c-0.066-0.046-0.099-0.124-0.087-0.204
		c0.4-2.542,1.152-5.522,2.628-7.71l0.279-0.414c2.299-3.423,6.136-9.094,13.242-8.803c0.381-0.001,0.664-0.26,0.682-0.618
		c0.016-0.359-0.26-0.664-0.619-0.681c-1.111-0.052-2.123,0.063-3.083,0.261c-0.126,0.025-0.258-0.01-0.353-0.096
		c-0.097-0.086-0.147-0.21-0.136-0.339c0.136-1.59-0.4-2.351,0.786-4.437c0.283-0.5,0.649-0.956,1.057-1.457
		c0.752-0.929,1.603-1.982,2.71-2.489c0.398-0.184,0.833-0.297,1.295-0.396c0.114-0.024,0.233,0.004,0.326,0.075
		c0.092,0.072,0.147,0.181,0.151,0.297c0.019,0.555,0.071,1.138,0.181,1.72c0.278,1.486,0.935,2.95,1.956,4.383
		c0.637,0.894,1.418,1.284,1.684,1.081c0.488-0.374,0.016-0.953-0.234-1.219c-1.142-1.493-1.847-2.978-2.128-4.484
		c-0.193-1.033-0.219-2.161-0.077-3.658c0.15-1.576,0.462-2.889,0.909-4.004c0.099-0.248,0.284-0.459,0.519-0.586
		c0.666-0.362,1.364-0.684,2.062-1.006c1.74-0.807,3.542-1.64,5.041-3.069c0.262-0.249,0.49-0.528,0.729-0.799
		c0.063-0.012,0.124-0.025,0.185-0.039c0.056-0.012,0.115,0.003,0.157,0.041c0.043,0.038,0.063,0.094,0.06,0.15
		c-0.07,0.715-0.08,1.436,0.013,2.148c0.045,0.327,0.325,0.566,0.646,0.566c0.028,0,0.057-0.003,0.086-0.007
		c0.355-0.048,0.605-0.374,0.559-0.73c-0.186-1.391,0.029-2.815,0.525-4.133c0.079-0.21,0.219-0.394,0.399-0.527
		c0.88-0.643,1.862-1.203,2.924-1.749c1.585-0.812,1.991-1.055,2.573-1.418c0.049-0.031,0.112-0.03,0.16,0.004
		c0.049,0.034,0.072,0.094,0.059,0.15c-0.799,3.732-0.122,8.879,0.32,12.145c0.009,0.06-0.016,0.121-0.064,0.16
		c-0.047,0.038-0.112,0.048-0.17,0.025c-3.027-1.183-6.311-1.361-8.888-1.208c-0.359,0.023-0.631,0.33-0.609,0.688
		c0.019,0.357,0.279,0.598,0.687,0.611c3.539-0.21,8.49,0.183,11.936,3.261c0.752,0.672,1.398,1.438,2.082,2.251
		c0.708,0.837,1.441,1.705,2.295,2.454c0.121,0.106,0.247,0.208,0.371,0.31c1.281,1.034,3.172,1.409,4.184,1.376
		c0.871-0.028,1.699-0.26,2.404-0.785c0.914-0.688,2.385-2.884,2.071-4.21c-0.079-0.347-0.409-0.567-0.78-0.484
		c-0.349,0.083-0.565,0.432-0.482,0.783c0.143,0.615-0.877,2.336-1.591,2.871c-0.86,0.648-2.134,1.092-4.337-0.298
		c-0.329-0.208-0.906-0.719-0.906-0.719c-0.848-0.581-1.545-1.309-2.238-2.127c-0.682-0.809-1.389-1.647-2.208-2.379
		c-0.618-0.553-1.287-1.004-1.978-1.405c-0.152-0.088-0.244-0.25-0.246-0.425c-0.02-1.668,0.094-3.231,0.977-4.349
		c2.628-3.337,4.143-3.362,7.086-3.12c0.354,0.015,0.67-0.235,0.7-0.594c0.032-0.357-0.235-0.672-0.594-0.701
		c-3.12-0.271-5.187-0.231-8.215,3.611c-0.136,0.173-0.251,0.355-0.353,0.542c-0.034,0.063-0.107,0.096-0.178,0.083
		c-0.072-0.015-0.125-0.074-0.132-0.145c-0.351-3.394-0.432-6.992,0.608-9.526c0.102-0.248,0.265-0.468,0.473-0.638
		c0.316-0.26,0.631-0.521,0.938-0.781c0.66-0.563,1.324-1.127,2.022-1.644c6.101-4.51,14.097-5.915,17.962,0.694l0.895,1.001
		c0.066,0.075,0.149,0.132,0.241,0.17c0.467,0.188,0.948,0.394,1.425,0.617c1.213,0.946,2.428,1.917,2.788,2.274
		c0.046,0.044,0.099,0.107,0.145,0.157c0.279,0.488,0.514,1.005,0.696,1.522c1.433,4.033,1.811,9.538,0.988,14.075
		c-0.006,0.005-0.012,0.009-0.018,0.015c-0.58,0.646-0.961,1.405-1.33,2.191c-0.887,1.909-1.811,4.229-1.988,6.626
		c-0.006,0.092-0.062,0.173-0.146,0.212c-0.083,0.039-0.183,0.029-0.258-0.024c-0.654-0.473-1.382-0.804-2.065-1.084
		c-0.085-0.035-0.145-0.114-0.156-0.205c-0.662-5.356-3.515-10.653-7.421-14.251c-0.05-0.045-0.067-0.118-0.042-0.182
		c0.191-0.49,0.292-1.119,0.321-1.822c0.005-0.122,0.071-0.234,0.176-0.297c0.442-0.269,1.013-0.399,1.665-0.501
		c1.25-0.196,2.473-0.355,3.67-0.247c1.269,0.121,2.363,0.576,3.088,1.283c0.127,0.123,0.289,0.187,0.453,0.187
		c0.17,0,0.338-0.067,0.465-0.197c0.253-0.256,0.247-0.667-0.01-0.919c-1.197-1.17-2.765-1.542-3.872-1.647
		c-1.359-0.124-2.661,0.049-3.99,0.256c-0.524,0.082-1.028,0.185-1.501,0.356c-0.04,0.015-0.084,0.009-0.121-0.013
		c-0.035-0.022-0.059-0.062-0.062-0.104c-0.026-0.335-0.062-0.662-0.104-0.979c-0.014-0.111,0.025-0.223,0.107-0.299
		c0.215-0.203,0.442-0.393,0.672-0.582c0.498-0.407,1.009-0.83,1.422-1.381c0.26-0.349,0.467-0.735,0.67-1.124l1.399-2.671
		c0.169-0.317,0.044-0.711-0.273-0.877c-0.313-0.167-0.711-0.044-0.877,0.274l-1.399,2.671c-0.171,0.326-0.339,0.654-0.561,0.949
		c-0.318,0.428-0.75,0.782-1.207,1.155c-0.006,0.005-0.015,0.012-0.021,0.018c-0.043,0.038-0.104,0.05-0.159,0.031
		c-0.056-0.019-0.097-0.064-0.108-0.121c-0.05-0.218-0.096-0.4-0.136-0.519c-0.666-1.977-2.408-3.269-3.989-4.325
		c-0.3-0.197-0.706-0.119-0.902,0.181c-0.199,0.299-0.121,0.701,0.178,0.902c1.404,0.934,2.946,2.068,3.482,3.658
		c0.378,1.122,0.715,4.143,0.49,5.67c-0.008,0.058-0.049,0.107-0.102,0.129c-0.055,0.021-0.117,0.013-0.164-0.023
		c-1.126-0.88-2.31-1.65-3.554-2.206c-0.337-0.146-0.714,0-0.86,0.329c-0.146,0.327,0,0.713,0.326,0.859
		c5.611,2.508,10.195,8.873,11.38,15.499c0.016,0.091-0.02,0.185-0.092,0.243c-0.071,0.058-0.17,0.073-0.257,0.039l-1.668-0.678
		c-0.324-0.138-0.707,0.024-0.846,0.356c-0.133,0.331,0.024,0.712,0.358,0.846l3.488,1.419c0.856,0.349,1.743,0.709,2.388,1.321
		c0.82,0.778,1.309,2.242,1.577,3.33c0.638,2.614,0.81,4.725,0.536,6.646c-0.326,2.346-1.355,4.344-2.896,5.628
		c-0.275,0.229-0.313,0.64-0.083,0.915c0.128,0.155,0.312,0.234,0.499,0.234c0.146,0,0.295-0.051,0.415-0.149
		c0.808-0.674,1.488-1.51,2.03-2.467c0.037-0.067,0.104-0.113,0.181-0.128s0.154,0.006,0.215,0.056
		c2.578,2.133,3.794,3.528,4.122,6.849c0.359,3.623-0.593,7.438-2.612,10.464c-0.881,1.317-2.324,2.356-3.814,2.851
		c-0.053,0.018-0.109,0.006-0.151-0.03s-0.062-0.091-0.051-0.146c0.258-1.366,0.37-2.771,0.192-4.177
		c-0.352-2.729-2.147-5.913-5.272-6.748c-0.149-0.04-0.479-0.383-0.554-0.447c-0.288-0.249-0.58-0.229-0.873,0.07
		c-0.126,0.129-0.161,0.269-0.174,0.42c0.037,0.294,0.055,0.59,0.023,0.887c-0.127,1.213-0.777,2.463-1.835,3.514
		c-1.044,1.044-2.368,1.807-3.521,2.413l-0.494,0.27c-0.296,0.163-0.473,0.254-0.679,0.311c-0.006,0.002-0.013-0.001-0.02,0.001
		c-0.512,0.22-1.495,0.564-1.239,1.051c0.138,0.262,0.779,0.735,0.895,0.829c2.318,1.88,2.826,7.077,1.628,9.066
		c-0.188,0.309-0.089,0.707,0.219,0.894c0.104,0.063,0.222,0.094,0.336,0.094c0.219,0,0.435-0.112,0.555-0.313
		c0.399-0.661,0.597-1.38,0.705-2.119c0.012-0.084,0.068-0.155,0.147-0.186c0.08-0.031,0.169-0.017,0.234,0.038
		c0.761,0.63,1.664,1.003,2.583,1.021h0.013c0.352,0,0.645-0.282,0.648-0.638c0.008-0.359-0.277-0.655-0.637-0.663
		c-0.911-0.019-1.867-0.583-2.492-1.477c-0.248-0.354-0.386-0.608-0.488-0.868c-0.109-0.808-0.26-1.61-0.458-2.378
		c-0.399-1.56-0.76-2.203-1.583-2.958c-0.066-0.062-0.099-0.151-0.087-0.24c0.013-0.09,0.067-0.17,0.146-0.211
		c0.062-0.032,0.127-0.067,0.193-0.104l0.475-0.257c1.24-0.653,2.668-1.479,3.834-2.646c1.109-1.102,1.834-2.409,2.106-3.729
		c0.021-0.095,0.079-0.176,0.163-0.222c0.084-0.047,0.185-0.054,0.275-0.021c2.221,0.82,3.646,3.276,3.937,5.516
		c0.355,2.799-0.569,5.713-1.464,8.224c-0.182,0.51-0.336,0.931-0.575,1.303c-0.45,0.725-1.209,1.268-1.945,1.76
		c-3.81,2.552-6.999,3.742-10.031,3.742c-0.03,0-0.062,0-0.093-0.003c-0.127-0.012-0.227-0.114-0.23-0.241
		c-0.066-2.062-0.934-4.09-2.761-5.24c-0.099-0.062-0.129-0.192-0.068-0.292c0.071-0.116,0.145-0.224,0.221-0.311
		c0.615-0.699,1.149-1.036,1.687-1.006c0.344-0.04,0.663-0.25,0.689-0.607c0.025-0.358-0.246-0.666-0.605-0.69
		c-0.996-0.053-1.854,0.43-2.746,1.444c-1.479,1.684-2.158,6.271-1.984,7.312c0.055,0.319,0.328,0.544,0.642,0.544
		c0.034,0,0.069-0.002,0.108-0.009c0.353-0.06,0.594-0.395,0.533-0.749c-0.085-0.523,0.178-2.501,0.696-4.164
		c0.024-0.077,0.085-0.14,0.162-0.163c0.078-0.025,0.161-0.011,0.228,0.039c1.863,1.401,2.221,3.941,1.671,5.956
		c-0.792,2.906-3.248,4.994-5.167,6.233c-2.676,1.73-5.365,2.772-8.158,3.233c-0.066,0.01-0.133-0.019-0.168-0.074
		c-0.035-0.055-0.033-0.127,0.004-0.182c1.005-1.495,1.762-3.201,2.162-5.037c0.73-3.345,0.334-7.095-1.059-10.666
		c-0.068-0.176,0.008-0.372,0.176-0.457c0.393-0.198,0.767-0.438,1.107-0.743c1.252-1.116,1.732-2.664,1.915-3.778
		c0.146-0.789-0.27-1.088-0.558-1.133c-0.37-0.058-0.703,0.516-0.764,1.104c-0.229,1.191-0.74,2.195-1.459,2.839
		c-1.369,1.224-3.42,1.3-5.61,1.266c-0.645-0.008-1.164-0.035-1.536-0.278c-0.3-0.19-0.7-0.111-0.902,0.189
		c-0.193,0.302-0.111,0.705,0.19,0.9c0.717,0.467,1.591,0.48,2.229,0.49c0.209,0.001,0.419,0.005,0.628,0.005
		c1.021,0,2.04-0.052,3-0.254c0.133-0.027,0.264,0.045,0.314,0.169c1.346,3.381,1.741,6.928,1.055,10.069
		c-0.816,3.727-3.144,6.906-6.225,8.503c-0.321,0.164-0.445,0.559-0.279,0.876c0.118,0.224,0.343,0.352,0.578,0.352
		c0.101,0,0.203-0.023,0.298-0.073c1.135-0.588,2.131-1.419,3.043-2.354c0.117-0.118,0.271-0.191,0.436-0.206
		c1.736-0.149,3.424-0.529,5.086-1.113c0.084-0.03,0.178-0.006,0.236,0.061c0.06,0.067,0.072,0.163,0.033,0.244
		c-0.842,1.689-2.008,3.514-3.273,4.499c-1.752,1.364-3.917,1.902-5.771,1.434c-0.666-0.166-1.302-0.457-1.974-0.766
		c-0.282-0.129-0.566-0.258-0.847-0.376c-2.498-1.06-5.259-1.477-7.95-1.187c-2.148,0.224-4.692-3.039-5.377-5.278
		c-0.104-0.343-0.466-0.533-0.812-0.431c-0.343,0.105-0.537,0.47-0.432,0.812c0.609,1.991,1.888,3.754,3.549,5.009
		c0.027,0.021,0.036,0.055,0.026,0.086c-0.011,0.03-0.041,0.052-0.074,0.05c-0.469-0.007-0.942-0.025-1.406-0.062L414.379,106.433z
		 M433.157,110.496c-0.341,0.707-0.898,1.357-1.609,1.876c-1.51,0.563-3.097,1.061-4.437,1.252
		c-1.299,0.188-2.859,0.167-4.364,0.068c-0.895-0.112-1.812-0.303-2.688-0.651c-0.826-0.327-1.374-0.715-1.675-1.183
		c-0.676-1.058-0.156-2.538,0.615-3.468c0.164-0.199,0.409-0.312,0.665-0.305c0.061,0.001,0.122,0.001,0.184-0.001
		c0.543-0.023,1.086-0.096,1.626-0.167c0.292-0.04,0.581-0.079,0.87-0.109c2.489-0.26,5.012,0.118,7.31,1.09
		c0.273,0.115,0.542,0.239,0.812,0.362c0.7,0.319,1.419,0.647,2.2,0.842c0.097,0.024,0.196,0.035,0.295,0.045
		c0.081,0.007,0.15,0.052,0.19,0.121C433.189,110.34,433.192,110.424,433.157,110.496z M464.803,95.7
		c-0.035,0.332-0.192,0.64-0.439,0.862c-2.294,2.056-4.176,3.604-7.191,5.651c-4.844,3.284-8.352,5.252-11.039,6.195
		c-3.103,1.09-8.482,1.407-8.535,1.412c-0.207,0.01-0.406,0.066-0.588,0.16c-0.023,0.012-1.027,0.521-2.447,1.154
		c-0.055,0.023-0.12,0.012-0.164-0.032c-0.042-0.042-0.053-0.108-0.027-0.163c0.066-0.143,0.129-0.287,0.182-0.435
		c0.049-0.133,0.17-0.226,0.311-0.235c1.623-0.112,3.272-0.732,4.686-1.836c1.938-1.509,4.014-5.18,4.346-6.513
		c0.033-0.135,0.125-0.248,0.25-0.309c0.939-0.451,1.875-0.958,2.807-1.56c1.273-0.822,2.727-2.032,3.903-3.561
		c0.138-0.179,0.336-0.305,0.559-0.352c0.882-0.189,1.262-0.369,2.393-0.206c1.037,0.147,1.923,0.666,2.368,1.391
		c0.121,0.198,0.333,0.31,0.553,0.31c0.117,0,0.234-0.032,0.339-0.097c0.308-0.189,0.403-0.588,0.212-0.896
		c-0.645-1.046-1.871-1.793-3.287-1.997c-0.601-0.083-1.11-0.067-1.604-0.004c-0.08,0.012-0.159-0.024-0.205-0.088
		c-0.046-0.066-0.053-0.15-0.018-0.223c0.197-0.402,0.387-0.811,0.509-1.26c0.081-0.296,0.133-0.606,0.18-0.916
		c0.101,0.015,0.205,0.053,0.296,0.054h0.121c3.037,0,6.195-1.116,9.818-3.393c0.143-0.089,0.322-0.095,0.47-0.014
		c0.606,0.33,1.131,0.911,1.313,2.725C465.032,93.135,464.89,94.861,464.803,95.7z M481.209,79.058
		c-0.152,0.351-0.326,0.709-0.57,0.959c-0.337,0.337-0.854,0.49-1.309,0.396c-0.465-0.093-0.873-0.437-1.051-0.872
		c-0.13-0.33-0.155-0.74-0.178-1.133l-0.111-2.104c-0.02-0.36-0.362-0.637-0.688-0.614c-0.358,0.02-0.634,0.326-0.615,0.684
		l0.119,2.106c0.022,0.451,0.053,1.016,0.267,1.545c0.312,0.778,0.987,1.423,1.917,1.635c0.039,0.011,0.069,0.042,0.076,0.082
		c0.006,0.041-0.012,0.081-0.046,0.102c-0.076,0.049-0.149,0.093-0.21,0.128c-0.239,0.135-0.436,0.335-0.569,0.574
		c-0.016,0.034-1.8,3.282-4.313,5.922c-1.528,1.611-3.369,3.002-4.992,4.23c-1.016,0.769-1.924,1.458-2.584,2.065
		c-0.036,0.032-0.087,0.04-0.131,0.019c-0.045-0.021-0.069-0.067-0.065-0.115c0.094-1.089,0.118-2.183,0.009-3.269
		c-0.178-1.762-0.693-2.699-1.331-3.271c-0.07-0.063-0.109-0.156-0.105-0.251c0.003-0.096,0.049-0.184,0.126-0.242
		c0.564-0.425,1.1-0.902,1.49-1.534c0.304-0.483,0.498-0.993,0.698-1.56c0.312-0.873,0.606-1.804,0.871-2.757
		c0.036-0.127,0.14-0.226,0.271-0.253c2.055-0.435,4.086-1.784,5.289-3.593c1.096-1.641,1.879-3.454,2.359-5.347
		c0.035-0.138,0.158-0.237,0.301-0.238c0.799-0.014,1.971-0.749,2.617-1.294c0.087-0.073,0.216-0.069,0.297,0.01
		c0.158,0.151,0.316,0.32,0.475,0.514c1.077,1.286,2.234,2.804,2.344,4.515C481.918,76.96,481.708,77.901,481.209,79.058z
		 M487.416,68.902c-1.229,3.698-4.209,6.302-4.241,6.327c-0.029,0.026-0.068,0.034-0.105,0.022s-0.063-0.042-0.072-0.08
		c-0.354-1.644-1.366-3.102-2.477-4.427c-0.186-0.224-0.383-0.435-0.591-0.633c-0.08-0.076-0.092-0.202-0.024-0.296
		c0.652-0.918,1.133-2.009,1.541-3.441c0.035-0.125,0.127-0.227,0.249-0.274c3.042-1.183,5.659-4.122,7.283-6.991
		c0.028-0.051,0.087-0.074,0.142-0.056c0.055,0.018,0.09,0.071,0.083,0.129C488.817,62.51,488.172,66.629,487.416,68.902z
		 M489.361,54.644c-0.456,2.866-3.456,7.779-7.205,9.79c-0.059,0.032-0.13,0.027-0.184-0.013c-0.054-0.039-0.08-0.105-0.067-0.172
		c0.68-3.609,0.56-7.173-0.447-10.387c-0.451-1.445-1.122-2.784-1.906-4.034c-0.193-0.304-0.301-0.649-0.318-1.006
		c-0.111-2.122,0.235-5.285,1.131-6.093c0.465-0.417,1.199-0.506,1.863-0.536c1.238-0.058,2.466,0.025,3.669,0.251
		c0.374,0.055,0.696-0.17,0.759-0.519c0.066-0.354-0.165-0.693-0.518-0.76c-0.697-0.131-1.406-0.205-2.119-0.244
		c-0.076-0.004-0.15-0.039-0.201-0.098c-0.05-0.058-0.076-0.134-0.07-0.211c0.064-0.88,0.057-2.115-0.031-3.435
		c-0.006-0.089,0.033-0.175,0.104-0.227c0.073-0.052,0.167-0.064,0.249-0.032c2.393,0.945,3.709,3.703,4.189,4.954
		c0.248,0.647,0.539,1.502,0.571,2.368c0.058,1.389-0.55,2.891-1.711,4.228c-1.083,1.248-2.491,2.221-3.854,3.162
		c-0.295,0.205-0.371,0.61-0.168,0.904c0.127,0.182,0.329,0.281,0.535,0.281c0.128,0,0.259-0.037,0.368-0.115
		c1.433-0.987,2.908-2.007,4.103-3.378c0.037-0.045,0.096-0.067,0.154-0.061c0.058,0.007,0.109,0.042,0.136,0.092
		c0.253,0.466,0.448,0.958,0.615,1.462c0.148,0.725,0.323,1.627,0.445,2.406C489.465,53.696,489.436,54.171,489.361,54.644z"/>
	<linearGradient id="SVGID_2_" gradientUnits="userSpaceOnUse" x1="419.5552" y1="13.095" x2="464.8723" y2="52.271">
		<stop  offset="0" style="stop-color:#7FCDEE"/>
		<stop  offset="1" style="stop-color:#F4A889"/>
	</linearGradient>
	<path fill="url(#SVGID_2_)" d="M463.211,52.227c1.281-0.716,2.146-2.126,2.203-3.594c0.012-0.359-0.268-0.663-0.627-0.674
		c-0.406-0.012-0.66,0.266-0.675,0.623c-0.037,1.025-0.64,2.011-1.536,2.509c-0.438,0.245-0.949,0.43-1.45,0.519
		c-0.815,0.233-0.987,0.735-0.925,0.936c0.062,0.204,0.219,0.547,1.3,0.281C462.13,52.712,462.726,52.497,463.211,52.227z"/>
	<linearGradient id="SVGID_3_" gradientUnits="userSpaceOnUse" x1="404.9951" y1="13.054" x2="456.8325" y2="57.8666">
		<stop  offset="0" style="stop-color:#7FCDEE"/>
		<stop  offset="1" style="stop-color:#F4A889"/>
	</linearGradient>
	<path fill="url(#SVGID_3_)" d="M464.354,62.833c-0.311,0.255-0.835,0.338-1.549,0.235c-0.146-0.021-0.285-0.045-0.423-0.072
		c-1.056-0.122-1.286,0.21-1.306,0.425c-0.02,0.219-0.109,0.672,1.191,0.878c0.118,0.021,0.24,0.041,0.364,0.058
		c0.257,0.036,0.498,0.054,0.726,0.054c0.756,0,1.355-0.19,1.822-0.575c0.275-0.227,0.317-0.637,0.088-0.914
		C465.041,62.639,464.627,62.601,464.354,62.833z"/>
	<linearGradient id="SVGID_4_" gradientUnits="userSpaceOnUse" x1="415.5649" y1="24.3879" x2="461.9106" y2="64.4531">
		<stop  offset="0" style="stop-color:#7FCDEE"/>
		<stop  offset="1" style="stop-color:#F4A889"/>
	</linearGradient>
	<path fill="url(#SVGID_4_)" d="M432.702,40.108c0.922-0.625-2.226-2.957-2.341-4.352c-0.033-0.356-0.29-0.664-0.702-0.594
		c-0.359,0.031-0.622,0.345-0.594,0.701C429.186,37.312,431.566,40.878,432.702,40.108z"/>
	<linearGradient id="SVGID_5_" gradientUnits="userSpaceOnUse" x1="418.4673" y1="20.6062" x2="463.7655" y2="59.7658">
		<stop  offset="0" style="stop-color:#7FCDEE"/>
		<stop  offset="1" style="stop-color:#F4A889"/>
	</linearGradient>
	<path fill="url(#SVGID_5_)" d="M438.065,35.112c0.121-0.337-0.06-0.708-0.398-0.826c-0.347-0.116-0.713,0.062-0.826,0.402
		c-0.381,1.096-0.658,2.232-0.844,3.385c0,0-0.163,0.907,0.564,1.004C437.499,39.202,437.741,36.047,438.065,35.112z"/>
</g>
<g>
	<g>
		<path fill="#F4A889" d="M440.084,43.825c0.387-0.967,0.628-0.912,0.538,0.121l-0.93,10.685c-0.089,1.034,0.642,1.62,1.632,1.311
			l6.447-2.015c0.992-0.31,1.482,0.221,1.095,1.189l-7.382,18.455c-0.387,0.966-0.628,0.911-0.537-0.122l0.929-10.685
			c0.089-1.033-0.642-1.619-1.632-1.311l-6.447,2.016c-0.991,0.31-1.482-0.222-1.094-1.19L440.084,43.825z"/>
	</g>
</g>
</svg>
