<svg xmlns="http://www.w3.org/2000/svg" xmlns:xlink="http://www.w3.org/1999/xlink" version="1.1" enable-background="new 0 0 1190.549 841.891" xml:space="preserve" viewBox="0 0 650 519" style=""><rect id="backgroundrect" width="100%" height="100%" x="0" y="0" fill="none" stroke="none" style="" class="selected"/>

<g class="currentLayer" style=""><title>Layer 1</title><g id="svg_1" class="">
	<linearGradient id="SVGID_1_" x1="0.8057507277161736" y1="-0.8539439628244846" x2="0.18220107678318923" y2="1.9074950602976157" transform="translate(-300,-110) ">
		<stop offset="0" style="stop-color:#F5A98A"/>
		<stop offset="1" style="stop-color:#7DCEEF"/>
	</linearGradient>
	<circle fill="url(#SVGID_1_)" cx="324.9000244140625" cy="153.36300659179688" r="16.83799934387207" id="svg_2"/>
	<linearGradient id="SVGID_2_" x1="1.8777259278836735" y1="-5.601202295133663" x2="0.3188327876197075" y2="1.3024503340656637" transform="translate(-300,-110) ">
		<stop offset="0" style="stop-color:#F5A98A"/>
		<stop offset="1" style="stop-color:#7DCEEF"/>
	</linearGradient>
	<circle fill="url(#SVGID_2_)" cx="452.86700439453125" cy="220.7139892578125" r="6.735000133514404" id="svg_3"/>
	<linearGradient id="SVGID_3_" x1="2.5541297014032756" y1="-8.597051086525031" x2="0.4755328544192872" y2="0.6081674056179176" transform="translate(-300,-110) ">
		<stop offset="0" style="stop-color:#F5A98A"/>
		<stop offset="1" style="stop-color:#7DCEEF"/>
	</linearGradient>
	<circle fill="url(#SVGID_3_)" cx="422.55902099609375" cy="224.08200073242188" r="5.051000118255615" id="svg_4"/>
	<linearGradient id="SVGID_4_" x1="0.43898723470948425" y1="0.7641034918387251" x2="0.20656450470997065" y2="1.3516642911874734" transform="translate(-300,-110) ">
		<stop offset="0" style="stop-color:#F5A98A"/>
		<stop offset="1" style="stop-color:#7DCEEF"/>
	</linearGradient>
	<path fill="url(#SVGID_4_)" d="M365.31100000000004,99.482 l-3.368,38.727 v1.6840000000000002 l3.368,3.367 c1.6840000000000002,1.6840000000000002 3.367,1.6840000000000002 3.367,0 l8.419,-10.103 c0,0 1.6840000000000002,-1.6840000000000002 3.368,0 l28.624,10.103 c1.6840000000000002,0 1.6840000000000002,1.6840000000000002 1.6840000000000002,1.6840000000000002 l1.6840000000000002,13.47 c0,1.6840000000000002 1.6840000000000002,1.6840000000000002 3.368,1.6840000000000002 h5.051 c0,0 1.6840000000000002,0 1.6840000000000002,-1.6840000000000002 l20.206,-33.676 c0,-1.6840000000000002 0,-1.6840000000000002 0,-3.367 l-10.103,-18.522 c0,-1.6840000000000002 0,-3.368 0,-5.051 l10.103,-18.521 c1.6840000000000002,-5.051 5.051,-10.103 5.051,-15.154 l3.368,-8.419 c1.6840000000000002,-11.786 1.6840000000000002,-23.573 -1.685,-33.675 l-5.051,-18.521 c0,-1.6840000000000002 -1.6840000000000002,-1.6840000000000002 -3.368,-1.6840000000000002 l-16.837,11.787 c-8.419,6.735 -16.838,15.154 -21.89,26.94 l-5.052,6.735 c-1.6840000000000002,5.051 -3.367,10.103 -5.051,15.154 l-3.367,21.889 c0,1.6840000000000002 -1.685,3.368 -3.368,3.368 l-18.521,8.419 C366.994,97.798 365.31100000000004,97.798 365.31100000000004,99.482 zM409.08900000000006,50.65199999999999 c3.367,-8.418 11.786,-11.786 18.521,-10.103 c8.419,3.368 11.786,11.787 10.103,18.521 c-3.367,8.419 -11.786,11.787 -18.521,10.103 C410.773,67.49000000000001 407.40599999999995,59.071 409.08900000000006,50.65199999999999 z" id="svg_5"/>
	<linearGradient id="SVGID_5_" x1="0.5710031451146351" y1="0.11500116742780472" x2="0.5351658794331752" y2="0.31805317820225715" transform="translate(-300,-110) ">
		<stop offset="0" style="stop-color:#F5A98A"/>
		<stop offset="1" style="stop-color:#7DCEEF"/>
	</linearGradient>
	<path fill="url(#SVGID_5_)" d="M589.253,256.074 c0,-28.624 -16.838,-52.197 -42.094,-63.983 c0,-1.6840000000000002 0,-3.368 0,-5.052 c0,-50.513 -38.728,-92.608 -89.241,-97.659 l-5.051,18.521 c42.095,1.6840000000000002 75.771,37.043 75.771,79.138 c0,1.6840000000000002 0,3.368 0,5.052 v13.47 l11.786,5.051 c18.521,8.419 30.308,26.94 30.308,47.146 c0,10.103 -3.367,21.89 -10.103,30.309 l-6.735,8.419 l3.368,8.419 c3.367,10.102 5.051,20.206 5.051,30.307 c0,47.146 -37.043,84.188 -84.188,84.188 c-3.368,0 -6.735,0 -10.104,0 l-11.786,-1.6840000000000002 l-5.051,8.42 c-15.154,26.939 -43.778,43.777 -74.087,43.777 c-37.043,0 -70.719,-25.256 -80.821,-60.616 l-3.367,-16.836 l-16.838,3.367 c-6.735,1.6840000000000002 -15.154,1.6840000000000002 -21.89,1.6840000000000002 c-33.676,0 -65.667,-13.471 -89.24,-37.043 l-10.103,-10.104 l-11.786,6.734 c-11.787,6.736 -25.257,10.104 -38.728,10.104 c-47.146,0 -84.188,-37.043 -84.188,-84.189 c0,-38.727 25.257,-72.402 63.983,-80.821 l11.786,-3.368 l1.685,-11.787 c5.051,-42.094 40.41,-74.086 84.188,-74.086 c1.6840000000000002,0 3.367,0 5.052,0 h8.419 l5.051,-6.735 c16.838,-21.889 40.411,-33.676 63.983,-33.676 c15.154,0 30.309,5.052 43.778,13.471 l10.104,6.735 l11.786,-6.735 c10.103,-8.419 23.573,-13.471 37.043,-13.471 c1.6840000000000002,0 3.367,0 5.052,0 l5.051,-16.838 c-3.367,0 -6.735,0 -10.103,0 c-18.521,0 -35.359,5.052 -48.829,15.154 c-15.154,-10.103 -33.676,-15.154 -53.882,-15.154 c-31.991,0 -60.616,15.154 -77.453,37.043 c-1.685,0 -3.368,0 -5.052,0 c-52.197,0 -95.976,38.727 -101.026,89.24 c-43.778,11.787 -77.454,52.198 -77.454,99.343 c0,57.248 45.462,102.71 102.71,102.71 c16.838,0 31.992,-3.367 47.146,-11.787 c25.257,26.941 62.3,42.095 101.026,42.095 c8.419,0 16.838,0 25.257,-1.6830000000000003 c11.786,43.778 52.197,74.085 97.659,74.085 c30.309,0 58.933,-13.469 77.454,-35.359 c8.419,8.42 21.889,28.625 16.838,62.301 c0,0 33.676,-31.992 20.205,-79.139 c50.514,-5.051 90.925,-48.829 90.925,-101.026 c0,-13.471 -1.685,-25.256 -6.735,-35.359 C584.202,286.381 589.253,271.228 589.253,256.074 z" id="svg_6"/>
	<linearGradient id="SVGID_6_" x1="0.5897348422578391" y1="-0.14044922233847162" x2="0.5480244708022914" y2="0.17515161846850588" transform="translate(-300,-110) ">
		<stop offset="0" style="stop-color:#F5A98A"/>
		<stop offset="1" style="stop-color:#7DCEEF"/>
	</linearGradient>
	<path fill="url(#SVGID_6_)" d="M481.491,235.86900000000003 c-13.471,0 -26.94,6.734 -35.359,15.153 c-8.419,-6.734 -18.521,-10.103 -30.308,-10.103 c-1.685,0 -1.685,0 -3.368,0 c-3.367,-8.419 -6.735,-16.837 -13.47,-21.889 c-1.685,-8.419 -5.052,-16.838 -11.787,-23.573 l6.735,-40.411 c0,-1.6840000000000002 0,-3.368 -1.6840000000000002,-3.368 l-3.367,-1.6840000000000002 c-1.685,0 -3.368,0 -5.052,1.6840000000000002 l-15.154,35.359 c-1.6840000000000002,0 -1.6840000000000002,0 -3.367,0 c-10.103,0 -20.206,5.052 -26.94,13.47 c-6.735,1.6840000000000002 -13.471,5.052 -18.521,8.419 c-8.419,-8.419 -20.206,-15.154 -33.676,-15.154 c-5.052,0 -8.419,0 -13.471,1.6840000000000002 l0,0 c-6.734,-16.838 -23.572,-28.624 -43.778,-28.624 c-15.153,0 -30.308,6.735 -38.727,18.521 c-8.419,-6.735 -18.521,-10.103 -28.624,-10.103 c-25.257,0 -45.462,18.521 -47.146,42.094 c-3.367,0 -5.051,0 -8.419,0 c-35.358,0 -63.983,28.625 -63.983,63.984 c0,35.359 28.625,63.984 63.983,63.984 c21.89,0 40.411,-10.104 52.197,-26.941 c15.154,35.359 52.197,58.934 95.976,58.934 c20.205,0 38.728,-5.053 55.564,-15.154 c0,3.367 -1.6840000000000002,8.418 -1.6840000000000002,11.785 c0,38.729 31.992,70.72 70.719,70.72 c37.043,0 65.668,-26.941 70.719,-62.3 c10.104,8.418 23.573,13.471 37.043,13.471 c31.992,0 58.933,-26.941 58.933,-58.934 c0,-15.154 -6.735,-28.624 -15.153,-40.41 c1.6840000000000002,-5.052 3.367,-10.104 3.367,-16.838 C530.322,256.074 508.432,235.86900000000003 481.491,235.86900000000003 zM117.79500000000002,301.536 c-8.419,0 -15.154,-6.735 -15.154,-15.154 s6.735,-15.153 15.154,-15.153 s15.153,6.734 15.153,15.153 S126.214,301.536 117.79500000000002,301.536 zM233.976,251.022 c-11.786,0 -21.89,-10.103 -21.89,-21.889 c0,-11.787 10.104,-21.889 21.89,-21.889 s21.889,10.103 21.889,21.889 C254.18100000000004,240.91899999999998 245.76199999999994,251.022 233.976,251.022 zM313.11400000000003,301.536 c-5.052,0 -10.103,-5.051 -10.103,-10.103 s5.051,-10.103 10.103,-10.103 s10.103,5.051 10.103,10.103 C323.216,298.168 319.84900000000005,301.536 313.11400000000003,301.536 zM358.57500000000005,326.793 c-1.6840000000000002,0 -5.051,-1.6840000000000002 -5.051,-5.053 c0,-1.6840000000000002 1.6840000000000002,-5.051 5.051,-5.051 c1.6840000000000002,0 5.052,1.6840000000000002 5.052,5.051 C363.62699999999995,325.109 361.943,326.793 358.57500000000005,326.793 zM368.678,284.698 c-6.735,0 -13.47,-6.735 -13.47,-13.47 c0,-6.735 6.734,-13.471 13.47,-13.471 s13.471,6.735 13.471,13.471 C382.149,277.962 375.413,284.698 368.678,284.698 zM446.13199999999995,340.264 c-6.735,0 -10.103,-5.053 -10.103,-10.104 c0,-6.734 5.051,-10.104 10.103,-10.104 c6.735,0 10.103,5.053 10.103,10.104 S452.86699999999996,340.264 446.13199999999995,340.264 z" id="svg_7"/>
</g></g></svg>