<?xml version="1.0" standalone="yes"?>
<svg xmlns="http://www.w3.org/2000/svg" width="200" height="220">
<defs>
	<mask id="hole-1">
		<rect width="100%" height="100%" fill="white"/>
		<path fill="black" d="M17 56L17 86L24 86L24 76C27.3668 75.8458 31.0054 75.5638 33.7215 73.2971C37.9837 69.7399 37.7464 62.2605 33.6057 58.7029C29.2827 54.9887 22.2664 56 17 56M42 56L42 85C46.6656 85 53.9004 86.3506 57.8519 83.3966C63.0093 79.541 62.9976 61.8127 57.7716 58.0093C53.531 54.923 46.9366 56 42 56M68 56L68 86L75 86L75 73L84 73L84 68L75 68L75 61L86 61L86 56L68 56z"/>
	</mask>
</defs>
<path style="fill:none; stroke:none;" d="M0 0L0 49L16 49C16 40.176 13.065 25.0411 20.2245 18.3943C27.2115 11.9077 43.1495 15 52 15L91 15C109.155 15 124.972 14.8475 140 26.669C150.142 34.6473 158.884 44.8844 168 54C172.379 58.3793 178.839 63.0654 181.106 69C184.5 77.8838 182 91.5607 182 101L182 172C178.318 170.582 174.951 169.347 171 169L171 98C171 91.6633 173.681 77.1846 168.682 72.5139C166.173 70.1693 162.225 69.926 159 69.4244C151.68 68.2858 144.335 67.162 137 66.1304C133.573 65.6484 128.229 65.7904 125.988 62.6829C119.003 52.9962 129.387 37.3216 119.775 28.3943C114.185 23.2017 105.033 24 98 24L50 24L35.0008 24.0008C33.0434 24.0143 30.3814 23.7016 28.7423 25.0278C26.7901 26.6073 27.0351 29.7633 27.0039 32C26.9247 37.6644 27 43.335 27 49L103 49L103 93L0 93L0 220L200 220L200 0L0 0z"/>
<path style="fill:#ff7262; stroke:none;" mask="url(#hole-1)" d="M16 49L0 49L0 93L103 93L103 49L27 49C27 43.6682 26.9294 38.3312 27.0039 33C27.0379 30.5588 26.8904 27.4952 28.7423 25.6034C32.5144 21.75 44.9614 24 50 24L98 24C105.33 24 114.188 23.5408 119.775 29.2137C125.767 35.2971 123.912 45.248 124.004 53C124.041 56.1123 123.84 60.8593 125.988 63.4005C128.237 66.0605 133.835 65.8053 137 66.2716C144.33 67.3515 151.687 68.3999 159 69.5895C162.443 70.1496 166.152 70.5999 168.682 73.2785C173.614 78.4995 171 92.275 171 99L171 169C174.812 169.571 178.295 170.989 182 172L182 100C182 90.5607 184.5 76.8838 181.106 68C178.979 62.4311 173.106 58.1061 169 54C159.884 44.8844 151.142 34.6473 141 26.669C125.972 14.8475 110.155 15 92 15L52 15C43.4585 15 27.1876 11.8915 20.2245 17.6528C12.8034 23.793 16 40.4243 16 49z"/>
<path style="fill:#ff7262; stroke:none;" d="M24 61L24 70C31.5471 69.412 30.8554 62.4296 24 61M49 61L49 80C57.9589 79.302 57.8766 61.7079 49 61M16 101L16 172C16 179.659 13.5571 192.593 19.419 198.606C25.0918 204.424 37.6165 202 45 202L115 202C113.367 198.435 110.768 194.131 106.91 192.603C101.667 190.527 93.5802 192 88 192L47 192C42.281 192 33.3899 193.689 29.3179 190.972C26.9979 189.424 27.0514 186.484 27.0046 184C26.9044 178.671 27 173.33 27 168L27 101L16 101M127 177C123.071 177 113.39 175.248 111.083 179.318C108.823 183.302 114.34 188.313 116.59 191L130.92 207.999C134.237 211.947 137.41 215.912 143 215.912C148.565 215.912 152.064 211.941 155.41 207.999C160.487 202.017 165.591 196.051 170.586 190C172.751 187.376 177.82 182.345 174.968 178.603C172.426 175.269 162.762 177 159 177C159.707 168.045 160.765 158.981 160.985 150C161.067 146.686 161.692 142.122 159.972 139.133C158.517 136.605 155.748 135.57 153 135.189C146.507 134.288 129.983 132.522 126.179 139.133C123.961 142.99 125.439 147.893 125.83 152C126.609 160.182 126.999 168.78 127 177z"/>
</svg>
