<svg xmlns="http://www.w3.org/2000/svg" xmlns:xlink="http://www.w3.org/1999/xlink" version="1.1" enable-background="new 0 0 1190.549 841.891" xml:space="preserve" style="">

	<path fill="#FFFFFF" d="M390.596,46.794 c-6.729,-3.172 -14.757,-0.276 -17.915,6.459 c-3.173,6.735 -0.276,14.757 6.459,17.922 c81.266,38.202 133.779,120.889 133.779,210.655 c0,128.276 -104.36,232.645 -232.645,232.645 S47.629999999999995,410.113 47.629999999999995,281.83 c0,-117.185 87.112,-214.366 199.966,-230.301 l-21.593,22.624 c-5.132,5.381 -4.931,13.908 0.44400000000000006,19.047 c2.613,2.492 5.961,3.725 9.301,3.725 c3.55,0 7.1,-1.401 9.746,-4.1690000000000005 l45.597,-47.779 c2.855,-2.99 4.176,-7.132 3.583,-11.228 c-0.5930000000000001,-4.095 -3.023,-7.691 -6.606,-9.752 l-59.27,-34.106 c-6.452,-3.7110000000000003 -14.683,-1.482 -18.394,4.957 c-3.7110000000000003,6.452 -1.495,14.683 4.95,18.394 l21.943,12.628 C114.55000000000001,46.41 20.689999999999998,153.337 20.689999999999998,281.83 c0,143.135 116.45,259.585 259.585,259.585 S539.86,424.965 539.86,281.83 C539.86,181.678 481.27099999999996,89.42099999999999 390.596,46.794 z" id="svg" class="" transform="rotate(98.34017944335938 280.2750244140625,264.7552490234375) "/>

</svg>