<?xml version="1.0" encoding="utf-8"?>
<!-- Generator: Adobe Illustrator 16.0.0, SVG Export Plug-In . SVG Version: 6.00 Build 0)  -->
<!DOCTYPE svg PUBLIC "-//W3C//DTD SVG 1.1//EN" "http://www.w3.org/Graphics/SVG/1.1/DTD/svg11.dtd">
<svg version="1.1" id="Layer_1" xmlns="http://www.w3.org/2000/svg" xmlns:xlink="http://www.w3.org/1999/xlink" x="0px" y="0px"
	 width="165px" height="503px" viewBox="0 0 165 503" enable-background="new 0 0 165 503" xml:space="preserve">
<g>
	<path d="M61.529,73.854v0.076c0,0.637-0.516,1.154-1.153,1.154c-0.636,0-1.154-0.519-1.154-1.154v-0.076
		c0-0.637,0.518-1.156,1.154-1.156C61.013,72.698,61.529,73.217,61.529,73.854z M61.527,61.351v0.076
		c0,0.637-0.518,1.153-1.153,1.153c-0.637,0-1.153-0.516-1.153-1.153v-0.076c0-0.637,0.516-1.155,1.153-1.155
		C61.012,60.198,61.527,60.715,61.527,61.351z M61.527,67.601v0.078c0,0.638-0.518,1.156-1.153,1.156
		c-0.637,0-1.153-0.518-1.153-1.156v-0.078c0-0.636,0.516-1.152,1.153-1.152S61.527,66.964,61.527,67.601z M61.527,80.103v0.079
		c0,0.638-0.518,1.154-1.153,1.154c-0.637,0-1.153-0.516-1.153-1.154v-0.079c0-0.637,0.516-1.152,1.153-1.152
		C61.012,78.949,61.527,79.466,61.527,80.103z M61.529,86.355v0.077c0,0.637-0.516,1.155-1.153,1.155
		c-0.636,0-1.153-0.519-1.153-1.155v-0.077c0-0.637,0.517-1.153,1.153-1.153C61.013,85.202,61.529,85.717,61.529,86.355z
		 M61.529,92.605v0.08c0,0.636-0.516,1.15-1.153,1.15c-0.636,0-1.153-0.516-1.153-1.15v-0.08c0-0.638,0.517-1.152,1.153-1.152
		C61.013,91.453,61.529,91.969,61.529,92.605z M61.527,55.1v0.077c0,0.638-0.518,1.154-1.153,1.154
		c-0.637,0-1.153-0.516-1.153-1.154V55.1c0-0.637,0.516-1.154,1.153-1.154S61.527,54.463,61.527,55.1z M61.527,98.855v0.077
		c0,0.637-0.518,1.154-1.153,1.154c-0.637,0-1.153-0.518-1.153-1.154v-0.077c0-0.636,0.516-1.153,1.153-1.153
		S61.527,98.221,61.527,98.855z M61.527,105.107v0.078c0,0.638-0.518,1.152-1.153,1.152c-0.637,0-1.153-0.515-1.153-1.152v-0.078
		c0-0.637,0.516-1.152,1.153-1.152S61.527,104.471,61.527,105.107z M61.526,111.359v0.078c0,0.637-0.517,1.154-1.153,1.154
		c-0.637,0-1.153-0.517-1.153-1.154v-0.078c0-0.638,0.516-1.153,1.153-1.153C61.009,110.205,61.526,110.721,61.526,111.359z
		 M61.524,48.851v0.076c0,0.636-0.517,1.155-1.153,1.155c-0.637,0-1.154-0.519-1.154-1.155v-0.076c0-0.637,0.517-1.155,1.154-1.155
		C61.009,47.696,61.524,48.212,61.524,48.851z M61.523,42.597v0.078c0,0.637-0.517,1.154-1.153,1.154
		c-0.636,0-1.152-0.516-1.152-1.154v-0.078c-0.059-0.619,0.432-1.162,1.069-1.208c0.635-0.045,1.188,0.461,1.232,1.097
		C61.521,42.512,61.523,42.57,61.523,42.597z M58.857,116.336c0,0.531-0.356,1.003-0.898,1.112l-0.101,0.022
		c-0.628,0.113-1.228-0.304-1.341-0.928c-0.115-0.629,0.301-1.227,0.928-1.343c0.624-0.127,1.258,0.269,1.387,0.894
		C58.849,116.174,58.857,116.256,58.857,116.336z M57.02,39.489c0,0.637-0.518,1.153-1.154,1.153H55.79
		c-0.636,0-1.154-0.516-1.154-1.153c0-0.637,0.519-1.154,1.154-1.154h0.076C56.502,38.334,57.02,38.852,57.02,39.489z
		 M52.633,116.392c0,0.636-0.517,1.154-1.153,1.154h-0.079c-0.636,0-1.153-0.52-1.153-1.154c0-0.636,0.518-1.154,1.153-1.154h0.079
		C52.118,115.237,52.633,115.754,52.633,116.392z M50.768,39.489c0,0.637-0.517,1.153-1.153,1.153h-0.079
		c-0.636,0-1.154-0.516-1.154-1.153c0-0.637,0.518-1.154,1.154-1.154h0.079C50.251,38.334,50.768,38.852,50.768,39.489z
		 M46.383,116.392c0,0.636-0.516,1.154-1.154,1.154h-0.076c-0.637,0-1.154-0.52-1.154-1.154c0-0.636,0.517-1.154,1.154-1.154h0.076
		C45.866,115.237,46.383,115.754,46.383,116.392z M44.517,39.489c0,0.637-0.517,1.153-1.154,1.153h-0.076
		c-0.638,0-1.154-0.516-1.154-1.153c0-0.637,0.518-1.154,1.154-1.154h0.076C44.001,38.334,44.517,38.852,44.517,39.489z
		 M40.132,116.392c0,0.636-0.518,1.154-1.156,1.154H38.9c-0.637,0-1.153-0.52-1.153-1.154c0-0.636,0.516-1.154,1.153-1.154h0.076
		C39.614,115.237,40.132,115.754,40.132,116.392z M38.266,39.489c0,0.637-0.519,1.153-1.154,1.153h-0.076
		c-0.637,0-1.154-0.516-1.154-1.153c0-0.637,0.517-1.154,1.154-1.154h0.076C37.748,38.334,38.266,38.852,38.266,39.489z
		 M33.882,116.392c0,0.636-0.518,1.154-1.154,1.154H32.65c-0.636,0-1.153-0.52-1.153-1.154c0-0.636,0.518-1.154,1.153-1.154h0.077
		C33.364,115.237,33.882,115.754,33.882,116.392z M32.016,39.489c0,0.637-0.517,1.153-1.154,1.153h-0.076
		c-0.636,0-1.153-0.516-1.153-1.153c0-0.637,0.517-1.154,1.153-1.154h0.078C31.499,38.334,32.016,38.852,32.016,39.489z
		 M27.629,116.392c0,0.635-0.516,1.154-1.153,1.154h-0.075c-0.639,0-1.156-0.52-1.156-1.154c0-0.636,0.517-1.154,1.156-1.154h0.076
		C27.113,115.237,27.629,115.754,27.629,116.392z M25.749,39.547c0,0.53-0.359,1.002-0.9,1.115l-0.075,0.015
		c-0.624,0.132-1.234-0.268-1.365-0.894c-0.131-0.619,0.269-1.232,0.894-1.365c0.003,0,0.047-0.009,0.053-0.01
		c0.622-0.122,1.243,0.279,1.369,0.9C25.742,39.389,25.749,39.469,25.749,39.547z M23.066,113.246c0,0.601-0.461,1.125-1.067,1.171
		c-0.636,0.047-1.188-0.411-1.236-1.046l-0.004-0.112c-0.027-0.656,0.467-1.175,1.103-1.202c0.638-0.027,1.174,0.469,1.202,1.104
		C23.064,113.189,23.066,113.216,23.066,113.246z M23.059,75.704v0.076c0,0.637-0.517,1.156-1.153,1.156
		c-0.637,0-1.153-0.519-1.153-1.156v-0.076c0-0.637,0.516-1.154,1.153-1.154S23.059,75.066,23.059,75.704z M23.059,81.952v0.079
		c0,0.637-0.517,1.154-1.153,1.154c-0.637,0-1.153-0.518-1.153-1.154v-0.079c0-0.637,0.516-1.151,1.153-1.151
		S23.059,81.315,23.059,81.952z M23.061,88.205v0.077c0,0.636-0.516,1.153-1.153,1.153s-1.154-0.519-1.154-1.153v-0.077
		c0-0.637,0.517-1.155,1.154-1.155S23.061,87.568,23.061,88.205z M23.061,94.454v0.08c0,0.637-0.516,1.153-1.153,1.153
		s-1.154-0.517-1.154-1.153v-0.08c0-0.636,0.517-1.15,1.154-1.15C22.545,93.302,23.061,93.818,23.061,94.454z M23.061,100.709v0.075
		c0,0.637-0.516,1.152-1.153,1.152s-1.154-0.516-1.154-1.152v-0.075c0-0.638,0.517-1.155,1.154-1.155S23.061,100.069,23.061,100.709
		z M23.061,106.957v0.078c0,0.638-0.516,1.155-1.153,1.155s-1.154-0.517-1.154-1.155v-0.078c0-0.637,0.517-1.153,1.154-1.153
		S23.061,106.32,23.061,106.957z M23.059,44.448v0.077c0,0.636-0.517,1.153-1.153,1.153c-0.637,0-1.153-0.517-1.153-1.153v-0.077
		c0-0.637,0.516-1.154,1.153-1.154S23.059,43.812,23.059,44.448z M23.059,50.699v0.078c0,0.638-0.517,1.152-1.153,1.152
		c-0.637,0-1.153-0.515-1.153-1.152v-0.078c0-0.636,0.516-1.155,1.153-1.155C22.543,49.545,23.059,50.062,23.059,50.699z
		 M23.059,56.95v0.079c0,0.635-0.517,1.153-1.153,1.153c-0.637,0-1.153-0.518-1.153-1.153V56.95c0-0.637,0.516-1.154,1.153-1.154
		S23.059,56.313,23.059,56.95z M23.059,63.2v0.079c0,0.637-0.517,1.153-1.153,1.153c-0.637,0-1.153-0.516-1.153-1.153V63.2
		c0-0.636,0.516-1.152,1.153-1.152S23.059,62.564,23.059,63.2z M23.059,69.451v0.078c0,0.637-0.517,1.154-1.153,1.154
		c-0.637,0-1.153-0.516-1.153-1.154v-0.078c0-0.637,0.516-1.155,1.153-1.155S23.059,68.814,23.059,69.451z"/>
	<g>
		<path fill="#f79168" d="M73.265,49.131c-0.003,0.069,0.004,0.139,0.01,0.211c0.559,0,1.117,0.028,1.671,0.085
			c2.797,0.29,5.505,1.348,7.758,3.032c2.437,1.81,4.34,4.333,5.397,7.18c0.584,1.565,0.914,3.223,0.978,4.892
			c0.006,0.155,0,0.465,0,0.465h-2.767c0,0,3.601,3.624,5.325,5.344c0.008,0.002,0.037,0.012,0.037,0.012l5.341-5.356l-2.82-0.002
			c0,0-0.049-1.448-0.135-2.168c-0.186-1.714-0.592-3.403-1.198-5.016c-1.02-2.726-2.619-5.227-4.657-7.3
			c-2.58-2.637-5.871-4.577-9.436-5.538c-1.789-0.493-3.644-0.727-5.5-0.733C73.261,45.867,73.268,47.5,73.265,49.131z"/>
	</g>
	<g>
		<g>
			<path fill="#f79168" d="M147.059,117.536c-23.221,0.011-46.441,0.001-69.658,0.005c-0.463-0.017-0.931,0.041-1.389-0.051
				c-1.016-0.169-1.917-0.851-2.387-1.764c-0.236-0.475-0.36-1.002-0.36-1.532c0-10.284,0-20.571,0-30.855
				c0.013-0.582-0.043-1.171,0.099-1.745c0.206-0.822,0.734-1.563,1.456-2.013c0.546-0.343,1.188-0.515,1.829-0.508
				c23.121,0.001,46.244,0,69.365,0c0.495,0.008,0.995-0.022,1.488,0.062c0.714,0.142,1.38,0.522,1.856,1.072
				c0.535,0.604,0.844,1.414,0.811,2.221c0,10.645,0,21.288,0,31.93c-0.017,0.751-0.317,1.493-0.814,2.058
				C148.781,117.078,147.935,117.489,147.059,117.536z M142.953,115.143c0.008-0.065,0.013-0.131,0.013-0.195
				c0-8.612,0-17.222,0-25.832c-0.006-2.549,0.01-5.095-0.009-7.641c-20.028,0.01-40.061-0.005-60.087,0.006
				c0.012,5.308,0.001,10.616,0.004,15.922c-0.001,5.913,0.004,11.826-0.002,17.74c12.082-0.008,24.16-0.001,36.241-0.003
				C127.061,115.142,135.007,115.132,142.953,115.143z M146.848,105.5c0.381-0.093,0.714-0.37,0.85-0.741
				c0.092-0.209,0.079-0.444,0.08-0.671c-0.001-2.316,0-4.635-0.001-6.953c0.036-0.557-0.376-1.087-0.915-1.209
				c-0.292-0.057-0.62-0.045-0.878,0.114c-0.377,0.204-0.625,0.615-0.632,1.043c0,2.405,0.001,4.811,0,7.217
				c-0.004,0.471,0.278,0.941,0.724,1.123C146.312,105.534,146.588,105.544,146.848,105.5z M78.554,100.685
				c0.576-0.128,1.115-0.448,1.466-0.927c0.665-0.865,0.629-2.192-0.089-3.014c-0.615-0.747-1.708-1.05-2.622-0.722
				c-0.892,0.282-1.568,1.141-1.629,2.078c-0.111,1.032,0.536,2.085,1.508,2.454C77.618,100.736,78.098,100.748,78.554,100.685z
				 M146.904,93.471c0.549-0.153,0.951-0.728,0.862-1.302c-0.034-0.516-0.45-0.962-0.95-1.062c-0.265-0.03-0.555-0.03-0.794,0.106
				c-0.346,0.169-0.604,0.513-0.653,0.896c-0.083,0.441,0.117,0.918,0.484,1.175C146.148,93.511,146.549,93.562,146.904,93.471z"/>
		</g>
	</g>
</g>
<g>
	<path d="M22.09,146.656v-1.328h10.242v-5.867H22.09v-1.328h11.422v8.523H22.09z"/>
	<path d="M21.934,153.219c0-1.266,0.386-2.265,1.156-2.996c0.771-0.732,1.841-1.098,3.211-1.098c1.38,0,2.477,0.34,3.289,1.02
		s1.219,1.592,1.219,2.738c0,1.073-0.353,1.922-1.059,2.547s-1.637,0.938-2.793,0.938h-0.82v-5.898
		c-1.005,0.026-1.769,0.28-2.289,0.762c-0.521,0.481-0.781,1.16-0.781,2.035c0,0.922,0.192,1.833,0.578,2.734h-1.156
		c-0.198-0.458-0.34-0.892-0.426-1.301C21.977,154.29,21.934,153.797,21.934,153.219z M29.723,152.867
		c0-0.688-0.224-1.236-0.672-1.645c-0.448-0.409-1.067-0.65-1.859-0.723v4.477c0.817,0,1.444-0.183,1.879-0.547
		C29.505,154.065,29.723,153.544,29.723,152.867z"/>
	<path d="M21.934,162.562c0-0.558,0.103-1.066,0.309-1.527s0.522-0.848,0.949-1.16v-0.094c-0.5,0.062-0.974,0.094-1.422,0.094
		h-3.523v-1.297h12.406v1.055l-1.172,0.18v0.062c0.469,0.333,0.808,0.721,1.016,1.164c0.208,0.442,0.312,0.95,0.312,1.523
		c0,1.135-0.388,2.012-1.164,2.629s-1.864,0.926-3.266,0.926c-1.406,0-2.499-0.314-3.277-0.941
		C22.323,164.548,21.934,163.677,21.934,162.562z M29.707,162.375c0-0.875-0.242-1.508-0.727-1.898s-1.255-0.591-2.312-0.602h-0.289
		c-1.203,0-2.063,0.2-2.582,0.602c-0.519,0.401-0.777,1.044-0.777,1.93c0,0.739,0.3,1.319,0.898,1.738
		c0.599,0.419,1.425,0.629,2.477,0.629c1.067,0,1.887-0.21,2.457-0.629C29.422,163.725,29.707,163.135,29.707,162.375z"/>
	<path d="M21.934,172c0-1.266,0.386-2.265,1.156-2.996c0.771-0.732,1.841-1.098,3.211-1.098c1.38,0,2.477,0.34,3.289,1.02
		s1.219,1.592,1.219,2.738c0,1.073-0.353,1.922-1.059,2.547s-1.637,0.938-2.793,0.938h-0.82v-5.898
		c-1.005,0.026-1.769,0.28-2.289,0.762c-0.521,0.481-0.781,1.16-0.781,2.035c0,0.922,0.192,1.833,0.578,2.734h-1.156
		c-0.198-0.458-0.34-0.892-0.426-1.301C21.977,173.071,21.934,172.578,21.934,172z M29.723,171.648c0-0.688-0.224-1.236-0.672-1.645
		c-0.448-0.409-1.067-0.65-1.859-0.723v4.477c0.817,0,1.444-0.183,1.879-0.547C29.505,172.846,29.723,172.325,29.723,171.648z"/>
	<path d="M28.504,184.305c-0.558,0-0.98-0.16-1.27-0.48s-0.483-0.77-0.582-1.348h-0.07c-0.099,0.729-0.312,1.262-0.641,1.598
		s-0.781,0.504-1.359,0.504c-0.797,0-1.411-0.293-1.844-0.879s-0.648-1.441-0.648-2.566v-3.773h8.562v3.758
		C30.652,183.242,29.937,184.305,28.504,184.305z M24.668,183.281c0.464,0,0.801-0.176,1.012-0.527s0.316-0.934,0.316-1.746v-2.352
		h-2.82v2.383C23.176,182.534,23.673,183.281,24.668,183.281z M28.379,183.039c0.417,0,0.712-0.16,0.887-0.48
		s0.262-0.806,0.262-1.457v-2.445h-2.414v2.195c0,0.802,0.099,1.367,0.297,1.695S27.931,183.039,28.379,183.039z"/>
	<path d="M21.934,190.078c0-1.266,0.386-2.265,1.156-2.996c0.771-0.732,1.841-1.098,3.211-1.098c1.38,0,2.477,0.34,3.289,1.02
		s1.219,1.592,1.219,2.738c0,1.073-0.353,1.922-1.059,2.547s-1.637,0.938-2.793,0.938h-0.82v-5.898
		c-1.005,0.026-1.769,0.28-2.289,0.762c-0.521,0.481-0.781,1.16-0.781,2.035c0,0.922,0.192,1.833,0.578,2.734h-1.156
		c-0.198-0.458-0.34-0.892-0.426-1.301C21.977,191.149,21.934,190.656,21.934,190.078z M29.723,189.727
		c0-0.688-0.224-1.236-0.672-1.645c-0.448-0.409-1.067-0.65-1.859-0.723v4.477c0.817,0,1.444-0.183,1.879-0.547
		C29.505,190.924,29.723,190.403,29.723,189.727z"/>
	<path d="M21.934,199.422c0-0.558,0.103-1.066,0.309-1.527s0.522-0.848,0.949-1.16v-0.094c-0.5,0.062-0.974,0.094-1.422,0.094
		h-3.523v-1.297h12.406v1.055l-1.172,0.18v0.062c0.469,0.333,0.808,0.721,1.016,1.164c0.208,0.442,0.312,0.95,0.312,1.523
		c0,1.135-0.388,2.012-1.164,2.629s-1.864,0.926-3.266,0.926c-1.406,0-2.499-0.314-3.277-0.941
		C22.323,201.407,21.934,200.536,21.934,199.422z M29.707,199.234c0-0.875-0.242-1.508-0.727-1.898s-1.255-0.591-2.312-0.602h-0.289
		c-1.203,0-2.063,0.2-2.582,0.602c-0.519,0.401-0.777,1.044-0.777,1.93c0,0.739,0.3,1.319,0.898,1.738
		c0.599,0.419,1.425,0.629,2.477,0.629c1.067,0,1.887-0.21,2.457-0.629C29.422,200.584,29.707,199.995,29.707,199.234z"/>
	<path d="M30.652,206.539h-3.586v4.797h3.586v1.297H22.09v-1.297h3.859v-4.797H22.09v-1.297h8.562V206.539z"/>
	<path d="M30.652,216.602h-5.43l-1.422-0.055l-0.445-0.023l7.297,4.633v1.617H22.09v-1.211h5.234l1.031,0.023l1.016,0.039L22.09,217
		v-1.617h8.562V216.602z"/>
	<path d="M29.543,231.297v-2.781H22.09v-1.297h7.453v-2.75h1.109v6.828H29.543z"/>
	<path d="M21.934,236.609c0-1.266,0.386-2.265,1.156-2.996c0.771-0.732,1.841-1.098,3.211-1.098c1.38,0,2.477,0.34,3.289,1.02
		s1.219,1.592,1.219,2.738c0,1.073-0.353,1.922-1.059,2.547s-1.637,0.938-2.793,0.938h-0.82v-5.898
		c-1.005,0.026-1.769,0.28-2.289,0.762c-0.521,0.481-0.781,1.16-0.781,2.035c0,0.922,0.192,1.833,0.578,2.734h-1.156
		c-0.198-0.458-0.34-0.892-0.426-1.301C21.977,237.681,21.934,237.188,21.934,236.609z M29.723,236.258
		c0-0.688-0.224-1.236-0.672-1.645c-0.448-0.409-1.067-0.65-1.859-0.723v4.477c0.817,0,1.444-0.183,1.879-0.547
		C29.505,237.456,29.723,236.935,29.723,236.258z"/>
	<path d="M30.652,244.766v1.391l-4.883,1.875c-1.114,0.411-1.919,0.667-2.414,0.766v0.062c0.266,0.067,0.72,0.209,1.363,0.426
		c0.644,0.216,2.621,0.923,5.934,2.121v1.391l-9.75-3.68c-0.964-0.365-1.647-0.791-2.051-1.277
		c-0.403-0.487-0.605-1.085-0.605-1.793c0-0.396,0.044-0.787,0.133-1.172h1.039c-0.062,0.286-0.094,0.606-0.094,0.961
		c0,0.891,0.5,1.526,1.5,1.906l1.219,0.477L30.652,244.766z"/>
	<path d="M21.934,257.609c0-1.24,0.382-2.199,1.145-2.879s1.843-1.02,3.238-1.02c1.433,0,2.539,0.345,3.32,1.035
		c0.781,0.689,1.172,1.673,1.172,2.949c0,0.411-0.044,0.822-0.133,1.234c-0.089,0.411-0.192,0.734-0.312,0.969l-1.102-0.398
		c0.114-0.287,0.21-0.6,0.285-0.938c0.075-0.339,0.113-0.639,0.113-0.898c0-1.74-1.109-2.609-3.328-2.609
		c-1.052,0-1.859,0.212-2.422,0.637c-0.562,0.424-0.844,1.053-0.844,1.887c0,0.713,0.153,1.445,0.461,2.195h-1.148
		C22.082,259.2,21.934,258.479,21.934,257.609z"/>
	<path d="M29.543,267.578v-2.781H22.09V263.5h7.453v-2.75h1.109v6.828H29.543z"/>
	<path d="M21.934,273.258c0-0.558,0.103-1.066,0.309-1.527s0.522-0.848,0.949-1.16v-0.094c-0.5,0.062-0.974,0.094-1.422,0.094
		h-3.523v-1.297h12.406v1.055l-1.172,0.18v0.062c0.469,0.333,0.808,0.721,1.016,1.164c0.208,0.442,0.312,0.95,0.312,1.523
		c0,1.135-0.388,2.012-1.164,2.629s-1.864,0.926-3.266,0.926c-1.406,0-2.499-0.314-3.277-0.941
		C22.323,275.243,21.934,274.372,21.934,273.258z M29.707,273.07c0-0.875-0.242-1.508-0.727-1.898s-1.255-0.592-2.312-0.602h-0.289
		c-1.203,0-2.063,0.2-2.582,0.602c-0.519,0.4-0.777,1.044-0.777,1.93c0,0.739,0.3,1.318,0.898,1.738
		c0.599,0.419,1.425,0.629,2.477,0.629c1.067,0,1.887-0.21,2.457-0.629C29.422,274.42,29.707,273.83,29.707,273.07z"/>
	<path d="M26.379,286.469c-1.396,0-2.485-0.352-3.27-1.055s-1.176-1.675-1.176-2.914c0-0.766,0.18-1.445,0.539-2.039
		s0.875-1.053,1.547-1.375c0.672-0.323,1.458-0.484,2.359-0.484c1.396,0,2.483,0.349,3.262,1.047
		c0.778,0.697,1.168,1.666,1.168,2.906c0,1.197-0.398,2.149-1.195,2.855C28.816,286.115,27.738,286.469,26.379,286.469z
		 M26.379,279.945c-1.094,0-1.927,0.219-2.5,0.656s-0.859,1.08-0.859,1.93c0,0.849,0.285,1.493,0.855,1.934
		c0.57,0.439,1.405,0.66,2.504,0.66c1.089,0,1.915-0.221,2.48-0.66c0.565-0.44,0.848-1.09,0.848-1.949
		c0-0.85-0.278-1.49-0.836-1.922C28.313,280.161,27.483,279.945,26.379,279.945z"/>
	<path d="M30.652,289.961h-5.43l-1.422-0.055l-0.445-0.023l7.297,4.633v1.617H22.09v-1.211h5.234l1.031,0.023l1.016,0.039
		l-7.281-4.625v-1.617h8.562V289.961z M31.785,292.406c0-0.964,0.187-1.667,0.559-2.109c0.372-0.443,0.985-0.69,1.84-0.742v1.219
		c-0.542,0.047-0.919,0.188-1.133,0.426c-0.214,0.236-0.32,0.649-0.32,1.238c0,0.536,0.114,0.934,0.344,1.191
		s0.599,0.415,1.109,0.473v1.227c-0.823-0.062-1.429-0.326-1.816-0.789C31.979,294.075,31.785,293.364,31.785,292.406z"/>
	<path d="M21.934,302.305c0-1.24,0.382-2.199,1.145-2.879s1.843-1.02,3.238-1.02c1.433,0,2.539,0.345,3.32,1.035
		c0.781,0.689,1.172,1.673,1.172,2.949c0,0.411-0.044,0.822-0.133,1.234c-0.089,0.411-0.192,0.734-0.312,0.969l-1.102-0.398
		c0.114-0.287,0.21-0.6,0.285-0.938c0.075-0.339,0.113-0.639,0.113-0.898c0-1.74-1.109-2.609-3.328-2.609
		c-1.052,0-1.859,0.212-2.422,0.637c-0.562,0.424-0.844,1.053-0.844,1.887c0,0.713,0.153,1.445,0.461,2.195h-1.148
		C22.082,303.896,21.934,303.174,21.934,302.305z"/>
	<path d="M29.543,312.273v-2.781H22.09v-1.297h7.453v-2.75h1.109v6.828H29.543z"/>
	<path d="M28.504,320.914c-0.558,0-0.98-0.16-1.27-0.48s-0.483-0.77-0.582-1.348h-0.07c-0.099,0.729-0.312,1.262-0.641,1.598
		s-0.781,0.504-1.359,0.504c-0.797,0-1.411-0.293-1.844-0.879s-0.648-1.441-0.648-2.566v-3.773h8.562v3.758
		C30.652,319.852,29.937,320.914,28.504,320.914z M24.668,319.891c0.464,0,0.801-0.176,1.012-0.527s0.316-0.934,0.316-1.746v-2.352
		h-2.82v2.383C23.176,319.143,23.673,319.891,24.668,319.891z M28.379,319.648c0.417,0,0.712-0.16,0.887-0.48
		s0.262-0.807,0.262-1.457v-2.445h-2.414v2.195c0,0.802,0.099,1.367,0.297,1.695S27.931,319.648,28.379,319.648z"/>
	<path d="M26.379,330.461c-1.396,0-2.485-0.352-3.27-1.055s-1.176-1.675-1.176-2.914c0-0.766,0.18-1.445,0.539-2.039
		s0.875-1.053,1.547-1.375c0.672-0.323,1.458-0.484,2.359-0.484c1.396,0,2.483,0.349,3.262,1.047
		c0.778,0.697,1.168,1.666,1.168,2.906c0,1.197-0.398,2.149-1.195,2.855C28.816,330.107,27.738,330.461,26.379,330.461z
		 M26.379,323.938c-1.094,0-1.927,0.219-2.5,0.656s-0.859,1.08-0.859,1.93c0,0.849,0.285,1.493,0.855,1.934
		c0.57,0.439,1.405,0.66,2.504,0.66c1.089,0,1.915-0.221,2.48-0.66c0.565-0.44,0.848-1.09,0.848-1.949
		c0-0.85-0.278-1.49-0.836-1.922C28.313,324.153,27.483,323.938,26.379,323.938z"/>
	<path d="M29.543,342.047v-3.859H22.09v-1.297h8.562v5.156H29.543z"/>
	<path d="M26.379,351.133c-1.396,0-2.485-0.352-3.27-1.055s-1.176-1.675-1.176-2.914c0-0.766,0.18-1.445,0.539-2.039
		s0.875-1.053,1.547-1.375c0.672-0.323,1.458-0.484,2.359-0.484c1.396,0,2.483,0.349,3.262,1.047
		c0.778,0.697,1.168,1.666,1.168,2.906c0,1.197-0.398,2.149-1.195,2.855C28.816,350.779,27.738,351.133,26.379,351.133z
		 M26.379,344.609c-1.094,0-1.927,0.219-2.5,0.656s-0.859,1.08-0.859,1.93c0,0.849,0.285,1.493,0.855,1.934
		c0.57,0.439,1.405,0.66,2.504,0.66c1.089,0,1.915-0.221,2.48-0.66c0.565-0.44,0.848-1.09,0.848-1.949
		c0-0.85-0.278-1.49-0.836-1.922C28.313,344.825,27.483,344.609,26.379,344.609z"/>
	<path d="M21.934,357.391c0-0.558,0.103-1.066,0.309-1.527s0.522-0.848,0.949-1.16v-0.094c-0.5,0.062-0.974,0.094-1.422,0.094
		h-3.523v-1.297h12.406v1.055l-1.172,0.18v0.062c0.469,0.333,0.808,0.721,1.016,1.164c0.208,0.442,0.312,0.95,0.312,1.523
		c0,1.135-0.388,2.012-1.164,2.629s-1.864,0.926-3.266,0.926c-1.406,0-2.499-0.314-3.277-0.941
		C22.323,359.376,21.934,358.505,21.934,357.391z M29.707,357.203c0-0.875-0.242-1.508-0.727-1.898s-1.255-0.592-2.312-0.602h-0.289
		c-1.203,0-2.063,0.2-2.582,0.602c-0.519,0.4-0.777,1.044-0.777,1.93c0,0.739,0.3,1.318,0.898,1.738
		c0.599,0.419,1.425,0.629,2.477,0.629c1.067,0,1.887-0.21,2.457-0.629C29.422,358.553,29.707,357.963,29.707,357.203z"/>
	<path d="M30.652,364.43h-5.43l-1.422-0.055l-0.445-0.023l7.297,4.633v1.617H22.09v-1.211h5.234l1.031,0.023l1.016,0.039
		l-7.281-4.625v-1.617h8.562V364.43z"/>
	<path d="M27.098,374.984c0,1.619,0.448,2.43,1.344,2.43c0.844,0,1.266-0.656,1.266-1.969c0-0.401-0.036-0.766-0.109-1.094
		s-0.219-0.758-0.438-1.289l1.055-0.461c0.396,0.885,0.594,1.852,0.594,2.898c0,0.984-0.202,1.76-0.605,2.328
		c-0.403,0.567-0.954,0.852-1.652,0.852c-0.958,0-1.586-0.534-1.883-1.602h-0.062c-0.192,0.656-0.468,1.135-0.824,1.438
		c-0.356,0.302-0.804,0.453-1.34,0.453c-0.792,0-1.407-0.319-1.848-0.957c-0.44-0.639-0.66-1.52-0.66-2.645
		c0-1.234,0.185-2.188,0.555-2.859h1.188c-0.448,0.953-0.672,1.916-0.672,2.891c0,0.75,0.129,1.316,0.387,1.699
		s0.629,0.574,1.113,0.574c0.995,0,1.492-0.811,1.492-2.43v-1.188h1.102V374.984z"/>
	<path d="M26.379,388.469c-1.396,0-2.485-0.352-3.27-1.055s-1.176-1.675-1.176-2.914c0-0.766,0.18-1.445,0.539-2.039
		s0.875-1.053,1.547-1.375c0.672-0.323,1.458-0.484,2.359-0.484c1.396,0,2.483,0.349,3.262,1.047
		c0.778,0.697,1.168,1.666,1.168,2.906c0,1.197-0.398,2.149-1.195,2.855C28.816,388.115,27.738,388.469,26.379,388.469z
		 M26.379,381.945c-1.094,0-1.927,0.219-2.5,0.656s-0.859,1.08-0.859,1.93c0,0.849,0.285,1.493,0.855,1.934
		c0.57,0.439,1.405,0.66,2.504,0.66c1.089,0,1.915-0.221,2.48-0.66c0.565-0.44,0.848-1.09,0.848-1.949
		c0-0.85-0.278-1.49-0.836-1.922C28.313,382.161,27.483,381.945,26.379,381.945z"/>
	<path d="M30.652,392.039h-3.586v4.797h3.586v1.297H22.09v-1.297h3.859v-4.797H22.09v-1.297h8.562V392.039z"/>
	<path d="M29.543,406.656v-2.781H22.09v-1.297h7.453v-2.75h1.109v6.828H29.543z"/>
	<path d="M22.09,413.617l1.219-0.258v-0.062c-0.536-0.428-0.899-0.854-1.09-1.277c-0.19-0.425-0.285-0.955-0.285-1.59
		c0-0.85,0.219-1.515,0.656-1.996c0.438-0.482,1.06-0.723,1.867-0.723c1.729,0,2.636,1.383,2.719,4.148l0.047,1.453h0.531
		c0.672,0,1.168-0.145,1.488-0.434s0.48-0.752,0.48-1.387c0-0.714-0.219-1.521-0.656-2.422l0.992-0.398
		c0.229,0.422,0.409,0.884,0.539,1.387c0.13,0.502,0.195,1.006,0.195,1.512c0,1.021-0.227,1.777-0.68,2.27s-1.18,0.738-2.18,0.738
		H22.09V413.617z M23.004,410.688c0,0.807,0.222,1.441,0.664,1.902s1.062,0.691,1.859,0.691h0.773l-0.055-1.297
		c-0.036-1.031-0.196-1.775-0.48-2.23c-0.284-0.456-0.726-0.684-1.324-0.684c-0.469,0-0.825,0.142-1.07,0.426
		C23.126,409.779,23.004,410.177,23.004,410.688z"/>
	<path d="M22.09,423.633v-1.312h7.453v-2.57c-1.854-0.141-3.325-0.336-4.414-0.586s-1.886-0.574-2.391-0.973
		s-0.758-0.905-0.758-1.52c0-0.281,0.031-0.506,0.094-0.672h0.961c-0.031,0.114-0.047,0.244-0.047,0.391
		c0,0.599,0.633,1.075,1.898,1.43c1.266,0.354,3.188,0.622,5.766,0.805v5.008H22.09z"/>
	<path d="M27.113,427.68v2.641c0,2.188-0.805,3.281-2.414,3.281c-0.844,0-1.489-0.285-1.938-0.855s-0.672-1.405-0.672-2.504v-3.859
		h8.562v1.297H27.113z M25.996,427.68h-2.82v2.5c0,0.688,0.12,1.213,0.359,1.578c0.239,0.364,0.602,0.547,1.086,0.547
		c0.474,0,0.821-0.168,1.043-0.504s0.332-0.89,0.332-1.66V427.68z"/>
	<path d="M30.652,437.148h-3.586v4.797h3.586v1.297H22.09v-1.297h3.859v-4.797H22.09v-1.297h8.562V437.148z"/>
	<path d="M26.379,453.383c-1.396,0-2.485-0.352-3.27-1.055s-1.176-1.675-1.176-2.914c0-0.766,0.18-1.445,0.539-2.039
		s0.875-1.053,1.547-1.375c0.672-0.323,1.458-0.484,2.359-0.484c1.396,0,2.483,0.349,3.262,1.047
		c0.778,0.697,1.168,1.666,1.168,2.906c0,1.197-0.398,2.149-1.195,2.855C28.816,453.029,27.738,453.383,26.379,453.383z
		 M26.379,446.859c-1.094,0-1.927,0.219-2.5,0.656s-0.859,1.08-0.859,1.93c0,0.849,0.285,1.493,0.855,1.934
		c0.57,0.439,1.405,0.66,2.504,0.66c1.089,0,1.915-0.221,2.48-0.66c0.565-0.44,0.848-1.09,0.848-1.949
		c0-0.85-0.278-1.49-0.836-1.922C28.313,447.075,27.483,446.859,26.379,446.859z"/>
</g>
</svg>
